<svg width="392" height="843" viewBox="0 0 392 843" fill="none" xmlns="http://www.w3.org/2000/svg">
<path d="M41.0169 374.956C41.1572 374.922 41.3033 374.916 41.4469 374.938C41.5905 374.961 41.7288 375.012 41.8538 375.087C41.9789 375.163 42.0882 375.262 42.1756 375.379C42.2631 375.496 42.3269 375.629 42.3634 375.77L45.1075 386.391L59.3907 372.108L48.7686 369.365C48.484 369.291 48.2383 369.108 48.0856 368.855C47.9329 368.603 47.8857 368.302 47.9543 368.019C48.0229 367.735 48.2018 367.493 48.4516 367.345C48.7014 367.196 49.0017 367.155 49.2863 367.228L61.1942 370.304L63.0767 368.422C63.4869 368.011 64.0463 367.784 64.6317 367.789C65.2171 367.794 65.7807 368.032 66.1984 368.45L67.7733 370.025C68.191 370.442 68.4286 371.006 68.4339 371.591C68.4391 372.177 68.2116 372.736 67.8014 373.146L74.8885 380.233C75.9327 381.278 76.5267 382.686 76.5399 384.15C76.5531 385.614 75.9843 387.012 74.9587 388.038L61.0376 401.959C60.012 402.984 58.6136 403.553 57.15 403.54C55.6864 403.527 54.2776 402.933 53.2333 401.889L46.1462 394.801C45.736 395.212 45.1766 395.439 44.5912 395.434C44.0058 395.429 43.4422 395.191 43.0245 394.773L41.4496 393.198C41.0319 392.781 40.7943 392.217 40.7891 391.632C40.7838 391.046 41.0113 390.487 41.4215 390.077L43.304 388.194L40.2252 376.289C40.1886 376.148 40.1801 376.002 40.2 375.859C40.2199 375.716 40.268 375.578 40.3413 375.455C40.4147 375.331 40.512 375.223 40.6277 375.138C40.7433 375.053 40.8766 374.99 41.0169 374.956ZM47.693 393.255L54.7801 400.342C55.4067 400.968 56.252 401.325 57.1301 401.333C58.0083 401.34 58.8473 400.999 59.4627 400.384L73.3838 386.463C73.9992 385.847 74.3405 385.008 74.3325 384.13C74.3246 383.252 73.9682 382.407 73.3417 381.78L66.2546 374.693L47.693 393.255ZM42.9964 391.652L44.5713 393.227L66.2265 371.571L64.6516 369.996L42.9964 391.652ZM52.3615 391.736C52.5667 391.531 52.8463 391.417 53.1391 391.42C53.4318 391.422 53.7135 391.541 53.9224 391.75L58.6471 396.475C58.856 396.684 58.9748 396.965 58.9774 397.258C58.98 397.551 58.8663 397.83 58.6612 398.036C58.456 398.241 58.1764 398.354 57.8837 398.352C57.5909 398.349 57.3092 398.23 57.1003 398.022L52.3756 393.297C52.1667 393.088 52.0479 392.806 52.0453 392.513C52.0427 392.221 52.1564 391.941 52.3615 391.736ZM55.4551 388.642C55.6602 388.437 55.9399 388.323 56.2326 388.326C56.5254 388.329 56.8071 388.448 57.016 388.656L61.7407 393.381C61.9495 393.59 62.0684 393.872 62.071 394.164C62.0736 394.457 61.9599 394.737 61.7548 394.942C61.5496 395.147 61.27 395.261 60.9772 395.258C60.6845 395.256 60.4028 395.137 60.1939 394.928L55.4692 390.203C55.2603 389.994 55.1415 389.713 55.1389 389.42C55.1363 389.127 55.25 388.847 55.4551 388.642ZM58.5487 385.549C58.7538 385.344 59.0335 385.23 59.3262 385.233C59.619 385.235 59.9007 385.354 60.1096 385.563L64.8343 390.288C65.0431 390.496 65.162 390.778 65.1646 391.071C65.1672 391.364 65.0535 391.643 64.8484 391.848C64.6432 392.054 64.3636 392.167 64.0708 392.165C63.7781 392.162 63.4963 392.043 63.2875 391.834L58.5628 387.11C58.3539 386.901 58.2351 386.619 58.2325 386.326C58.2299 386.034 58.3436 385.754 58.5487 385.549ZM61.6423 382.455C61.8474 382.25 62.1271 382.136 62.4198 382.139C62.7125 382.142 62.9943 382.26 63.2032 382.469L67.9279 387.194C68.1367 387.403 68.2555 387.685 68.2582 387.977C68.2608 388.27 68.1471 388.55 67.9419 388.755C67.7368 388.96 67.4571 389.074 67.1644 389.071C66.8717 389.068 66.5899 388.95 66.3811 388.741L61.6564 384.016C61.4475 383.807 61.3287 383.525 61.3261 383.233C61.3234 382.94 61.4372 382.66 61.6423 382.455ZM64.7359 379.362C64.941 379.156 65.2207 379.043 65.5134 379.045C65.8061 379.048 66.0879 379.167 66.2968 379.376L71.0215 384.1C71.2303 384.309 71.3491 384.591 71.3518 384.884C71.3544 385.176 71.2407 385.456 71.0355 385.661C70.8304 385.866 70.5507 385.98 70.258 385.977C69.9653 385.975 69.6835 385.856 69.4747 385.647L64.75 380.922C64.5411 380.714 64.4223 380.432 64.4197 380.139C64.417 379.846 64.5308 379.567 64.7359 379.362Z" fill="#818181" fill-opacity="0.25"/>
<path d="M278.443 219.93C278.538 220.038 278.611 220.165 278.658 220.303C278.704 220.44 278.724 220.586 278.715 220.732C278.706 220.878 278.668 221.021 278.605 221.153C278.542 221.285 278.454 221.403 278.346 221.5L270.209 228.857L289.488 234.887L286.991 224.204C286.925 223.918 286.973 223.615 287.126 223.363C287.279 223.111 287.524 222.929 287.806 222.858C288.089 222.788 288.387 222.834 288.634 222.986C288.881 223.139 289.058 223.386 289.124 223.672L291.922 235.648L294.463 236.443C295.017 236.616 295.478 237.006 295.745 237.527C296.011 238.048 296.062 238.658 295.886 239.222L295.221 241.347C295.045 241.911 294.656 242.383 294.139 242.659C293.623 242.935 293.022 242.993 292.468 242.82L289.477 252.386C289.036 253.795 288.063 254.975 286.773 255.665C285.482 256.356 283.979 256.501 282.595 256.068L263.805 250.191C262.421 249.758 261.269 248.783 260.601 247.48C259.934 246.177 259.807 244.654 260.248 243.244L263.24 233.678C262.686 233.505 262.225 233.115 261.958 232.594C261.691 232.073 261.64 231.464 261.817 230.9L262.482 228.774C262.658 228.21 263.047 227.738 263.563 227.462C264.079 227.186 264.68 227.128 265.234 227.301L267.775 228.096L276.894 219.847C277.002 219.749 277.128 219.674 277.264 219.625C277.4 219.576 277.544 219.555 277.687 219.563C277.831 219.57 277.971 219.607 278.101 219.67C278.23 219.732 278.348 219.821 278.443 219.93ZM265.327 234.331L262.336 243.897C262.071 244.743 262.147 245.657 262.548 246.439C262.948 247.22 263.64 247.805 264.47 248.065L283.26 253.942C284.091 254.202 284.992 254.115 285.767 253.701C286.541 253.286 287.124 252.578 287.389 251.733L290.381 242.167L265.327 234.331ZM264.569 229.427L263.905 231.553L293.133 240.694L293.798 238.569L264.569 229.427ZM268.838 237.763C269.115 237.85 269.346 238.045 269.479 238.305C269.612 238.566 269.638 238.871 269.55 239.152L267.555 245.53C267.467 245.811 267.272 246.047 267.014 246.185C266.756 246.324 266.456 246.353 266.179 246.266C265.902 246.179 265.671 245.984 265.538 245.724C265.405 245.463 265.379 245.158 265.467 244.877L267.462 238.499C267.55 238.218 267.745 237.982 268.003 237.844C268.261 237.705 268.561 237.676 268.838 237.763ZM273.014 239.069C273.291 239.156 273.521 239.351 273.654 239.611C273.788 239.872 273.813 240.176 273.725 240.458L271.731 246.836C271.642 247.117 271.448 247.353 271.19 247.491C270.932 247.63 270.631 247.658 270.354 247.572C270.077 247.485 269.847 247.29 269.714 247.03C269.58 246.769 269.555 246.464 269.643 246.183L271.637 239.805C271.726 239.524 271.92 239.288 272.178 239.149C272.436 239.011 272.737 238.982 273.014 239.069ZM277.189 240.375C277.466 240.462 277.697 240.657 277.83 240.917C277.963 241.178 277.989 241.482 277.901 241.764L275.906 248.141C275.818 248.423 275.624 248.659 275.365 248.797C275.107 248.935 274.807 248.964 274.53 248.878C274.253 248.791 274.023 248.596 273.889 248.336C273.756 248.075 273.73 247.77 273.818 247.488L275.813 241.111C275.901 240.829 276.096 240.594 276.354 240.455C276.612 240.317 276.912 240.288 277.189 240.375ZM281.365 241.681C281.642 241.768 281.872 241.963 282.006 242.223C282.139 242.484 282.164 242.788 282.076 243.07L280.082 249.447C279.994 249.729 279.799 249.965 279.541 250.103C279.283 250.241 278.982 250.27 278.705 250.184C278.429 250.097 278.198 249.902 278.065 249.642C277.931 249.381 277.906 249.076 277.994 248.794L279.988 242.417C280.077 242.135 280.271 241.899 280.529 241.761C280.787 241.623 281.088 241.594 281.365 241.681ZM285.54 242.987C285.817 243.073 286.048 243.268 286.181 243.529C286.315 243.79 286.34 244.094 286.252 244.376L284.257 250.753C284.169 251.035 283.975 251.271 283.716 251.409C283.458 251.547 283.158 251.576 282.881 251.49C282.604 251.403 282.374 251.208 282.24 250.948C282.107 250.687 282.081 250.382 282.17 250.1L284.164 243.723C284.252 243.441 284.447 243.205 284.705 243.067C284.963 242.929 285.263 242.9 285.54 242.987Z" fill="#818181" fill-opacity="0.25"/>
<path d="M180.719 340.707C180.726 340.333 180.88 339.977 181.146 339.715C181.413 339.452 181.772 339.304 182.145 339.303C182.519 339.302 182.877 339.448 183.142 339.709C183.408 339.969 183.56 340.325 183.566 340.698L183.556 343.975L186.503 341.027C186.931 340.599 187.579 340.488 188.122 340.743L194.49 343.746C194.696 343.844 194.875 343.989 195.013 344.17C195.151 344.352 195.242 344.564 195.281 344.789C195.319 345.013 195.302 345.244 195.233 345.462C195.163 345.68 195.042 345.878 194.88 346.039L193.474 347.446L204.794 363.037C206.472 365.282 206.109 368.283 204.077 370.315L200.314 374.078C198.28 376.112 195.279 376.475 193.051 374.807L177.445 363.475L176.039 364.88C175.878 365.042 175.68 365.163 175.462 365.233C175.244 365.302 175.013 365.319 174.789 365.28C174.564 365.242 174.352 365.15 174.17 365.013C173.989 364.875 173.844 364.696 173.746 364.49L170.743 358.122C170.617 357.856 170.578 357.558 170.629 357.269C170.68 356.979 170.819 356.712 171.027 356.503L180.701 346.829L180.719 340.707ZM191.431 349.489L179.488 361.432L194.751 372.51C195.815 373.307 197.239 373.136 198.305 372.07L202.071 368.304C203.137 367.238 203.308 365.813 202.499 364.732L191.431 349.489ZM187.801 343.746L173.748 357.8L175.464 361.438L191.441 345.462L187.801 343.746Z" fill="#818181" fill-opacity="0.25"/>
<path d="M317.463 476.532C317.696 476.241 318.036 476.053 318.407 476.008C318.779 475.963 319.153 476.065 319.449 476.292C319.746 476.52 319.94 476.854 319.991 477.222C320.043 477.591 319.946 477.965 319.722 478.264L317.713 480.853L321.847 480.319C322.448 480.242 323.028 480.549 323.303 481.082L326.511 487.35C326.614 487.553 326.668 487.778 326.666 488.005C326.664 488.233 326.607 488.457 326.5 488.658C326.393 488.86 326.239 489.032 326.051 489.162C325.863 489.292 325.646 489.375 325.419 489.404L323.446 489.659L322.887 508.918C322.846 511.72 320.725 513.875 317.875 514.243L312.597 514.924C309.744 515.292 307.146 513.747 306.401 511.066L300.964 492.561L298.994 492.816C298.767 492.845 298.536 492.82 298.321 492.742C298.106 492.664 297.913 492.536 297.759 492.369C297.604 492.201 297.492 491.999 297.433 491.779C297.373 491.559 297.367 491.329 297.416 491.106L298.927 484.229C298.99 483.942 299.14 483.682 299.358 483.484C299.575 483.286 299.849 483.159 300.141 483.122L313.71 481.37L317.463 476.532ZM320.581 490.029L303.83 492.191L309.15 510.285C309.505 511.566 310.738 512.3 312.233 512.107L317.515 511.425C319.01 511.232 320.016 510.209 320.035 508.859L320.581 490.029ZM321.214 483.265L301.503 485.809L300.64 489.739L323.049 486.846L321.214 483.265Z" fill="#818181" fill-opacity="0.25"/>
<path d="M139.078 471.513C134.473 468.627 128.399 470.022 125.513 474.628C122.628 479.234 124.022 485.307 128.628 488.193C133.234 491.079 139.307 489.684 142.193 485.078C145.079 480.472 143.684 474.399 139.078 471.513Z" stroke="#818181" stroke-opacity="0.25" stroke-width="3.53283" stroke-linecap="round" stroke-linejoin="round"/>
<path d="M143.023 469.787C144.631 467.221 146.305 467.108 149.675 467.432C151.6 468.638 151.917 472.41 151.592 475.78C153.354 478.671 154.313 482.845 153.509 484.128C150.618 485.89 149.336 486.133 146.77 484.525M124.451 490.012C122.843 492.578 121.401 492.598 118.031 492.273C116.107 491.068 115.79 487.296 116.114 483.926C114.352 481.035 113.394 476.861 114.198 475.578C117.089 473.816 118.403 473.242 120.969 474.85" stroke="#818181" stroke-opacity="0.25" stroke-width="3.53283" stroke-linecap="round" stroke-linejoin="round"/>
<path d="M143.335 284.22L122.841 274.077L121.2 276.6L140.24 288.98L139.209 290.567L120.169 278.187L115.01 286.12L134.05 298.5C132.183 301.372 129.576 303.402 126.278 304.621C122.979 305.84 119.57 306.084 116.019 305.4L114.213 308.177L101.52 299.923L103.325 297.147C101.276 294.189 100.11 290.947 99.8756 287.454C99.6413 283.96 100.45 280.739 102.317 277.867L107.077 280.962L115.33 268.268L144.367 282.634L143.335 284.22ZM116.009 270.696L114.854 272.473L116.44 273.505L117.699 271.569L116.009 270.696ZM113.822 274.06L108.664 281.993L110.25 283.025L115.409 275.092L113.822 274.06ZM113.424 285.088L118.582 277.155L116.995 276.123L111.837 284.057L113.424 285.088ZM119.614 275.568L121.11 273.268L119.43 272.379L118.027 274.537L119.614 275.568Z" fill="#818181" fill-opacity="0.25"/>
<path d="M136.484 789.434C136.414 789.561 136.371 789.7 136.355 789.845C136.34 789.989 136.353 790.136 136.394 790.276C136.434 790.417 136.502 790.548 136.593 790.663C136.683 790.777 136.795 790.873 136.922 790.945L146.47 796.345L128.977 806.444L129.077 795.474C129.079 795.18 128.966 794.896 128.761 794.683C128.557 794.47 128.278 794.346 127.987 794.339C127.696 794.332 127.415 794.442 127.207 794.645C126.999 794.848 126.881 795.127 126.879 795.421L126.768 807.72L124.462 809.051C123.96 809.341 123.595 809.822 123.449 810.389C123.303 810.956 123.386 811.562 123.682 812.073L124.795 814.002C125.091 814.514 125.573 814.889 126.138 815.046C126.702 815.202 127.301 815.127 127.803 814.837L132.815 823.517C133.553 824.796 134.76 825.735 136.17 826.126C137.581 826.518 139.079 826.33 140.335 825.605L157.385 815.761C158.641 815.036 159.552 813.833 159.918 812.415C160.284 810.998 160.075 809.484 159.337 808.205L154.325 799.525C154.828 799.235 155.192 798.753 155.339 798.187C155.485 797.62 155.401 797.014 155.106 796.502L153.992 794.573C153.697 794.062 153.214 793.686 152.65 793.53C152.086 793.373 151.487 793.448 150.984 793.738L148.679 795.069L137.977 789.014C137.85 788.942 137.711 788.896 137.567 788.879C137.424 788.861 137.279 788.872 137.14 788.91C137.002 788.949 136.873 789.015 136.76 789.105C136.648 789.195 136.553 789.307 136.484 789.434ZM152.431 800.619L157.442 809.298C157.885 810.066 158.011 810.975 157.791 811.825C157.571 812.675 157.025 813.397 156.271 813.832L139.221 823.676C138.467 824.111 137.569 824.224 136.722 823.989C135.876 823.754 135.152 823.191 134.709 822.423L129.698 813.744L152.431 800.619ZM152.098 795.667L153.212 797.596L126.69 812.909L125.576 810.98L152.098 795.667ZM149.756 804.735C149.504 804.88 149.322 805.121 149.249 805.404C149.176 805.688 149.218 805.99 149.365 806.246L152.706 812.033C152.854 812.289 153.095 812.476 153.377 812.555C153.659 812.633 153.959 812.595 154.21 812.45C154.461 812.305 154.644 812.065 154.717 811.781C154.79 811.498 154.748 811.195 154.601 810.939L151.26 805.153C151.112 804.897 150.871 804.709 150.588 804.631C150.306 804.552 150.007 804.59 149.756 804.735ZM145.967 806.922C145.716 807.068 145.533 807.308 145.46 807.592C145.387 807.875 145.429 808.178 145.576 808.434L148.917 814.22C149.065 814.476 149.306 814.664 149.588 814.742C149.87 814.82 150.17 814.783 150.421 814.638C150.672 814.493 150.855 814.252 150.928 813.969C151.001 813.685 150.959 813.382 150.812 813.127L147.471 807.34C147.323 807.084 147.082 806.897 146.8 806.818C146.518 806.74 146.218 806.777 145.967 806.922ZM142.178 809.11C141.927 809.255 141.744 809.496 141.671 809.779C141.598 810.063 141.64 810.365 141.787 810.621L145.128 816.408C145.276 816.664 145.517 816.851 145.8 816.93C146.082 817.008 146.381 816.97 146.632 816.825C146.884 816.68 147.066 816.44 147.139 816.156C147.212 815.873 147.17 815.57 147.023 815.314L143.682 809.528C143.534 809.272 143.293 809.084 143.011 809.006C142.729 808.927 142.429 808.965 142.178 809.11ZM138.389 811.297C138.138 811.443 137.956 811.683 137.882 811.967C137.809 812.25 137.851 812.553 137.999 812.809L141.34 818.595C141.487 818.851 141.729 819.039 142.011 819.117C142.293 819.195 142.592 819.158 142.844 819.013C143.095 818.868 143.277 818.627 143.35 818.344C143.423 818.06 143.382 817.757 143.234 817.502L139.893 811.715C139.745 811.459 139.504 811.272 139.222 811.193C138.94 811.115 138.64 811.152 138.389 811.297ZM134.6 813.485C134.349 813.63 134.167 813.871 134.093 814.154C134.02 814.438 134.062 814.74 134.21 814.996L137.551 820.783C137.698 821.039 137.94 821.226 138.222 821.305C138.504 821.383 138.803 821.345 139.055 821.2C139.306 821.055 139.488 820.815 139.561 820.531C139.635 820.248 139.593 819.945 139.445 819.689L136.104 813.903C135.957 813.647 135.715 813.459 135.433 813.381C135.151 813.302 134.851 813.34 134.6 813.485Z" fill="#818181" fill-opacity="0.25"/>
<path d="M25.8553 769.098C20.6052 770.505 15.2088 767.39 13.802 762.14C12.3952 756.889 15.5109 751.493 20.761 750.086C26.0111 748.679 31.4075 751.795 32.8142 757.045C34.221 762.295 31.1054 767.692 25.8553 769.098Z" stroke="#818181" stroke-opacity="0.25" stroke-width="3.53283" stroke-linecap="round" stroke-linejoin="round"/>
<path d="M29.1194 771.907C29.9031 774.832 31.471 775.431 34.7878 776.11C36.9816 775.522 38.3915 772.009 39.0703 768.693C41.6034 766.446 43.7446 762.738 43.3527 761.275C41.1065 758.742 39.9519 758.134 37.027 758.918M17.3016 747.121C16.5179 744.196 15.1456 743.754 11.8287 743.075C9.63503 743.663 8.22505 747.175 7.54631 750.492C5.01321 752.739 2.87199 756.447 3.26386 757.91C5.51009 760.443 6.59851 761.377 9.52347 760.593" stroke="#818181" stroke-opacity="0.25" stroke-width="3.53283" stroke-linecap="round" stroke-linejoin="round"/>
<path d="M284.626 804.135C284.317 803.926 283.937 803.847 283.569 803.914C283.201 803.981 282.873 804.189 282.658 804.494C282.442 804.799 282.355 805.175 282.415 805.543C282.476 805.91 282.679 806.239 282.981 806.458L285.666 808.336L281.56 809.05C280.963 809.154 280.5 809.619 280.396 810.21L279.188 817.147C279.149 817.371 279.164 817.602 279.233 817.818C279.303 818.035 279.423 818.232 279.585 818.393C279.747 818.554 279.945 818.673 280.163 818.741C280.382 818.81 280.613 818.825 280.838 818.785L282.798 818.444L289.036 836.674C289.905 839.339 292.568 840.768 295.4 840.276L300.643 839.364C303.476 838.871 305.501 836.626 305.418 833.843L305.131 814.559L307.089 814.218C307.314 814.179 307.527 814.087 307.709 813.949C307.892 813.811 308.038 813.632 308.136 813.426C308.234 813.22 308.281 812.994 308.273 812.766C308.265 812.539 308.202 812.317 308.09 812.119L304.61 805.997C304.465 805.742 304.244 805.538 303.978 805.413C303.711 805.288 303.413 805.248 303.122 805.299L289.644 807.644L284.626 804.135ZM285.645 817.949L302.285 815.054L302.561 833.912C302.601 835.241 301.641 836.307 300.156 836.566L294.909 837.478C293.424 837.737 292.16 837.057 291.742 835.773L285.645 817.949ZM283.037 811.676L302.617 808.27L304.605 811.768L282.345 815.64L283.037 811.676Z" fill="#818181" fill-opacity="0.25"/>
<path d="M360.633 603.686C355.383 602.279 352.267 596.882 353.674 591.632C355.081 586.382 360.477 583.267 365.727 584.673C370.977 586.08 374.093 591.476 372.686 596.727C371.279 601.977 365.883 605.092 360.633 603.686Z" stroke="#818181" stroke-opacity="0.25" stroke-width="3.53283" stroke-linecap="round" stroke-linejoin="round"/>
<path d="M362.055 607.75C361.272 610.675 362.33 611.978 364.863 614.224C367.056 614.812 370.034 612.475 372.28 609.941C375.597 609.263 379.306 607.122 379.698 605.659C379.019 602.342 378.323 601.238 375.398 600.454M364.214 580.376C364.998 577.451 364.03 576.381 361.497 574.135C359.303 573.547 356.326 575.884 354.08 578.418C350.763 579.096 347.054 581.237 346.662 582.7C347.341 586.017 347.817 587.37 350.742 588.154" stroke="#818181" stroke-opacity="0.25" stroke-width="3.53283" stroke-linecap="round" stroke-linejoin="round"/>
<path d="M354.905 736.786L375.452 746.823L374.456 749.663L353.026 742.143L352.399 743.929L373.829 751.449L370.696 760.378L349.266 752.858C348.132 756.091 348.116 759.395 349.164 762.751C350.213 766.108 352.102 768.956 354.812 771.351L353.715 774.477L368.002 779.49L369.098 776.364C372.693 776.181 375.971 775.125 378.881 773.178C381.791 771.23 383.849 768.623 384.983 765.391L379.625 763.511L384.638 749.224L355.532 735L354.905 736.786ZM382.301 750.169L381.599 752.169L379.813 751.543L380.578 749.364L382.301 750.169ZM380.973 753.955L377.84 762.884L376.054 762.258L379.187 753.328L380.973 753.955ZM372.482 761.004L375.615 752.075L377.401 752.702L374.268 761.631L372.482 761.004ZM376.242 750.289L377.15 747.7L378.88 748.487L378.027 750.916L376.242 750.289Z" fill="#818181" fill-opacity="0.25"/>
<path d="M252.356 571.956C252.216 571.922 252.07 571.916 251.926 571.938C251.783 571.961 251.644 572.011 251.519 572.087C251.394 572.163 251.285 572.262 251.197 572.379C251.11 572.496 251.046 572.629 251.01 572.77L248.266 583.391L233.982 569.108L244.604 566.365C244.889 566.291 245.135 566.108 245.287 565.855C245.44 565.603 245.487 565.302 245.419 565.019C245.35 564.735 245.171 564.493 244.921 564.345C244.672 564.196 244.371 564.155 244.087 564.228L232.179 567.304L230.296 565.422C229.886 565.011 229.327 564.784 228.741 564.789C228.156 564.794 227.592 565.032 227.175 565.45L225.6 567.025C225.182 567.442 224.944 568.006 224.939 568.591C224.934 569.177 225.161 569.736 225.572 570.146L218.485 577.233C217.44 578.278 216.846 579.686 216.833 581.15C216.82 582.614 217.389 584.012 218.414 585.038L232.335 598.959C233.361 599.984 234.759 600.553 236.223 600.54C237.687 600.527 239.095 599.933 240.14 598.889L247.227 591.801C247.637 592.212 248.196 592.439 248.782 592.434C249.367 592.429 249.931 592.191 250.349 591.773L251.923 590.198C252.341 589.781 252.579 589.217 252.584 588.632C252.589 588.046 252.362 587.487 251.952 587.077L250.069 585.194L253.148 573.289C253.184 573.148 253.193 573.002 253.173 572.859C253.153 572.716 253.105 572.578 253.032 572.455C252.958 572.331 252.861 572.223 252.745 572.138C252.63 572.053 252.496 571.99 252.356 571.956ZM245.68 590.255L238.593 597.342C237.966 597.968 237.121 598.325 236.243 598.333C235.365 598.34 234.526 597.999 233.91 597.384L219.989 583.463C219.374 582.847 219.033 582.008 219.04 581.13C219.048 580.252 219.405 579.407 220.031 578.78L227.118 571.693L245.68 590.255ZM250.377 588.652L248.802 590.227L227.147 568.571L228.721 566.996L250.377 588.652ZM241.012 588.736C240.806 588.531 240.527 588.417 240.234 588.42C239.941 588.422 239.66 588.541 239.451 588.75L234.726 593.475C234.517 593.684 234.398 593.965 234.396 594.258C234.393 594.551 234.507 594.83 234.712 595.036C234.917 595.241 235.197 595.354 235.489 595.352C235.782 595.349 236.064 595.23 236.273 595.022L240.997 590.297C241.206 590.088 241.325 589.806 241.328 589.513C241.33 589.221 241.217 588.941 241.012 588.736ZM237.918 585.642C237.713 585.437 237.433 585.323 237.14 585.326C236.848 585.329 236.566 585.448 236.357 585.656L231.632 590.381C231.423 590.59 231.305 590.872 231.302 591.164C231.299 591.457 231.413 591.737 231.618 591.942C231.823 592.147 232.103 592.261 232.396 592.258C232.689 592.256 232.97 592.137 233.179 591.928L237.904 587.203C238.113 586.994 238.232 586.713 238.234 586.42C238.237 586.127 238.123 585.847 237.918 585.642ZM234.824 582.549C234.619 582.344 234.34 582.23 234.047 582.233C233.754 582.235 233.472 582.354 233.263 582.563L228.539 587.288C228.33 587.496 228.211 587.778 228.208 588.071C228.206 588.364 228.32 588.643 228.525 588.848C228.73 589.054 229.009 589.167 229.302 589.165C229.595 589.162 229.877 589.043 230.086 588.834L234.81 584.11C235.019 583.901 235.138 583.619 235.141 583.326C235.143 583.034 235.029 582.754 234.824 582.549ZM231.731 579.455C231.526 579.25 231.246 579.136 230.953 579.139C230.66 579.142 230.379 579.26 230.17 579.469L225.445 584.194C225.236 584.403 225.118 584.685 225.115 584.977C225.112 585.27 225.226 585.55 225.431 585.755C225.636 585.96 225.916 586.074 226.209 586.071C226.501 586.068 226.783 585.95 226.992 585.741L231.717 581.016C231.926 580.807 232.044 580.525 232.047 580.233C232.05 579.94 231.936 579.66 231.731 579.455ZM228.637 576.362C228.432 576.156 228.152 576.043 227.86 576.045C227.567 576.048 227.285 576.167 227.076 576.376L222.352 581.1C222.143 581.309 222.024 581.591 222.021 581.884C222.019 582.176 222.132 582.456 222.338 582.661C222.543 582.866 222.822 582.98 223.115 582.977C223.408 582.975 223.69 582.856 223.898 582.647L228.623 577.922C228.832 577.714 228.951 577.432 228.953 577.139C228.956 576.846 228.842 576.567 228.637 576.362Z" fill="#818181" fill-opacity="0.25"/>
<path d="M45.9077 215.707C45.9005 215.333 45.7469 214.977 45.48 214.715C45.2132 214.452 44.8545 214.304 44.4812 214.303C44.1078 214.302 43.7498 214.448 43.484 214.709C43.2183 214.969 43.0663 215.325 43.0606 215.698L43.0704 218.975L40.123 216.027C39.695 215.599 39.0477 215.488 38.5047 215.743L32.1363 218.746C31.9303 218.844 31.751 218.989 31.6135 219.17C31.4759 219.352 31.3842 219.564 31.3459 219.789C31.3077 220.013 31.3241 220.244 31.3938 220.462C31.4635 220.68 31.5843 220.878 31.7463 221.039L33.1527 222.446L21.8328 238.037C20.154 240.282 20.5175 243.283 22.5498 245.315L26.3128 249.078C28.3464 251.112 31.3475 251.475 33.5756 249.807L49.1819 238.475L50.587 239.88C50.7487 240.042 50.9467 240.163 51.1644 240.233C51.382 240.302 51.613 240.319 51.8378 240.28C52.0626 240.242 52.2746 240.15 52.456 240.013C52.6374 239.875 52.7828 239.696 52.8801 239.49L55.8838 233.122C56.0091 232.856 56.0489 232.558 55.9979 232.269C55.947 231.979 55.8076 231.712 55.5991 231.503L45.925 221.829L45.9077 215.707ZM35.1957 224.489L47.1389 236.432L31.8755 247.51C30.8118 248.307 29.3871 248.136 28.3211 247.07L24.5554 243.304C23.4895 242.238 23.318 240.813 24.1273 239.732L35.1957 224.489ZM38.8253 218.746L52.8788 232.8L51.162 236.438L35.1852 220.462L38.8253 218.746Z" fill="#818181" fill-opacity="0.25"/>
<path d="M354.331 332.774C351.614 328.067 353.226 322.048 357.933 319.33C362.641 316.613 368.659 318.226 371.377 322.933C374.095 327.64 372.482 333.659 367.775 336.376C363.068 339.094 357.049 337.481 354.331 332.774Z" stroke="#818181" stroke-opacity="0.25" stroke-width="3.53283" stroke-linecap="round" stroke-linejoin="round"/>
<path d="M352.463 336.653C349.841 338.168 349.667 339.837 349.87 343.217C351.006 345.183 354.764 345.636 358.143 345.433C360.968 347.299 365.105 348.407 366.416 347.65C368.282 344.825 368.57 343.552 367.056 340.93M373.346 318.823C375.968 317.309 376.04 315.869 375.837 312.49C374.702 310.523 370.944 310.07 367.564 310.273C364.739 308.408 360.603 307.299 359.291 308.056C357.426 310.881 356.805 312.175 358.319 314.797" stroke="#818181" stroke-opacity="0.25" stroke-width="3.53283" stroke-linecap="round" stroke-linejoin="round"/>
<path d="M278.395 396.263L300.513 402.067L300.094 405.047L277.604 401.885L277.341 403.759L299.831 406.921L298.513 416.292L276.023 413.13C275.547 416.522 276.18 419.765 277.868 422.85C279.555 425.935 281.967 428.357 285.095 430.173L284.633 433.453L299.627 435.561L300.088 432.281C303.576 431.395 306.583 429.716 309.054 427.235C311.524 424.753 313.03 421.792 313.507 418.4L307.884 417.61L309.992 402.617L278.658 394.389L278.395 396.263ZM307.886 404.002L307.591 406.101L305.717 405.838L306.038 403.551L307.886 404.002ZM307.327 407.975L306.01 417.346L304.136 417.083L305.453 407.712L307.327 407.975ZM300.388 416.556L301.705 407.185L303.579 407.448L302.262 416.819L300.388 416.556ZM301.969 405.311L302.351 402.593L304.201 403.025L303.843 405.574L301.969 405.311Z" fill="#818181" fill-opacity="0.25"/>
<path d="M132.78 633.331C132.929 632.988 132.938 632.6 132.805 632.251C132.671 631.901 132.407 631.617 132.068 631.46C131.729 631.304 131.343 631.287 130.993 631.413C130.642 631.54 130.356 631.799 130.195 632.136L128.839 635.119L127.388 631.212C127.177 630.644 126.635 630.273 126.035 630.278L118.995 630.355C118.767 630.358 118.543 630.415 118.343 630.523C118.142 630.63 117.97 630.785 117.842 630.973C117.713 631.162 117.632 631.378 117.605 631.605C117.577 631.832 117.605 632.063 117.684 632.277L118.377 634.142L101.589 643.598C99.1282 644.938 98.2081 647.818 99.2086 650.512L101.061 655.501C102.062 658.197 104.639 659.778 107.36 659.19L126.269 655.392L126.96 657.255C127.04 657.47 127.169 657.662 127.338 657.816C127.507 657.97 127.71 658.081 127.93 658.14C128.151 658.199 128.382 658.204 128.604 658.155C128.826 658.105 129.033 658.003 129.207 657.856L134.592 653.319C134.816 653.13 134.976 652.875 135.051 652.591C135.125 652.306 135.11 652.005 135.007 651.729L130.244 638.904L132.78 633.331ZM119.383 636.85L125.263 652.684L106.771 656.394C105.472 656.675 104.249 655.925 103.724 654.512L101.87 649.52C101.345 648.107 101.783 646.74 102.969 646.095L119.383 636.85ZM125.075 633.142L131.994 651.774L128.917 654.366L121.051 633.185L125.075 633.142Z" fill="#818181" fill-opacity="0.25"/>
<path d="M230.817 715.537C230.308 710.125 234.282 705.326 239.694 704.817C245.105 704.308 249.904 708.282 250.413 713.693C250.922 719.105 246.948 723.904 241.537 724.413C236.125 724.922 231.326 720.948 230.817 715.537Z" stroke="#818181" stroke-opacity="0.25" stroke-width="3.53283" stroke-linecap="round" stroke-linejoin="round"/>
<path d="M227.503 718.285C224.488 718.568 223.635 720.014 222.411 723.171C222.623 725.432 225.851 727.409 229.008 728.633C230.799 731.506 234.097 734.237 235.604 734.096C238.477 732.305 239.27 731.268 238.987 728.253M253.916 710.779C256.931 710.495 257.596 709.216 258.82 706.059C258.608 703.798 255.38 701.821 252.224 700.597C250.433 697.724 247.134 694.992 245.627 695.134C242.754 696.925 241.651 697.842 241.934 700.857" stroke="#818181" stroke-opacity="0.25" stroke-width="3.53283" stroke-linecap="round" stroke-linejoin="round"/>
<path d="M136.484 138.434C136.414 138.561 136.371 138.7 136.355 138.845C136.34 138.989 136.353 139.136 136.394 139.276C136.434 139.417 136.502 139.548 136.593 139.663C136.683 139.777 136.795 139.873 136.922 139.945L146.47 145.345L128.977 155.444L129.077 144.474C129.079 144.18 128.966 143.896 128.761 143.683C128.557 143.47 128.278 143.346 127.987 143.339C127.696 143.332 127.415 143.442 127.207 143.645C126.999 143.848 126.881 144.127 126.879 144.421L126.768 156.72L124.462 158.051C123.96 158.341 123.595 158.822 123.449 159.389C123.303 159.956 123.386 160.562 123.682 161.073L124.795 163.002C125.091 163.514 125.573 163.889 126.138 164.046C126.702 164.202 127.301 164.127 127.803 163.837L132.815 172.517C133.553 173.796 134.76 174.735 136.17 175.126C137.581 175.518 139.079 175.33 140.335 174.605L157.385 164.761C158.641 164.036 159.552 162.833 159.918 161.415C160.284 159.998 160.075 158.484 159.337 157.205L154.325 148.525C154.828 148.235 155.192 147.753 155.339 147.187C155.485 146.62 155.401 146.014 155.106 145.502L153.992 143.573C153.697 143.062 153.214 142.686 152.65 142.53C152.086 142.373 151.487 142.448 150.984 142.738L148.679 144.069L137.977 138.014C137.85 137.942 137.711 137.896 137.567 137.879C137.424 137.861 137.279 137.872 137.14 137.91C137.002 137.949 136.873 138.015 136.76 138.105C136.648 138.195 136.553 138.307 136.484 138.434ZM152.431 149.619L157.442 158.298C157.885 159.066 158.011 159.975 157.791 160.825C157.571 161.675 157.025 162.397 156.271 162.832L139.221 172.676C138.467 173.111 137.569 173.224 136.722 172.989C135.876 172.754 135.152 172.191 134.709 171.423L129.698 162.744L152.431 149.619ZM152.098 144.667L153.212 146.596L126.69 161.909L125.576 159.98L152.098 144.667ZM149.756 153.735C149.504 153.88 149.322 154.121 149.249 154.404C149.176 154.688 149.218 154.99 149.365 155.246L152.706 161.033C152.854 161.289 153.095 161.476 153.377 161.555C153.659 161.633 153.959 161.595 154.21 161.45C154.461 161.305 154.644 161.065 154.717 160.781C154.79 160.498 154.748 160.195 154.601 159.939L151.26 154.153C151.112 153.897 150.871 153.709 150.588 153.631C150.306 153.552 150.007 153.59 149.756 153.735ZM145.967 155.922C145.716 156.068 145.533 156.308 145.46 156.592C145.387 156.875 145.429 157.178 145.576 157.434L148.917 163.22C149.065 163.476 149.306 163.664 149.588 163.742C149.87 163.82 150.17 163.783 150.421 163.638C150.672 163.493 150.855 163.252 150.928 162.969C151.001 162.685 150.959 162.382 150.812 162.127L147.471 156.34C147.323 156.084 147.082 155.897 146.8 155.818C146.518 155.74 146.218 155.777 145.967 155.922ZM142.178 158.11C141.927 158.255 141.744 158.496 141.671 158.779C141.598 159.063 141.64 159.365 141.787 159.621L145.128 165.408C145.276 165.664 145.517 165.851 145.8 165.93C146.082 166.008 146.381 165.97 146.632 165.825C146.884 165.68 147.066 165.44 147.139 165.156C147.212 164.873 147.17 164.57 147.023 164.314L143.682 158.528C143.534 158.272 143.293 158.084 143.011 158.006C142.729 157.927 142.429 157.965 142.178 158.11ZM138.389 160.297C138.138 160.443 137.956 160.683 137.882 160.967C137.809 161.25 137.851 161.553 137.999 161.809L141.34 167.595C141.487 167.851 141.729 168.039 142.011 168.117C142.293 168.195 142.592 168.158 142.844 168.013C143.095 167.868 143.277 167.627 143.35 167.344C143.423 167.06 143.382 166.757 143.234 166.502L139.893 160.715C139.745 160.459 139.504 160.272 139.222 160.193C138.94 160.115 138.64 160.152 138.389 160.297ZM134.6 162.485C134.349 162.63 134.167 162.871 134.093 163.154C134.02 163.438 134.062 163.74 134.21 163.996L137.551 169.783C137.698 170.039 137.94 170.226 138.222 170.305C138.504 170.383 138.803 170.345 139.055 170.2C139.306 170.055 139.488 169.815 139.561 169.531C139.635 169.248 139.593 168.945 139.445 168.689L136.104 162.903C135.957 162.647 135.715 162.459 135.433 162.381C135.151 162.302 134.851 162.34 134.6 162.485Z" fill="#818181" fill-opacity="0.25"/>
<path d="M25.8553 76.0985C20.6052 77.5052 15.2088 74.3896 13.802 69.1395C12.3952 63.8894 15.5109 58.493 20.761 57.0862C26.0111 55.6795 31.4075 58.7951 32.8142 64.0452C34.221 69.2953 31.1054 74.6917 25.8553 76.0985Z" stroke="#818181" stroke-opacity="0.25" stroke-width="3.53283" stroke-linecap="round" stroke-linejoin="round"/>
<path d="M29.1194 78.9069C29.9031 81.8318 31.471 82.4313 34.7878 83.1101C36.9816 82.5223 38.3915 79.0095 39.0703 75.6927C41.6034 73.4464 43.7446 69.7377 43.3527 68.2753C41.1065 65.7422 39.9519 65.1339 37.027 65.9176M17.3016 54.121C16.5179 51.196 15.1456 50.7536 11.8287 50.0749C9.63503 50.6627 8.22505 54.1755 7.54631 57.4923C5.01321 59.7385 2.87199 63.4472 3.26386 64.9097C5.51009 67.4428 6.59851 68.3769 9.52347 67.5932" stroke="#818181" stroke-opacity="0.25" stroke-width="3.53283" stroke-linecap="round" stroke-linejoin="round"/>
<path d="M284.626 111.135C284.317 110.926 283.937 110.847 283.569 110.914C283.201 110.981 282.873 111.189 282.658 111.494C282.442 111.799 282.355 112.175 282.415 112.543C282.476 112.91 282.679 113.239 282.981 113.458L285.666 115.336L281.56 116.05C280.963 116.154 280.5 116.619 280.396 117.21L279.188 124.147C279.149 124.371 279.164 124.602 279.233 124.818C279.303 125.035 279.423 125.232 279.585 125.393C279.747 125.554 279.945 125.673 280.163 125.741C280.382 125.81 280.613 125.825 280.838 125.785L282.798 125.444L289.036 143.674C289.905 146.339 292.568 147.768 295.4 147.276L300.643 146.364C303.476 145.871 305.501 143.626 305.418 140.843L305.131 121.559L307.089 121.218C307.314 121.179 307.527 121.087 307.709 120.949C307.892 120.811 308.038 120.632 308.136 120.426C308.234 120.22 308.281 119.994 308.273 119.766C308.265 119.539 308.202 119.317 308.09 119.119L304.61 112.997C304.465 112.742 304.244 112.538 303.978 112.413C303.711 112.288 303.413 112.248 303.122 112.299L289.644 114.644L284.626 111.135ZM285.645 124.949L302.285 122.054L302.561 140.912C302.601 142.241 301.641 143.307 300.156 143.566L294.909 144.478C293.424 144.737 292.16 144.057 291.742 142.773L285.645 124.949ZM283.037 118.676L302.617 115.27L304.605 118.768L282.345 122.64L283.037 118.676Z" fill="#818181" fill-opacity="0.25"/>
<path d="M354.905 43.7859L375.452 53.8232L374.456 56.6627L353.026 49.1434L352.399 50.9293L373.829 58.4486L370.696 67.3778L349.266 59.8585C348.132 63.0909 348.116 66.3947 349.164 69.7511C350.213 73.1076 352.102 75.9565 354.812 78.3514L353.715 81.4766L368.002 86.4895L369.098 83.3643C372.693 83.1813 375.971 82.1255 378.881 80.1779C381.791 78.2304 383.849 75.6231 384.983 72.3907L379.625 70.5109L384.638 56.2241L355.532 42L354.905 43.7859ZM382.301 57.169L381.599 59.1692L379.813 58.5426L380.578 56.3638L382.301 57.169ZM380.973 60.955L377.84 69.8843L376.054 69.2577L379.187 60.3284L380.973 60.955ZM372.482 68.0044L375.615 59.0752L377.401 59.7018L374.268 68.631L372.482 68.0044ZM376.242 57.2893L377.15 54.6999L378.88 55.4872L378.027 57.916L376.242 57.2893Z" fill="#818181" fill-opacity="0.25"/>
<path d="M114.426 19.8006L137.245 18.312L137.79 21.2714L115.455 25.3844L115.797 27.2457L138.133 23.1327L139.847 32.4392L117.511 36.5522C118.132 39.9212 119.758 42.7969 122.335 45.1898C124.912 47.5827 127.965 49.1179 131.507 49.8514L132.106 53.1086L146.997 50.3666L146.397 47.1094C149.426 45.166 151.748 42.6216 153.307 39.4864C154.866 36.3512 155.357 33.0661 154.737 29.6972L149.153 30.7254L146.411 15.8351L114.084 17.9393L114.426 19.8006ZM144.852 17.8158L145.235 19.9004L143.374 20.2432L142.956 17.9724L144.852 17.8158ZM145.578 21.7617L147.292 31.0682L145.431 31.4109L143.717 22.1045L145.578 21.7617ZM141.708 32.0964L139.994 22.79L141.856 22.4472L143.569 31.7537L141.708 32.0964ZM139.652 20.9287L139.155 18.2298L141.047 18.0546L141.513 20.5859L139.652 20.9287Z" fill="#818181" fill-opacity="0.25"/>
<path d="M230.817 22.5365C230.308 17.1251 234.282 12.3257 239.694 11.8168C245.105 11.3078 249.904 15.2821 250.413 20.6935C250.922 26.1049 246.948 30.9043 241.537 31.4132C236.125 31.9222 231.326 27.9479 230.817 22.5365Z" stroke="#818181" stroke-opacity="0.25" stroke-width="3.53283" stroke-linecap="round" stroke-linejoin="round"/>
<path d="M227.503 25.2848C224.488 25.5684 223.635 27.0139 222.411 30.1705C222.623 32.4317 225.851 34.4093 229.008 35.6331C230.799 38.5062 234.097 41.2375 235.604 41.0957C238.477 39.3047 239.27 38.2682 238.987 35.2533M253.916 17.7786C256.931 17.4951 257.596 16.216 258.82 13.0594C258.608 10.7983 255.38 8.82071 252.224 7.59684C250.433 4.72378 247.134 1.99249 245.627 2.13426C242.754 3.92523 241.651 4.84211 241.934 7.85695" stroke="#818181" stroke-opacity="0.25" stroke-width="3.53283" stroke-linecap="round" stroke-linejoin="round"/>
<path d="M11.6587 571.952L33.8781 566.547L34.9257 569.368L13.6353 577.274L14.2942 579.048L35.5846 571.142L38.8789 580.013L17.5885 587.919C18.7811 591.131 20.8795 593.683 23.8305 595.595C26.7816 597.507 30.0546 598.492 33.6694 598.603L34.8224 601.708L49.016 596.437L47.863 593.332C50.5112 590.895 52.359 587.988 53.3533 584.631C54.3475 581.274 54.2651 577.953 53.0725 574.742L47.7499 576.719L42.479 562.525L10.9999 570.177L11.6587 571.952ZM41.2846 564.745L42.0225 566.732L40.2483 567.391L39.4445 565.227L41.2846 564.745ZM42.6814 568.506L45.9757 577.377L44.2015 578.036L40.9072 569.165L42.6814 568.506ZM40.6531 579.354L37.3588 570.483L39.133 569.824L42.4273 578.695L40.6531 579.354ZM36.6999 568.709L35.7446 566.136L37.5781 565.637L38.4741 568.05L36.6999 568.709Z" fill="#818181" fill-opacity="0.25"/>
</svg>
