<svg width="475" height="924" viewBox="0 0 475 924" fill="none" xmlns="http://www.w3.org/2000/svg">
<path d="M335.017 238.956C335.157 238.922 335.303 238.916 335.447 238.938C335.591 238.961 335.729 239.012 335.854 239.087C335.979 239.163 336.088 239.262 336.176 239.379C336.263 239.496 336.327 239.629 336.363 239.77L339.108 250.391L353.391 236.108L342.769 233.365C342.484 233.291 342.238 233.108 342.086 232.855C341.933 232.603 341.886 232.302 341.954 232.019C342.023 231.735 342.202 231.493 342.452 231.345C342.701 231.196 343.002 231.155 343.286 231.228L355.194 234.304L357.077 232.422C357.487 232.011 358.046 231.784 358.632 231.789C359.217 231.794 359.781 232.032 360.198 232.45L361.773 234.025C362.191 234.442 362.429 235.006 362.434 235.591C362.439 236.177 362.212 236.736 361.801 237.146L368.888 244.233C369.933 245.278 370.527 246.686 370.54 248.15C370.553 249.614 369.984 251.012 368.959 252.038L355.038 265.959C354.012 266.984 352.614 267.553 351.15 267.54C349.686 267.527 348.278 266.933 347.233 265.889L340.146 258.801C339.736 259.212 339.177 259.439 338.591 259.434C338.006 259.429 337.442 259.191 337.025 258.773L335.45 257.198C335.032 256.781 334.794 256.217 334.789 255.632C334.784 255.046 335.011 254.487 335.422 254.077L337.304 252.194L334.225 240.289C334.189 240.148 334.18 240.002 334.2 239.859C334.22 239.716 334.268 239.578 334.341 239.455C334.415 239.331 334.512 239.223 334.628 239.138C334.743 239.053 334.877 238.99 335.017 238.956ZM341.693 257.255L348.78 264.342C349.407 264.968 350.252 265.325 351.13 265.333C352.008 265.34 352.847 264.999 353.463 264.384L367.384 250.463C367.999 249.847 368.34 249.008 368.333 248.13C368.325 247.252 367.968 246.407 367.342 245.78L360.255 238.693L341.693 257.255ZM336.996 255.652L338.571 257.227L360.226 235.571L358.652 233.996L336.996 255.652ZM346.362 255.736C346.567 255.531 346.846 255.417 347.139 255.42C347.432 255.422 347.714 255.541 347.922 255.75L352.647 260.475C352.856 260.684 352.975 260.965 352.977 261.258C352.98 261.551 352.866 261.83 352.661 262.036C352.456 262.241 352.176 262.354 351.884 262.352C351.591 262.349 351.309 262.23 351.1 262.022L346.376 257.297C346.167 257.088 346.048 256.806 346.045 256.513C346.043 256.221 346.156 255.941 346.362 255.736ZM349.455 252.642C349.66 252.437 349.94 252.323 350.233 252.326C350.525 252.329 350.807 252.448 351.016 252.656L355.741 257.381C355.95 257.59 356.068 257.872 356.071 258.164C356.074 258.457 355.96 258.737 355.755 258.942C355.55 259.147 355.27 259.261 354.977 259.258C354.685 259.256 354.403 259.137 354.194 258.928L349.469 254.203C349.26 253.994 349.142 253.713 349.139 253.42C349.136 253.127 349.25 252.847 349.455 252.642ZM352.549 249.549C352.754 249.344 353.034 249.23 353.326 249.233C353.619 249.235 353.901 249.354 354.11 249.563L358.834 254.288C359.043 254.496 359.162 254.778 359.165 255.071C359.167 255.364 359.053 255.643 358.848 255.848C358.643 256.054 358.364 256.167 358.071 256.165C357.778 256.162 357.496 256.043 357.287 255.834L352.563 251.11C352.354 250.901 352.235 250.619 352.232 250.326C352.23 250.034 352.344 249.754 352.549 249.549ZM355.642 246.455C355.847 246.25 356.127 246.136 356.42 246.139C356.713 246.142 356.994 246.26 357.203 246.469L361.928 251.194C362.137 251.403 362.256 251.685 362.258 251.977C362.261 252.27 362.147 252.55 361.942 252.755C361.737 252.96 361.457 253.074 361.164 253.071C360.872 253.068 360.59 252.95 360.381 252.741L355.656 248.016C355.448 247.807 355.329 247.525 355.326 247.233C355.323 246.94 355.437 246.66 355.642 246.455ZM358.736 243.362C358.941 243.156 359.221 243.043 359.513 243.045C359.806 243.048 360.088 243.167 360.297 243.376L365.021 248.1C365.23 248.309 365.349 248.591 365.352 248.884C365.354 249.176 365.241 249.456 365.036 249.661C364.83 249.866 364.551 249.98 364.258 249.977C363.965 249.975 363.684 249.856 363.475 249.647L358.75 244.922C358.541 244.714 358.422 244.432 358.42 244.139C358.417 243.846 358.531 243.567 358.736 243.362Z" fill="white" fill-opacity="0.25"/>
<path d="M103.719 386.707C103.726 386.334 103.88 385.977 104.146 385.715C104.413 385.452 104.772 385.305 105.145 385.303C105.519 385.302 105.877 385.448 106.142 385.709C106.408 385.97 106.56 386.325 106.566 386.698L106.556 389.975L109.503 387.027C109.931 386.599 110.579 386.488 111.122 386.743L117.49 389.746C117.696 389.844 117.875 389.989 118.013 390.171C118.151 390.352 118.242 390.564 118.281 390.789C118.319 391.014 118.302 391.244 118.233 391.462C118.163 391.68 118.042 391.878 117.88 392.04L116.474 393.446L127.794 409.038C129.472 411.282 129.109 414.283 127.077 416.315L123.314 420.078C121.28 422.112 118.279 422.475 116.051 420.807L100.445 409.475L99.0395 410.88C98.8778 411.042 98.6798 411.163 98.4621 411.233C98.2444 411.302 98.0134 411.319 97.7887 411.281C97.5639 411.242 97.3518 411.151 97.1705 411.013C96.9891 410.875 96.8436 410.696 96.7464 410.49L93.7426 404.122C93.6174 403.857 93.5775 403.559 93.6285 403.269C93.6795 402.979 93.8188 402.712 94.0274 402.504L103.701 392.829L103.719 386.707ZM114.431 395.489L102.488 407.432L117.751 418.51C118.815 419.307 120.239 419.136 121.305 418.07L125.071 414.304C126.137 413.238 126.308 411.813 125.499 410.732L114.431 395.489ZM110.801 389.746L96.7477 403.8L98.4645 407.439L114.441 391.462L110.801 389.746Z" fill="white" fill-opacity="0.25"/>
<path d="M369.893 469.928C370.254 469.834 370.638 469.884 370.964 470.069C371.289 470.254 371.529 470.559 371.632 470.918C371.735 471.276 371.693 471.661 371.515 471.988C371.336 472.314 371.036 472.558 370.678 472.665L367.523 473.55L371.164 475.581C371.692 475.876 371.976 476.468 371.879 477.06L370.728 484.007C370.691 484.231 370.6 484.443 370.463 484.625C370.326 484.807 370.147 484.953 369.942 485.051C369.736 485.15 369.509 485.197 369.281 485.189C369.052 485.182 368.829 485.119 368.629 485.008L366.892 484.039L354.983 499.185C353.283 501.413 350.296 501.883 347.787 500.483L343.139 497.89C340.628 496.489 339.458 493.701 340.455 491.102L347.095 472.995L345.36 472.027C345.16 471.915 344.99 471.758 344.863 471.568C344.737 471.377 344.658 471.159 344.633 470.933C344.609 470.706 344.639 470.477 344.722 470.265C344.805 470.053 344.938 469.864 345.109 469.714L350.416 465.086C350.637 464.893 350.912 464.773 351.205 464.743C351.498 464.713 351.793 464.774 352.05 464.918L363.998 471.583L369.893 469.928ZM364.369 482.631L349.619 474.402L343.129 492.11C342.652 493.351 343.206 494.675 344.523 495.41L349.174 498.004C350.49 498.739 351.907 498.515 352.727 497.441L364.369 482.631ZM368.902 477.572L351.546 467.889L348.514 470.534L368.246 481.542L368.902 477.572Z" fill="white" fill-opacity="0.25"/>
<path d="M182.312 539.747C177.706 536.861 171.632 538.255 168.747 542.861C165.861 547.467 167.255 553.541 171.861 556.426C176.467 559.312 182.54 557.918 185.426 553.312C188.312 548.706 186.918 542.633 182.312 539.747Z" stroke="white" stroke-opacity="0.25" stroke-width="3.53283" stroke-linecap="round" stroke-linejoin="round"/>
<path d="M186.256 538.02C187.864 535.454 189.539 535.341 192.909 535.666C194.833 536.872 195.15 540.644 194.825 544.014C196.587 546.904 197.546 551.078 196.742 552.361C193.851 554.124 192.569 554.366 190.003 552.758M167.684 558.246C166.076 560.812 164.634 560.832 161.264 560.507C159.34 559.301 159.023 555.529 159.348 552.159C157.585 549.269 156.627 545.095 157.431 543.812C160.322 542.05 161.636 541.476 164.203 543.084" stroke="white" stroke-opacity="0.25" stroke-width="3.53283" stroke-linecap="round" stroke-linejoin="round"/>
<path d="M181.506 268.284L164.686 283.777L166.453 286.213L184.839 272.88L185.95 274.412L167.564 287.745L173.119 295.406L191.505 282.073C193.516 284.846 194.476 288.008 194.431 291.524C194.386 295.04 193.39 298.31 191.478 301.38L193.423 304.061L181.166 312.949L179.221 310.268C175.725 311.12 172.281 311.046 168.936 310.012C165.591 308.977 162.873 307.067 160.862 304.294L165.459 300.961L156.57 288.704L180.395 266.752L181.506 268.284ZM159.08 288.941L160.324 290.657L161.857 289.546L160.501 287.677L159.08 288.941ZM161.436 292.189L166.991 299.85L168.523 298.739L162.968 291.078L161.436 292.189ZM171.587 296.517L166.032 288.856L164.5 289.967L170.055 297.628L171.587 296.517ZM164.921 287.324L163.31 285.102L161.878 286.351L163.389 288.435L164.921 287.324Z" fill="white" fill-opacity="0.25"/>
<path d="M92.7266 855.686C87.4765 857.092 82.0801 853.977 80.6733 848.727C79.2666 843.476 82.3822 838.08 87.6323 836.673C92.8824 835.267 98.2788 838.382 99.6856 843.632C101.092 848.882 97.9767 854.279 92.7266 855.686Z" stroke="white" stroke-opacity="0.25" stroke-width="3.53283" stroke-linecap="round" stroke-linejoin="round"/>
<path d="M95.9905 858.494C96.7742 861.419 98.3421 862.018 101.659 862.697C103.853 862.109 105.263 858.596 105.941 855.28C108.474 853.033 110.616 849.325 110.224 847.862C107.978 845.329 106.823 844.721 103.898 845.505M84.1727 833.708C83.389 830.783 82.0167 830.341 78.6998 829.662C76.5061 830.25 75.0961 833.762 74.4174 837.079C71.8843 839.325 69.7431 843.034 70.135 844.497C72.3812 847.03 73.4696 847.964 76.3946 847.18" stroke="white" stroke-opacity="0.25" stroke-width="3.53283" stroke-linecap="round" stroke-linejoin="round"/>
<path d="M326.497 844.135C326.188 843.926 325.808 843.847 325.44 843.914C325.072 843.981 324.745 844.19 324.529 844.494C324.313 844.799 324.226 845.176 324.286 845.543C324.347 845.91 324.55 846.239 324.852 846.459L327.537 848.336L323.431 849.051C322.835 849.154 322.371 849.619 322.267 850.21L321.059 857.147C321.02 857.372 321.035 857.602 321.105 857.819C321.174 858.036 321.294 858.233 321.456 858.393C321.618 858.554 321.816 858.673 322.035 858.742C322.253 858.81 322.484 858.825 322.71 858.786L324.669 858.445L330.907 876.675C331.776 879.339 334.439 880.769 337.271 880.276L342.514 879.364C345.347 878.871 347.372 876.626 347.289 873.844L347.002 854.559L348.96 854.219C349.186 854.18 349.398 854.087 349.581 853.949C349.763 853.811 349.909 853.632 350.007 853.426C350.105 853.22 350.152 852.994 350.144 852.767C350.136 852.539 350.073 852.317 349.961 852.119L346.481 845.998C346.336 845.743 346.115 845.539 345.849 845.413C345.583 845.288 345.284 845.249 344.993 845.299L331.515 847.644L326.497 844.135ZM327.516 857.95L344.156 855.055L344.432 873.912C344.472 875.241 343.512 876.307 342.027 876.566L336.78 877.479C335.295 877.737 334.031 877.057 333.613 875.773L327.516 857.95ZM324.908 851.677L344.488 848.27L346.476 851.768L324.216 855.641L324.908 851.677Z" fill="white" fill-opacity="0.25"/>
<path d="M396.777 776.786L417.323 786.823L416.327 789.663L394.897 782.144L394.27 783.929L415.7 791.449L412.567 800.378L391.137 792.859C390.003 796.091 389.987 799.395 391.036 802.751C392.084 806.108 393.973 808.957 396.683 811.352L395.586 814.477L409.873 819.49L410.969 816.365C414.564 816.182 417.842 815.126 420.752 813.178C423.662 811.231 425.72 808.623 426.854 805.391L421.496 803.511L426.509 789.224L397.403 775L396.777 776.786ZM424.172 790.169L423.47 792.169L421.684 791.543L422.449 789.364L424.172 790.169ZM422.844 793.955L419.711 802.885L417.925 802.258L421.058 793.329L422.844 793.955ZM414.353 801.005L417.486 792.075L419.272 792.702L416.139 801.631L414.353 801.005ZM418.113 790.29L419.021 787.7L420.751 788.487L419.899 790.916L418.113 790.29Z" fill="white" fill-opacity="0.25"/>
<path d="M242.356 765.956C242.215 765.922 242.069 765.916 241.926 765.939C241.782 765.961 241.644 766.012 241.519 766.087C241.394 766.163 241.284 766.262 241.197 766.379C241.109 766.496 241.046 766.629 241.009 766.77L238.265 777.391L223.982 763.108L234.604 760.365C234.889 760.291 235.134 760.108 235.287 759.855C235.44 759.603 235.487 759.302 235.418 759.019C235.35 758.735 235.171 758.493 234.921 758.345C234.671 758.196 234.371 758.155 234.086 758.228L222.178 761.304L220.296 759.422C219.886 759.011 219.326 758.784 218.741 758.789C218.155 758.794 217.592 759.032 217.174 759.45L215.599 761.025C215.182 761.442 214.944 762.006 214.939 762.591C214.933 763.177 215.161 763.736 215.571 764.146L208.484 771.233C207.44 772.278 206.846 773.687 206.833 775.15C206.819 776.614 207.388 778.012 208.414 779.038L222.335 792.959C223.361 793.984 224.759 794.553 226.223 794.54C227.686 794.527 229.095 793.933 230.139 792.889L237.226 785.801C237.637 786.212 238.196 786.439 238.781 786.434C239.367 786.429 239.93 786.191 240.348 785.773L241.923 784.198C242.341 783.781 242.578 783.217 242.584 782.632C242.589 782.046 242.361 781.487 241.951 781.077L240.069 779.194L243.147 767.289C243.184 767.149 243.193 767.002 243.173 766.859C243.153 766.716 243.105 766.578 243.031 766.455C242.958 766.331 242.861 766.224 242.745 766.138C242.629 766.053 242.496 765.99 242.356 765.956ZM235.68 784.255L228.592 791.342C227.966 791.968 227.121 792.325 226.242 792.333C225.364 792.341 224.525 791.999 223.91 791.384L209.989 777.463C209.373 776.847 209.032 776.008 209.04 775.13C209.048 774.252 209.404 773.407 210.031 772.78L217.118 765.693L235.68 784.255ZM240.376 782.652L238.801 784.227L217.146 762.571L218.721 760.997L240.376 782.652ZM231.011 782.736C230.806 782.531 230.526 782.417 230.234 782.42C229.941 782.422 229.659 782.541 229.45 782.75L224.725 787.475C224.517 787.684 224.398 787.965 224.395 788.258C224.393 788.551 224.506 788.831 224.711 789.036C224.917 789.241 225.196 789.355 225.489 789.352C225.782 789.349 226.063 789.23 226.272 789.022L230.997 784.297C231.206 784.088 231.325 783.806 231.327 783.514C231.33 783.221 231.216 782.941 231.011 782.736ZM227.917 779.642C227.712 779.437 227.433 779.324 227.14 779.326C226.847 779.329 226.565 779.448 226.357 779.656L221.632 784.381C221.423 784.59 221.304 784.872 221.302 785.165C221.299 785.457 221.413 785.737 221.618 785.942C221.823 786.147 222.103 786.261 222.395 786.258C222.688 786.256 222.97 786.137 223.179 785.928L227.903 781.203C228.112 780.994 228.231 780.713 228.234 780.42C228.236 780.127 228.123 779.848 227.917 779.642ZM224.824 776.549C224.619 776.344 224.339 776.23 224.046 776.233C223.754 776.235 223.472 776.354 223.263 776.563L218.538 781.288C218.329 781.496 218.211 781.778 218.208 782.071C218.205 782.364 218.319 782.643 218.524 782.848C218.729 783.054 219.009 783.167 219.302 783.165C219.594 783.162 219.876 783.043 220.085 782.834L224.81 778.11C225.019 777.901 225.137 777.619 225.14 777.326C225.143 777.034 225.029 776.754 224.824 776.549ZM221.73 773.455C221.525 773.25 221.245 773.136 220.953 773.139C220.66 773.142 220.378 773.26 220.169 773.469L215.445 778.194C215.236 778.403 215.117 778.685 215.114 778.977C215.112 779.27 215.225 779.55 215.431 779.755C215.636 779.96 215.915 780.074 216.208 780.071C216.501 780.068 216.783 779.95 216.991 779.741L221.716 775.016C221.925 774.807 222.044 774.525 222.046 774.233C222.049 773.94 221.935 773.66 221.73 773.455ZM218.637 770.362C218.432 770.157 218.152 770.043 217.859 770.045C217.566 770.048 217.285 770.167 217.076 770.376L212.351 775.1C212.142 775.309 212.023 775.591 212.021 775.884C212.018 776.176 212.132 776.456 212.337 776.661C212.542 776.866 212.822 776.98 213.115 776.978C213.407 776.975 213.689 776.856 213.898 776.647L218.623 771.922C218.831 771.714 218.95 771.432 218.953 771.139C218.956 770.846 218.842 770.567 218.637 770.362Z" fill="white" fill-opacity="0.25"/>
<path d="M396.201 372.774C393.484 368.067 395.096 362.048 399.804 359.331C404.511 356.613 410.53 358.226 413.247 362.933C415.965 367.64 414.352 373.659 409.645 376.376C404.938 379.094 398.919 377.481 396.201 372.774Z" stroke="white" stroke-opacity="0.25" stroke-width="3.53283" stroke-linecap="round" stroke-linejoin="round"/>
<path d="M394.334 376.654C391.711 378.168 391.538 379.837 391.741 383.217C392.876 385.184 396.634 385.636 400.014 385.434C402.839 387.299 406.976 388.407 408.287 387.65C410.152 384.825 410.441 383.552 408.927 380.93M415.216 358.824C417.839 357.309 417.911 355.869 417.708 352.49C416.572 350.523 412.814 350.07 409.435 350.273C406.61 348.408 402.473 347.299 401.162 348.056C399.297 350.882 398.676 352.175 400.19 354.797" stroke="white" stroke-opacity="0.25" stroke-width="3.53283" stroke-linecap="round" stroke-linejoin="round"/>
<path d="M347.817 683.537C347.308 678.125 351.282 673.326 356.694 672.817C362.105 672.308 366.904 676.282 367.413 681.694C367.922 687.105 363.948 691.904 358.537 692.413C353.125 692.922 348.326 688.948 347.817 683.537Z" stroke="white" stroke-opacity="0.25" stroke-width="3.53283" stroke-linecap="round" stroke-linejoin="round"/>
<path d="M344.502 686.285C341.487 686.568 340.634 688.014 339.41 691.171C339.623 693.432 342.85 695.409 346.007 696.633C347.798 699.506 351.096 702.237 352.604 702.096C355.477 700.305 356.27 699.268 355.986 696.253M370.915 678.779C373.93 678.495 374.596 677.216 375.82 674.059C375.607 671.798 372.38 669.821 369.223 668.597C367.432 665.724 364.134 662.992 362.626 663.134C359.753 664.925 358.65 665.842 358.934 668.857" stroke="white" stroke-opacity="0.25" stroke-width="3.53283" stroke-linecap="round" stroke-linejoin="round"/>
<path d="M67.7266 116.099C62.4765 117.505 57.0801 114.39 55.6733 109.14C54.2666 103.889 57.3822 98.493 62.6323 97.0863C67.8824 95.6795 73.2788 98.7952 74.6856 104.045C76.0923 109.295 72.9767 114.692 67.7266 116.099Z" stroke="white" stroke-opacity="0.25" stroke-width="3.53283" stroke-linecap="round" stroke-linejoin="round"/>
<path d="M70.9905 118.907C71.7742 121.832 73.3421 122.431 76.6589 123.11C78.8526 122.522 80.2626 119.009 80.9414 115.693C83.4745 113.446 85.6157 109.738 85.2238 108.275C82.9776 105.742 81.823 105.134 78.8981 105.918M59.1727 94.1209C58.389 91.1959 57.0167 90.7536 53.6998 90.0748C51.5061 90.6626 50.0961 94.1754 49.4174 97.4922C46.8843 99.7384 44.7431 103.447 45.135 104.91C47.3812 107.443 48.4696 108.377 51.3946 107.593" stroke="white" stroke-opacity="0.25" stroke-width="3.53283" stroke-linecap="round" stroke-linejoin="round"/>
<path d="M252.626 82.135C252.317 81.9261 251.937 81.8467 251.569 81.9139C251.201 81.981 250.873 82.1894 250.658 82.4941C250.442 82.7987 250.355 83.1753 250.415 83.5427C250.476 83.9102 250.679 84.239 250.981 84.4585L253.666 86.336L249.56 87.0504C248.963 87.1542 248.5 87.6192 248.396 88.21L247.188 95.1469C247.149 95.3713 247.164 95.6016 247.233 95.8185C247.303 96.0354 247.423 96.2324 247.585 96.393C247.747 96.5537 247.945 96.6732 248.163 96.7414C248.382 96.8097 248.613 96.8248 248.838 96.7854L250.798 96.4445L257.036 114.674C257.905 117.339 260.568 118.768 263.4 118.276L268.643 117.364C271.476 116.871 273.501 114.626 273.418 111.843L273.131 92.5591L275.089 92.2185C275.314 92.1795 275.527 92.0871 275.709 91.9491C275.892 91.8112 276.038 91.6317 276.136 91.4259C276.234 91.22 276.281 90.9938 276.273 90.7663C276.265 90.5388 276.202 90.3167 276.09 90.1187L272.61 83.9974C272.465 83.7423 272.244 83.5383 271.978 83.4132C271.711 83.2882 271.413 83.2483 271.122 83.2991L257.644 85.644L252.626 82.135ZM253.645 95.9493L270.285 93.0543L270.561 111.912C270.601 113.241 269.641 114.307 268.156 114.566L262.909 115.478C261.424 115.737 260.16 115.057 259.742 113.773L253.645 95.9493ZM251.037 89.6763L270.617 86.2698L272.605 89.7678L250.345 93.6405L251.037 89.6763Z" fill="white" fill-opacity="0.25"/>
<path d="M389.905 31.7859L410.452 41.8233L409.456 44.6628L388.026 37.1435L387.399 38.9293L408.829 46.4486L405.696 55.3779L384.266 47.8586C383.132 51.0909 383.116 54.3948 384.164 57.7512C385.213 61.1077 387.102 63.9566 389.812 66.3515L388.715 69.4767L403.002 74.4896L404.098 71.3643C407.693 71.1814 410.971 70.1255 413.881 68.178C416.791 66.2305 418.849 63.6232 419.983 60.3908L414.625 58.5109L419.638 44.2242L390.532 30.0001L389.905 31.7859ZM417.301 45.1691L416.599 47.1692L414.813 46.5426L415.578 44.3639L417.301 45.1691ZM415.973 48.9551L412.84 57.8843L411.054 57.2577L414.187 48.3285L415.973 48.9551ZM407.482 56.0045L410.615 47.0753L412.401 47.7019L409.268 56.6311L407.482 56.0045ZM411.242 45.2894L412.15 42.6999L413.88 43.4873L413.027 45.916L411.242 45.2894Z" fill="white" fill-opacity="0.25"/>
<path d="M99.659 663.952L121.878 658.547L122.926 661.368L101.636 669.274L102.294 671.048L123.585 663.142L126.879 672.013L105.589 679.919C106.781 683.131 108.88 685.683 111.831 687.595C114.782 689.507 118.055 690.492 121.67 690.603L122.823 693.708L137.016 688.437L135.863 685.332C138.511 682.895 140.359 679.988 141.354 676.631C142.348 673.274 142.265 669.953 141.073 666.742L135.75 668.719L130.479 654.525L99.0001 662.177L99.659 663.952ZM129.285 656.745L130.023 658.732L128.249 659.391L127.445 657.227L129.285 656.745ZM130.682 660.507L133.976 669.378L132.202 670.036L128.907 661.165L130.682 660.507ZM128.653 671.354L125.359 662.483L127.133 661.824L130.428 670.695L128.653 671.354ZM124.7 660.709L123.745 658.136L125.578 657.637L126.474 660.05L124.7 660.709Z" fill="white" fill-opacity="0.25"/>
</svg>
