<svg width="390" height="842" viewBox="0 0 390 842" fill="none" xmlns="http://www.w3.org/2000/svg">
<path d="M40.7591 373.956C40.8994 373.922 41.0455 373.916 41.1891 373.938C41.3327 373.961 41.471 374.012 41.596 374.087C41.7211 374.163 41.8304 374.262 41.9178 374.379C42.0053 374.496 42.069 374.629 42.1055 374.77L44.8497 385.391L59.1328 371.108L48.5108 368.365C48.2262 368.291 47.9805 368.108 47.8278 367.855C47.6751 367.603 47.6278 367.302 47.6965 367.019C47.7651 366.735 47.944 366.493 48.1938 366.345C48.4436 366.196 48.7439 366.155 49.0285 366.228L60.9364 369.304L62.8189 367.422C63.2291 367.011 63.7885 366.784 64.3739 366.789C64.9593 366.794 65.5229 367.032 65.9406 367.45L67.5155 369.025C67.9332 369.442 68.1708 370.006 68.176 370.591C68.1813 371.177 67.9538 371.736 67.5436 372.146L74.6307 379.233C75.6749 380.278 76.2689 381.686 76.2821 383.15C76.2953 384.614 75.7265 386.012 74.7009 387.038L60.7798 400.959C59.7542 401.984 58.3558 402.553 56.8922 402.54C55.4286 402.527 54.0197 401.933 52.9755 400.889L45.8884 393.801C45.4782 394.212 44.9188 394.439 44.3334 394.434C43.748 394.429 43.1844 394.191 42.7667 393.773L41.1918 392.198C40.7741 391.781 40.5365 391.217 40.5312 390.632C40.526 390.046 40.7535 389.487 41.1637 389.077L43.0462 387.194L39.9673 375.289C39.9308 375.148 39.9222 375.002 39.9422 374.859C39.9621 374.716 40.0101 374.578 40.0835 374.455C40.1569 374.331 40.2542 374.223 40.3699 374.138C40.4855 374.053 40.6188 373.99 40.7591 373.956ZM47.4352 392.255L54.5223 399.342C55.1488 399.968 55.9942 400.325 56.8723 400.333C57.7505 400.34 58.5895 399.999 59.2049 399.384L73.126 385.463C73.7414 384.847 74.0826 384.008 74.0747 383.13C74.0668 382.252 73.7104 381.407 73.0839 380.78L65.9968 373.693L47.4352 392.255ZM42.7386 390.652L44.3135 392.227L65.9687 370.571L64.3938 368.996L42.7386 390.652ZM52.1037 390.736C52.3088 390.531 52.5885 390.417 52.8812 390.42C53.174 390.422 53.4557 390.541 53.6646 390.75L58.3893 395.475C58.5981 395.684 58.717 395.965 58.7196 396.258C58.7222 396.551 58.6085 396.83 58.4034 397.036C58.1982 397.241 57.9186 397.354 57.6258 397.352C57.3331 397.349 57.0513 397.23 56.8425 397.022L52.1178 392.297C51.9089 392.088 51.7901 391.806 51.7875 391.513C51.7849 391.221 51.8986 390.941 52.1037 390.736ZM55.1973 387.642C55.4024 387.437 55.6821 387.323 55.9748 387.326C56.2675 387.329 56.5493 387.448 56.7582 387.656L61.4829 392.381C61.6917 392.59 61.8105 392.872 61.8132 393.164C61.8158 393.457 61.7021 393.737 61.4969 393.942C61.2918 394.147 61.0121 394.261 60.7194 394.258C60.4267 394.256 60.1449 394.137 59.9361 393.928L55.2114 389.203C55.0025 388.994 54.8837 388.713 54.8811 388.42C54.8784 388.127 54.9922 387.847 55.1973 387.642ZM58.2909 384.549C58.496 384.344 58.7757 384.23 59.0684 384.233C59.3611 384.235 59.6429 384.354 59.8518 384.563L64.5765 389.288C64.7853 389.496 64.9041 389.778 64.9068 390.071C64.9094 390.364 64.7957 390.643 64.5905 390.848C64.3854 391.054 64.1057 391.167 63.813 391.165C63.5203 391.162 63.2385 391.043 63.0297 390.834L58.305 386.11C58.0961 385.901 57.9773 385.619 57.9747 385.326C57.972 385.034 58.0858 384.754 58.2909 384.549ZM61.3845 381.455C61.5896 381.25 61.8693 381.136 62.162 381.139C62.4547 381.142 62.7365 381.26 62.9454 381.469L67.6701 386.194C67.8789 386.403 67.9977 386.685 68.0004 386.977C68.003 387.27 67.8892 387.55 67.6841 387.755C67.479 387.96 67.1993 388.074 66.9066 388.071C66.6139 388.068 66.3321 387.95 66.1233 387.741L61.3986 383.016C61.1897 382.807 61.0709 382.525 61.0683 382.233C61.0656 381.94 61.1794 381.66 61.3845 381.455ZM64.4781 378.362C64.6832 378.156 64.9629 378.043 65.2556 378.045C65.5483 378.048 65.8301 378.167 66.0389 378.376L70.7637 383.1C70.9725 383.309 71.0913 383.591 71.094 383.884C71.0966 384.176 70.9828 384.456 70.7777 384.661C70.5726 384.866 70.2929 384.98 70.0002 384.977C69.7075 384.975 69.4257 384.856 69.2169 384.647L64.4922 379.922C64.2833 379.714 64.1645 379.432 64.1619 379.139C64.1592 378.846 64.273 378.567 64.4781 378.362Z" fill="#02A2FF" fill-opacity="0.15"/>
<path d="M278.184 218.93C278.28 219.038 278.353 219.165 278.399 219.303C278.446 219.44 278.465 219.586 278.456 219.732C278.447 219.878 278.41 220.021 278.347 220.153C278.284 220.285 278.195 220.403 278.087 220.5L269.951 227.857L289.23 233.887L286.733 223.204C286.666 222.918 286.715 222.615 286.868 222.363C287.02 222.111 287.265 221.929 287.548 221.858C287.831 221.788 288.129 221.834 288.376 221.986C288.623 222.139 288.799 222.386 288.866 222.672L291.664 234.648L294.205 235.443C294.758 235.616 295.219 236.006 295.486 236.527C295.753 237.048 295.804 237.658 295.628 238.222L294.963 240.347C294.786 240.911 294.397 241.383 293.881 241.659C293.365 241.935 292.764 241.993 292.21 241.82L289.218 251.386C288.778 252.795 287.805 253.975 286.514 254.665C285.224 255.356 283.721 255.501 282.337 255.068L263.547 249.191C262.163 248.758 261.01 247.783 260.343 246.48C259.676 245.177 259.549 243.654 259.99 242.244L262.981 232.678C262.428 232.505 261.967 232.115 261.7 231.594C261.433 231.073 261.382 230.464 261.558 229.9L262.223 227.774C262.4 227.21 262.789 226.738 263.305 226.462C263.821 226.186 264.422 226.128 264.976 226.301L267.517 227.096L276.636 218.847C276.744 218.749 276.869 218.674 277.005 218.625C277.142 218.576 277.286 218.555 277.429 218.563C277.573 218.57 277.713 218.607 277.842 218.67C277.972 218.732 278.089 218.821 278.184 218.93ZM265.069 233.331L262.077 242.897C261.813 243.743 261.889 244.657 262.289 245.439C262.69 246.22 263.381 246.805 264.212 247.065L283.002 252.942C283.832 253.202 284.734 253.115 285.508 252.701C286.283 252.286 286.866 251.578 287.131 250.733L290.122 241.167L265.069 233.331ZM264.311 228.427L263.646 230.553L292.875 239.694L293.54 237.569L264.311 228.427ZM268.58 236.763C268.857 236.85 269.087 237.045 269.221 237.305C269.354 237.566 269.379 237.871 269.291 238.152L267.297 244.53C267.209 244.811 267.014 245.047 266.756 245.185C266.498 245.324 266.197 245.353 265.921 245.266C265.644 245.179 265.413 244.984 265.28 244.724C265.146 244.463 265.121 244.158 265.209 243.877L267.204 237.499C267.292 237.218 267.486 236.982 267.744 236.844C268.002 236.705 268.303 236.676 268.58 236.763ZM272.755 238.069C273.032 238.156 273.263 238.351 273.396 238.611C273.53 238.872 273.555 239.176 273.467 239.458L271.472 245.836C271.384 246.117 271.19 246.353 270.932 246.491C270.673 246.63 270.373 246.658 270.096 246.572C269.819 246.485 269.589 246.29 269.455 246.03C269.322 245.769 269.296 245.464 269.385 245.183L271.379 238.805C271.467 238.524 271.662 238.288 271.92 238.149C272.178 238.011 272.479 237.982 272.755 238.069ZM276.931 239.375C277.208 239.462 277.438 239.657 277.572 239.917C277.705 240.178 277.731 240.482 277.642 240.764L275.648 247.141C275.56 247.423 275.365 247.659 275.107 247.797C274.849 247.935 274.548 247.964 274.272 247.878C273.995 247.791 273.764 247.596 273.631 247.336C273.497 247.075 273.472 246.77 273.56 246.488L275.555 240.111C275.643 239.829 275.837 239.594 276.095 239.455C276.354 239.317 276.654 239.288 276.931 239.375ZM281.106 240.681C281.383 240.768 281.614 240.963 281.747 241.223C281.881 241.484 281.906 241.788 281.818 242.07L279.823 248.447C279.735 248.729 279.541 248.965 279.283 249.103C279.025 249.241 278.724 249.27 278.447 249.184C278.17 249.097 277.94 248.902 277.806 248.642C277.673 248.381 277.648 248.076 277.736 247.794L279.73 241.417C279.818 241.135 280.013 240.899 280.271 240.761C280.529 240.623 280.83 240.594 281.106 240.681ZM285.282 241.987C285.559 242.073 285.789 242.268 285.923 242.529C286.056 242.79 286.082 243.094 285.993 243.376L283.999 249.753C283.911 250.035 283.716 250.271 283.458 250.409C283.2 250.547 282.9 250.576 282.623 250.49C282.346 250.403 282.115 250.208 281.982 249.948C281.848 249.687 281.823 249.382 281.911 249.1L283.906 242.723C283.994 242.441 284.188 242.205 284.447 242.067C284.705 241.929 285.005 241.9 285.282 241.987Z" fill="#02A2FF" fill-opacity="0.15"/>
<path d="M180.461 339.707C180.468 339.333 180.622 338.977 180.889 338.715C181.155 338.452 181.514 338.304 181.887 338.303C182.261 338.302 182.619 338.448 182.885 338.709C183.15 338.969 183.302 339.325 183.308 339.698L183.298 342.975L186.246 340.027C186.674 339.599 187.321 339.488 187.864 339.743L194.232 342.746C194.438 342.844 194.618 342.989 194.755 343.17C194.893 343.352 194.984 343.564 195.023 343.789C195.061 344.013 195.045 344.244 194.975 344.462C194.905 344.68 194.784 344.878 194.622 345.039L193.216 346.446L204.536 362.037C206.215 364.282 205.851 367.283 203.819 369.315L200.056 373.078C198.022 375.112 195.021 375.475 192.793 373.807L177.187 362.475L175.782 363.88C175.62 364.042 175.422 364.163 175.204 364.233C174.987 364.302 174.756 364.319 174.531 364.28C174.306 364.242 174.094 364.15 173.913 364.013C173.731 363.875 173.586 363.696 173.489 363.49L170.485 357.122C170.36 356.856 170.32 356.558 170.371 356.269C170.422 355.979 170.561 355.712 170.77 355.503L180.444 345.829L180.461 339.707ZM191.173 348.489L179.23 360.432L194.493 371.51C195.557 372.307 196.982 372.136 198.048 371.07L201.813 367.304C202.879 366.238 203.051 364.813 202.241 363.732L191.173 348.489ZM187.543 342.746L173.49 356.8L175.207 360.438L191.183 344.462L187.543 342.746Z" fill="#02A2FF" fill-opacity="0.15"/>
<path d="M317.204 475.532C317.438 475.241 317.777 475.053 318.149 475.008C318.521 474.963 318.895 475.065 319.191 475.292C319.487 475.52 319.682 475.854 319.733 476.222C319.784 476.591 319.688 476.965 319.464 477.264L317.455 479.853L321.589 479.319C322.189 479.242 322.77 479.549 323.044 480.082L326.252 486.35C326.356 486.553 326.409 486.778 326.407 487.005C326.406 487.233 326.349 487.457 326.242 487.658C326.135 487.86 325.981 488.032 325.793 488.162C325.604 488.292 325.388 488.375 325.161 488.404L323.188 488.659L322.629 507.918C322.588 510.72 320.467 512.875 317.616 513.243L312.338 513.924C309.486 514.292 306.888 512.747 306.142 510.066L300.706 491.561L298.735 491.816C298.508 491.845 298.278 491.82 298.063 491.742C297.848 491.664 297.655 491.536 297.5 491.369C297.346 491.201 297.234 490.999 297.174 490.779C297.115 490.559 297.109 490.329 297.158 490.106L298.669 483.229C298.732 482.942 298.882 482.682 299.1 482.484C299.317 482.286 299.59 482.159 299.883 482.122L313.451 480.37L317.204 475.532ZM320.323 489.029L303.571 491.191L308.892 509.285C309.247 510.566 310.48 511.3 311.975 511.107L317.257 510.425C318.752 510.232 319.757 509.209 319.777 507.859L320.323 489.029ZM320.956 482.265L301.245 484.809L300.382 488.739L322.791 485.846L320.956 482.265Z" fill="#02A2FF" fill-opacity="0.15"/>
<path d="M138.821 470.513C134.215 467.627 128.141 469.022 125.256 473.628C122.37 478.234 123.764 484.307 128.37 487.193C132.976 490.079 139.049 488.684 141.935 484.078C144.821 479.472 143.427 473.399 138.821 470.513Z" stroke="#02A2FF" stroke-opacity="0.15" stroke-width="3.53283" stroke-linecap="round" stroke-linejoin="round"/>
<path d="M142.765 468.787C144.373 466.221 146.048 466.108 149.418 466.432C151.342 467.638 151.659 471.41 151.334 474.78C153.096 477.671 154.055 481.845 153.251 483.128C150.36 484.89 149.078 485.133 146.512 483.525M124.193 489.012C122.585 491.578 121.143 491.598 117.773 491.273C115.849 490.068 115.532 486.296 115.857 482.926C114.094 480.035 113.136 475.861 113.94 474.578C116.831 472.816 118.145 472.242 120.712 473.85" stroke="#02A2FF" stroke-opacity="0.15" stroke-width="3.53283" stroke-linecap="round" stroke-linejoin="round"/>
<path d="M143.078 283.22L122.583 273.077L120.943 275.6L139.983 287.98L138.951 289.567L119.911 277.187L114.752 285.12L133.792 297.5C131.925 300.372 129.318 302.402 126.02 303.621C122.722 304.84 119.312 305.084 115.761 304.4L113.956 307.177L101.262 298.923L103.068 296.147C101.018 293.189 99.8521 289.947 99.6178 286.454C99.3835 282.96 100.192 279.739 102.059 276.867L106.819 279.962L115.073 267.268L144.109 281.634L143.078 283.22ZM115.751 269.696L114.596 271.473L116.183 272.505L117.441 270.569L115.751 269.696ZM113.564 273.06L108.406 280.993L109.992 282.025L115.151 274.092L113.564 273.06ZM113.166 284.088L118.324 276.155L116.738 275.123L111.579 283.057L113.166 284.088ZM119.356 274.568L120.852 272.268L119.172 271.379L117.769 273.537L119.356 274.568Z" fill="#02A2FF" fill-opacity="0.15"/>
<path d="M136.226 788.434C136.157 788.561 136.113 788.7 136.098 788.845C136.083 788.989 136.096 789.136 136.136 789.276C136.177 789.417 136.245 789.548 136.335 789.663C136.426 789.777 136.538 789.873 136.664 789.945L146.213 795.345L128.719 805.444L128.819 794.474C128.822 794.18 128.708 793.896 128.504 793.683C128.3 793.47 128.021 793.346 127.73 793.339C127.438 793.332 127.158 793.442 126.95 793.645C126.742 793.848 126.624 794.127 126.622 794.421L126.511 806.72L124.205 808.051C123.703 808.341 123.338 808.822 123.192 809.389C123.045 809.956 123.129 810.562 123.424 811.073L124.538 813.002C124.833 813.514 125.316 813.889 125.88 814.046C126.444 814.202 127.043 814.127 127.546 813.837L132.557 822.517C133.296 823.796 134.503 824.735 135.913 825.126C137.323 825.518 138.821 825.33 140.077 824.605L157.127 814.761C158.383 814.036 159.295 812.833 159.661 811.415C160.027 809.998 159.818 808.484 159.079 807.205L154.068 798.525C154.57 798.235 154.935 797.753 155.081 797.187C155.228 796.62 155.144 796.014 154.849 795.502L153.735 793.573C153.44 793.062 152.957 792.686 152.393 792.53C151.829 792.373 151.23 792.448 150.727 792.738L148.422 794.069L137.719 788.014C137.593 787.942 137.453 787.896 137.31 787.879C137.166 787.861 137.021 787.872 136.883 787.91C136.744 787.949 136.615 788.015 136.503 788.105C136.391 788.195 136.295 788.307 136.226 788.434ZM152.174 799.619L157.185 808.298C157.628 809.066 157.753 809.975 157.534 810.825C157.314 811.675 156.767 812.397 156.014 812.832L138.964 822.676C138.21 823.111 137.311 823.224 136.465 822.989C135.619 822.754 134.895 822.191 134.452 821.423L129.44 812.744L152.174 799.619ZM151.841 794.667L152.954 796.596L126.432 811.909L125.319 809.98L151.841 794.667ZM149.498 803.735C149.247 803.88 149.065 804.121 148.992 804.404C148.918 804.688 148.96 804.99 149.108 805.246L152.449 811.033C152.596 811.289 152.838 811.476 153.12 811.555C153.402 811.633 153.702 811.595 153.953 811.45C154.204 811.305 154.386 811.065 154.459 810.781C154.533 810.498 154.491 810.195 154.343 809.939L151.002 804.153C150.855 803.897 150.613 803.709 150.331 803.631C150.049 803.552 149.749 803.59 149.498 803.735ZM145.709 805.922C145.458 806.068 145.276 806.308 145.203 806.592C145.13 806.875 145.171 807.178 145.319 807.434L148.66 813.22C148.808 813.476 149.049 813.664 149.331 813.742C149.613 813.82 149.913 813.783 150.164 813.638C150.415 813.493 150.597 813.252 150.671 812.969C150.744 812.685 150.702 812.382 150.554 812.127L147.213 806.34C147.066 806.084 146.824 805.897 146.542 805.818C146.26 805.74 145.961 805.777 145.709 805.922ZM141.921 808.11C141.669 808.255 141.487 808.496 141.414 808.779C141.341 809.063 141.382 809.365 141.53 809.621L144.871 815.408C145.019 815.664 145.26 815.851 145.542 815.93C145.824 816.008 146.124 815.97 146.375 815.825C146.626 815.68 146.809 815.44 146.882 815.156C146.955 814.873 146.913 814.57 146.765 814.314L143.425 808.528C143.277 808.272 143.035 808.084 142.753 808.006C142.471 807.927 142.172 807.965 141.921 808.11ZM138.132 810.297C137.88 810.443 137.698 810.683 137.625 810.967C137.552 811.25 137.594 811.553 137.741 811.809L141.082 817.595C141.23 817.851 141.471 818.039 141.753 818.117C142.035 818.195 142.335 818.158 142.586 818.013C142.837 817.868 143.02 817.627 143.093 817.344C143.166 817.06 143.124 816.757 142.977 816.502L139.636 810.715C139.488 810.459 139.247 810.272 138.965 810.193C138.683 810.115 138.383 810.152 138.132 810.297ZM134.343 812.485C134.092 812.63 133.909 812.871 133.836 813.154C133.763 813.438 133.805 813.74 133.952 813.996L137.293 819.783C137.441 820.039 137.682 820.226 137.964 820.305C138.247 820.383 138.546 820.345 138.797 820.2C139.049 820.055 139.231 819.815 139.304 819.531C139.377 819.248 139.335 818.945 139.188 818.689L135.847 812.903C135.699 812.647 135.458 812.459 135.176 812.381C134.894 812.302 134.594 812.34 134.343 812.485Z" fill="#02A2FF" fill-opacity="0.15"/>
<path d="M25.5975 768.098C20.3474 769.505 14.9509 766.39 13.5442 761.14C12.1374 755.889 15.2531 750.493 20.5032 749.086C25.7532 747.679 31.1497 750.795 32.5564 756.045C33.9632 761.295 30.8476 766.692 25.5975 768.098Z" stroke="#02A2FF" stroke-opacity="0.15" stroke-width="3.53283" stroke-linecap="round" stroke-linejoin="round"/>
<path d="M28.8616 770.907C29.6453 773.832 31.2132 774.431 34.53 775.11C36.7237 774.522 38.1337 771.009 38.8125 767.693C41.3456 765.446 43.4868 761.738 43.0949 760.275C40.8487 757.742 39.6941 757.134 36.7692 757.918M17.0438 746.121C16.2601 743.196 14.8878 742.754 11.5709 742.075C9.37721 742.663 7.96723 746.175 7.28849 749.492C4.7554 751.739 2.61418 755.447 3.00605 756.91C5.25227 759.443 6.3407 760.377 9.26566 759.593" stroke="#02A2FF" stroke-opacity="0.15" stroke-width="3.53283" stroke-linecap="round" stroke-linejoin="round"/>
<path d="M284.369 803.135C284.059 802.926 283.679 802.847 283.311 802.914C282.943 802.981 282.616 803.189 282.4 803.494C282.184 803.799 282.097 804.175 282.157 804.543C282.218 804.91 282.421 805.239 282.723 805.458L285.409 807.336L281.302 808.05C280.706 808.154 280.242 808.619 280.138 809.21L278.93 816.147C278.891 816.371 278.906 816.602 278.976 816.818C279.045 817.035 279.165 817.232 279.327 817.393C279.489 817.554 279.687 817.673 279.906 817.741C280.124 817.81 280.355 817.825 280.581 817.785L282.54 817.444L288.778 835.674C289.647 838.339 292.311 839.768 295.142 839.276L300.385 838.364C303.218 837.871 305.243 835.626 305.161 832.843L304.873 813.559L306.831 813.218C307.057 813.179 307.269 813.087 307.452 812.949C307.634 812.811 307.78 812.632 307.878 812.426C307.976 812.22 308.023 811.994 308.015 811.766C308.007 811.539 307.944 811.317 307.832 811.119L304.352 804.997C304.207 804.742 303.986 804.538 303.72 804.413C303.454 804.288 303.155 804.248 302.864 804.299L289.386 806.644L284.369 803.135ZM285.387 816.949L302.027 814.054L302.304 832.912C302.343 834.241 301.383 835.307 299.898 835.566L294.652 836.478C293.166 836.737 291.903 836.057 291.484 834.773L285.387 816.949ZM282.779 810.676L302.359 807.27L304.347 810.768L282.087 814.64L282.779 810.676Z" fill="#02A2FF" fill-opacity="0.15"/>
<path d="M360.375 602.686C355.125 601.279 352.009 595.882 353.416 590.632C354.823 585.382 360.219 582.267 365.469 583.673C370.72 585.08 373.835 590.476 372.428 595.727C371.022 600.977 365.625 604.092 360.375 602.686Z" stroke="#02A2FF" stroke-opacity="0.15" stroke-width="3.53283" stroke-linecap="round" stroke-linejoin="round"/>
<path d="M361.798 606.75C361.014 609.675 362.072 610.978 364.605 613.224C366.799 613.812 369.776 611.475 372.022 608.941C375.339 608.263 379.048 606.122 379.44 604.659C378.761 601.342 378.065 600.238 375.14 599.454M363.956 579.376C364.74 576.451 363.772 575.381 361.239 573.135C359.046 572.547 356.068 574.884 353.822 577.418C350.505 578.096 346.796 580.237 346.405 581.7C347.083 585.017 347.559 586.37 350.484 587.154" stroke="#02A2FF" stroke-opacity="0.15" stroke-width="3.53283" stroke-linecap="round" stroke-linejoin="round"/>
<path d="M354.648 735.786L375.194 745.823L374.198 748.663L352.768 741.143L352.141 742.929L373.571 750.449L370.438 759.378L349.008 751.858C347.874 755.091 347.858 758.395 348.907 761.751C349.955 765.108 351.844 767.956 354.554 770.351L353.457 773.477L367.744 778.49L368.84 775.364C372.435 775.181 375.713 774.125 378.623 772.178C381.533 770.23 383.591 767.623 384.725 764.391L379.368 762.511L384.38 748.224L355.274 734L354.648 735.786ZM382.043 749.169L381.341 751.169L379.556 750.543L380.32 748.364L382.043 749.169ZM380.715 752.955L377.582 761.884L375.796 761.258L378.929 752.328L380.715 752.955ZM372.224 760.004L375.357 751.075L377.143 751.702L374.01 760.631L372.224 760.004ZM375.984 749.289L376.892 746.7L378.622 747.487L377.77 749.916L375.984 749.289Z" fill="#02A2FF" fill-opacity="0.15"/>
<path d="M252.098 570.956C251.958 570.922 251.811 570.916 251.668 570.938C251.524 570.961 251.386 571.011 251.261 571.087C251.136 571.163 251.027 571.262 250.939 571.379C250.852 571.496 250.788 571.629 250.751 571.77L248.007 582.391L233.724 568.108L244.346 565.365C244.631 565.291 244.876 565.108 245.029 564.855C245.182 564.603 245.229 564.302 245.16 564.019C245.092 563.735 244.913 563.493 244.663 563.345C244.413 563.196 244.113 563.155 243.828 563.228L231.921 566.304L230.038 564.422C229.628 564.011 229.068 563.784 228.483 563.789C227.898 563.794 227.334 564.032 226.916 564.45L225.341 566.025C224.924 566.442 224.686 567.006 224.681 567.591C224.676 568.177 224.903 568.736 225.313 569.146L218.226 576.233C217.182 577.278 216.588 578.686 216.575 580.15C216.562 581.614 217.13 583.012 218.156 584.038L232.077 597.959C233.103 598.984 234.501 599.553 235.965 599.54C237.428 599.527 238.837 598.933 239.881 597.889L246.969 590.801C247.379 591.212 247.938 591.439 248.524 591.434C249.109 591.429 249.673 591.191 250.09 590.773L251.665 589.198C252.083 588.781 252.32 588.217 252.326 587.632C252.331 587.046 252.103 586.487 251.693 586.077L249.811 584.194L252.89 572.289C252.926 572.148 252.935 572.002 252.915 571.859C252.895 571.716 252.847 571.578 252.773 571.455C252.7 571.331 252.603 571.223 252.487 571.138C252.371 571.053 252.238 570.99 252.098 570.956ZM245.422 589.255L238.335 596.342C237.708 596.968 236.863 597.325 235.985 597.333C235.106 597.34 234.267 596.999 233.652 596.384L219.731 582.463C219.116 581.847 218.774 581.008 218.782 580.13C218.79 579.252 219.147 578.407 219.773 577.78L226.86 570.693L245.422 589.255ZM250.118 587.652L248.543 589.227L226.888 567.571L228.463 565.996L250.118 587.652ZM240.753 587.736C240.548 587.531 240.268 587.417 239.976 587.42C239.683 587.422 239.401 587.541 239.192 587.75L234.468 592.475C234.259 592.684 234.14 592.965 234.137 593.258C234.135 593.551 234.248 593.83 234.454 594.036C234.659 594.241 234.938 594.354 235.231 594.352C235.524 594.349 235.806 594.23 236.014 594.022L240.739 589.297C240.948 589.088 241.067 588.806 241.069 588.513C241.072 588.221 240.958 587.941 240.753 587.736ZM237.66 584.642C237.454 584.437 237.175 584.323 236.882 584.326C236.589 584.329 236.308 584.448 236.099 584.656L231.374 589.381C231.165 589.59 231.046 589.872 231.044 590.164C231.041 590.457 231.155 590.737 231.36 590.942C231.565 591.147 231.845 591.261 232.137 591.258C232.43 591.256 232.712 591.137 232.921 590.928L237.646 586.203C237.854 585.994 237.973 585.713 237.976 585.42C237.978 585.127 237.865 584.847 237.66 584.642ZM234.566 581.549C234.361 581.344 234.081 581.23 233.789 581.233C233.496 581.235 233.214 581.354 233.005 581.563L228.28 586.288C228.072 586.496 227.953 586.778 227.95 587.071C227.948 587.364 228.061 587.643 228.266 587.848C228.472 588.054 228.751 588.167 229.044 588.165C229.337 588.162 229.618 588.043 229.827 587.834L234.552 583.11C234.761 582.901 234.88 582.619 234.882 582.326C234.885 582.034 234.771 581.754 234.566 581.549ZM231.472 578.455C231.267 578.25 230.988 578.136 230.695 578.139C230.402 578.142 230.12 578.26 229.912 578.469L225.187 583.194C224.978 583.403 224.859 583.685 224.857 583.977C224.854 584.27 224.968 584.55 225.173 584.755C225.378 584.96 225.658 585.074 225.95 585.071C226.243 585.068 226.525 584.95 226.734 584.741L231.458 580.016C231.667 579.807 231.786 579.525 231.789 579.233C231.791 578.94 231.678 578.66 231.472 578.455ZM228.379 575.362C228.174 575.156 227.894 575.043 227.601 575.045C227.309 575.048 227.027 575.167 226.818 575.376L222.093 580.1C221.884 580.309 221.766 580.591 221.763 580.884C221.76 581.176 221.874 581.456 222.079 581.661C222.284 581.866 222.564 581.98 222.857 581.977C223.149 581.975 223.431 581.856 223.64 581.647L228.365 576.922C228.574 576.714 228.692 576.432 228.695 576.139C228.698 575.846 228.584 575.567 228.379 575.362Z" fill="#02A2FF" fill-opacity="0.15"/>
<path d="M45.6499 214.707C45.6426 214.333 45.4891 213.977 45.2222 213.715C44.9554 213.452 44.5967 213.304 44.2234 213.303C43.85 213.302 43.4919 213.448 43.2262 213.709C42.9605 213.969 42.8084 214.325 42.8028 214.698L42.8126 217.975L39.8652 215.027C39.4372 214.599 38.7899 214.488 38.2469 214.743L31.8785 217.746C31.6725 217.844 31.4932 217.989 31.3557 218.17C31.2181 218.352 31.1264 218.564 31.0881 218.789C31.0499 219.013 31.0663 219.244 31.136 219.462C31.2056 219.68 31.3265 219.878 31.4885 220.039L32.8949 221.446L21.575 237.037C19.8962 239.282 20.2597 242.283 22.292 244.315L26.055 248.078C28.0886 250.112 31.0897 250.475 33.3177 248.807L48.9241 237.475L50.3292 238.88C50.4908 239.042 50.6889 239.163 50.9066 239.233C51.1242 239.302 51.3552 239.319 51.58 239.28C51.8048 239.242 52.0168 239.15 52.1982 239.013C52.3796 238.875 52.525 238.696 52.6223 238.49L55.626 232.122C55.7513 231.856 55.7911 231.558 55.7401 231.269C55.6891 230.979 55.5498 230.712 55.3413 230.503L45.6672 220.829L45.6499 214.707ZM34.9379 223.489L46.8811 235.432L31.6177 246.51C30.5539 247.307 29.1293 247.136 28.0633 246.07L24.2976 242.304C23.2317 241.238 23.0602 239.813 23.8695 238.732L34.9379 223.489ZM38.5675 217.746L52.621 231.8L50.9042 235.438L34.9274 219.462L38.5675 217.746Z" fill="#02A2FF" fill-opacity="0.15"/>
<path d="M354.073 331.774C351.356 327.067 352.969 321.048 357.676 318.33C362.383 315.613 368.402 317.226 371.119 321.933C373.837 326.64 372.224 332.659 367.517 335.376C362.81 338.094 356.791 336.481 354.073 331.774Z" stroke="#02A2FF" stroke-opacity="0.15" stroke-width="3.53283" stroke-linecap="round" stroke-linejoin="round"/>
<path d="M352.205 335.653C349.583 337.168 349.409 338.837 349.612 342.217C350.748 344.183 354.506 344.636 357.885 344.433C360.711 346.299 364.847 347.407 366.158 346.65C368.024 343.825 368.313 342.552 366.798 339.93M373.088 317.823C375.71 316.309 375.782 314.869 375.58 311.49C374.444 309.523 370.686 309.07 367.307 309.273C364.481 307.408 360.345 306.299 359.034 307.056C357.168 309.881 356.548 311.175 358.062 313.797" stroke="#02A2FF" stroke-opacity="0.15" stroke-width="3.53283" stroke-linecap="round" stroke-linejoin="round"/>
<path d="M278.137 395.263L300.256 401.067L299.837 404.047L277.347 400.885L277.083 402.759L299.573 405.921L298.256 415.292L275.766 412.13C275.289 415.522 275.922 418.765 277.61 421.85C279.298 424.935 281.709 427.357 284.837 429.173L284.376 432.453L299.369 434.561L299.83 431.281C303.318 430.395 306.326 428.716 308.796 426.235C311.266 423.753 312.772 420.792 313.249 417.4L307.626 416.61L309.734 401.617L278.401 393.389L278.137 395.263ZM307.628 403.002L307.333 405.101L305.459 404.838L305.78 402.551L307.628 403.002ZM307.07 406.975L305.752 416.346L303.878 416.083L305.196 406.712L307.07 406.975ZM300.13 415.556L301.447 406.185L303.321 406.448L302.004 415.819L300.13 415.556ZM301.711 404.311L302.093 401.593L303.943 402.025L303.585 404.574L301.711 404.311Z" fill="#02A2FF" fill-opacity="0.15"/>
<path d="M132.523 632.331C132.672 631.988 132.68 631.6 132.547 631.251C132.414 630.901 132.15 630.617 131.811 630.46C131.472 630.304 131.086 630.287 130.735 630.413C130.385 630.54 130.099 630.799 129.938 631.136L128.582 634.119L127.13 630.212C126.92 629.644 126.378 629.273 125.778 629.278L118.737 629.355C118.509 629.358 118.286 629.415 118.085 629.523C117.885 629.63 117.713 629.785 117.584 629.973C117.456 630.162 117.375 630.378 117.347 630.605C117.32 630.832 117.347 631.063 117.427 631.277L118.12 633.142L101.332 642.598C98.8709 643.938 97.9508 646.818 98.9513 649.512L100.804 654.501C101.805 657.197 104.382 658.778 107.102 658.19L126.011 654.392L126.703 656.255C126.782 656.47 126.912 656.662 127.081 656.816C127.25 656.97 127.453 657.081 127.673 657.14C127.893 657.199 128.124 657.204 128.347 657.155C128.569 657.105 128.776 657.003 128.95 656.856L134.334 652.319C134.559 652.13 134.719 651.875 134.793 651.591C134.868 651.306 134.853 651.005 134.75 650.729L129.987 637.904L132.523 632.331ZM119.125 635.85L125.005 651.684L106.514 655.394C105.215 655.675 103.991 654.925 103.466 653.512L101.612 648.52C101.088 647.107 101.525 645.74 102.712 645.095L119.125 635.85ZM124.818 632.142L131.737 650.774L128.66 653.366L120.794 632.185L124.818 632.142Z" fill="#02A2FF" fill-opacity="0.15"/>
<path d="M230.559 714.537C230.05 709.125 234.024 704.326 239.436 703.817C244.847 703.308 249.647 707.282 250.156 712.693C250.665 718.105 246.69 722.904 241.279 723.413C235.868 723.922 231.068 719.948 230.559 714.537Z" stroke="#02A2FF" stroke-opacity="0.15" stroke-width="3.53283" stroke-linecap="round" stroke-linejoin="round"/>
<path d="M227.244 717.285C224.23 717.568 223.376 719.014 222.152 722.171C222.365 724.432 225.593 726.409 228.749 727.633C230.54 730.506 233.839 733.237 235.346 733.096C238.219 731.305 239.012 730.268 238.728 727.253M253.658 709.779C256.672 709.495 257.338 708.216 258.562 705.059C258.349 702.798 255.122 700.821 251.965 699.597C250.174 696.724 246.876 693.992 245.368 694.134C242.495 695.925 241.392 696.842 241.676 699.857" stroke="#02A2FF" stroke-opacity="0.15" stroke-width="3.53283" stroke-linecap="round" stroke-linejoin="round"/>
<path d="M136.226 137.434C136.157 137.561 136.113 137.7 136.098 137.845C136.082 137.989 136.095 138.136 136.136 138.276C136.177 138.417 136.244 138.548 136.335 138.663C136.425 138.777 136.537 138.873 136.664 138.945L146.212 144.345L128.719 154.444L128.819 143.474C128.821 143.18 128.708 142.896 128.504 142.683C128.299 142.47 128.021 142.346 127.729 142.339C127.438 142.332 127.157 142.442 126.949 142.645C126.742 142.848 126.624 143.127 126.621 143.421L126.51 155.72L124.205 157.051C123.702 157.341 123.338 157.822 123.191 158.389C123.045 158.956 123.128 159.562 123.424 160.073L124.537 162.002C124.833 162.514 125.316 162.889 125.88 163.046C126.444 163.202 127.043 163.127 127.545 162.837L132.557 171.517C133.295 172.796 134.502 173.735 135.913 174.126C137.323 174.518 138.821 174.33 140.077 173.605L157.127 163.761C158.383 163.036 159.294 161.833 159.66 160.415C160.026 158.998 159.817 157.484 159.079 156.205L154.067 147.525C154.57 147.235 154.934 146.753 155.081 146.187C155.227 145.62 155.144 145.014 154.848 144.502L153.735 142.573C153.439 142.062 152.956 141.686 152.392 141.53C151.828 141.373 151.229 141.448 150.727 141.738L148.421 143.069L137.719 137.014C137.592 136.942 137.453 136.896 137.309 136.879C137.166 136.861 137.021 136.872 136.882 136.91C136.744 136.949 136.615 137.015 136.502 137.105C136.39 137.195 136.295 137.307 136.226 137.434ZM152.173 148.619L157.184 157.298C157.627 158.066 157.753 158.975 157.533 159.825C157.314 160.675 156.767 161.397 156.013 161.832L138.963 171.676C138.21 172.111 137.311 172.224 136.465 171.989C135.618 171.754 134.894 171.191 134.451 170.423L129.44 161.744L152.173 148.619ZM151.84 143.667L152.954 145.596L126.432 160.909L125.318 158.98L151.84 143.667ZM149.498 152.735C149.247 152.88 149.064 153.121 148.991 153.404C148.918 153.688 148.96 153.99 149.107 154.246L152.448 160.033C152.596 160.289 152.837 160.476 153.119 160.555C153.401 160.633 153.701 160.595 153.952 160.45C154.204 160.305 154.386 160.065 154.459 159.781C154.532 159.498 154.49 159.195 154.343 158.939L151.002 153.153C150.854 152.897 150.613 152.709 150.331 152.631C150.049 152.552 149.749 152.59 149.498 152.735ZM145.709 154.922C145.458 155.068 145.275 155.308 145.202 155.592C145.129 155.875 145.171 156.178 145.319 156.434L148.659 162.22C148.807 162.476 149.049 162.664 149.331 162.742C149.613 162.82 149.912 162.783 150.163 162.638C150.415 162.493 150.597 162.252 150.67 161.969C150.743 161.685 150.702 161.382 150.554 161.127L147.213 155.34C147.065 155.084 146.824 154.897 146.542 154.818C146.26 154.74 145.96 154.777 145.709 154.922ZM141.92 157.11C141.669 157.255 141.487 157.496 141.413 157.779C141.34 158.063 141.382 158.365 141.53 158.621L144.871 164.408C145.018 164.664 145.26 164.851 145.542 164.93C145.824 165.008 146.123 164.97 146.375 164.825C146.626 164.68 146.808 164.44 146.881 164.156C146.954 163.873 146.913 163.57 146.765 163.314L143.424 157.528C143.276 157.272 143.035 157.084 142.753 157.006C142.471 156.927 142.171 156.965 141.92 157.11ZM138.131 159.297C137.88 159.443 137.698 159.683 137.625 159.967C137.551 160.25 137.593 160.553 137.741 160.809L141.082 166.595C141.229 166.851 141.471 167.039 141.753 167.117C142.035 167.195 142.335 167.158 142.586 167.013C142.837 166.868 143.019 166.627 143.092 166.344C143.166 166.06 143.124 165.757 142.976 165.502L139.635 159.715C139.488 159.459 139.246 159.272 138.964 159.193C138.682 159.115 138.382 159.152 138.131 159.297ZM134.342 161.485C134.091 161.63 133.909 161.871 133.836 162.154C133.762 162.438 133.804 162.74 133.952 162.996L137.293 168.783C137.441 169.039 137.682 169.226 137.964 169.305C138.246 169.383 138.546 169.345 138.797 169.2C139.048 169.055 139.23 168.815 139.304 168.531C139.377 168.248 139.335 167.945 139.187 167.689L135.846 161.903C135.699 161.647 135.457 161.459 135.175 161.381C134.893 161.302 134.594 161.34 134.342 161.485Z" fill="#02A2FF" fill-opacity="0.15"/>
<path d="M25.5975 75.0985C20.3474 76.5052 14.9509 73.3896 13.5442 68.1395C12.1374 62.8894 15.2531 57.493 20.5032 56.0862C25.7532 54.6795 31.1497 57.7951 32.5564 63.0452C33.9632 68.2953 30.8476 73.6917 25.5975 75.0985Z" stroke="#02A2FF" stroke-opacity="0.15" stroke-width="3.53283" stroke-linecap="round" stroke-linejoin="round"/>
<path d="M28.8616 77.9069C29.6453 80.8318 31.2132 81.4313 34.53 82.1101C36.7237 81.5223 38.1337 78.0095 38.8125 74.6927C41.3456 72.4464 43.4868 68.7377 43.0949 67.2753C40.8487 64.7422 39.6941 64.1339 36.7692 64.9176M17.0438 53.121C16.2601 50.196 14.8878 49.7536 11.5709 49.0749C9.37721 49.6627 7.96723 53.1755 7.28849 56.4923C4.7554 58.7385 2.61418 62.4472 3.00605 63.9097C5.25227 66.4428 6.3407 67.3769 9.26566 66.5932" stroke="#02A2FF" stroke-opacity="0.15" stroke-width="3.53283" stroke-linecap="round" stroke-linejoin="round"/>
<path d="M284.369 110.135C284.059 109.926 283.679 109.847 283.311 109.914C282.943 109.981 282.616 110.189 282.4 110.494C282.184 110.799 282.097 111.175 282.157 111.543C282.218 111.91 282.421 112.239 282.723 112.458L285.409 114.336L281.302 115.05C280.706 115.154 280.242 115.619 280.138 116.21L278.93 123.147C278.891 123.371 278.906 123.602 278.976 123.818C279.045 124.035 279.165 124.232 279.327 124.393C279.489 124.554 279.687 124.673 279.906 124.741C280.124 124.81 280.355 124.825 280.581 124.785L282.54 124.444L288.778 142.674C289.647 145.339 292.311 146.768 295.142 146.276L300.385 145.364C303.218 144.871 305.243 142.626 305.161 139.843L304.873 120.559L306.831 120.218C307.057 120.179 307.269 120.087 307.452 119.949C307.634 119.811 307.78 119.632 307.878 119.426C307.976 119.22 308.023 118.994 308.015 118.766C308.007 118.539 307.944 118.317 307.832 118.119L304.352 111.997C304.207 111.742 303.986 111.538 303.72 111.413C303.454 111.288 303.155 111.248 302.864 111.299L289.386 113.644L284.369 110.135ZM285.387 123.949L302.027 121.054L302.304 139.912C302.343 141.241 301.383 142.307 299.898 142.566L294.652 143.478C293.166 143.737 291.903 143.057 291.484 141.773L285.387 123.949ZM282.779 117.676L302.359 114.27L304.347 117.768L282.087 121.64L282.779 117.676Z" fill="#02A2FF" fill-opacity="0.15"/>
<path d="M354.648 42.7859L375.194 52.8232L374.198 55.6627L352.768 48.1434L352.141 49.9293L373.571 57.4486L370.438 66.3778L349.008 58.8585C347.874 62.0909 347.858 65.3947 348.907 68.7511C349.955 72.1076 351.844 74.9565 354.554 77.3514L353.457 80.4766L367.744 85.4895L368.84 82.3643C372.435 82.1813 375.713 81.1255 378.623 79.1779C381.533 77.2304 383.591 74.6231 384.725 71.3907L379.368 69.5109L384.38 55.2241L355.274 41L354.648 42.7859ZM382.043 56.169L381.341 58.1692L379.556 57.5426L380.32 55.3638L382.043 56.169ZM380.715 59.955L377.582 68.8843L375.796 68.2577L378.929 59.3284L380.715 59.955ZM372.224 67.0044L375.357 58.0752L377.143 58.7018L374.01 67.631L372.224 67.0044ZM375.984 56.2893L376.892 53.6999L378.622 54.4872L377.77 56.916L375.984 56.2893Z" fill="#02A2FF" fill-opacity="0.15"/>
<path d="M114.169 18.8003L136.988 17.3117L137.533 20.2712L115.197 24.3842L115.54 26.2455L137.876 22.1325L139.589 31.4389L117.254 35.552C117.874 38.9209 119.501 41.7967 122.077 44.1895C124.654 46.5824 127.708 48.1177 131.249 48.8511L131.849 52.1084L146.74 49.3664L146.14 46.1091C149.169 44.1657 151.491 41.6213 153.049 38.4862C154.608 35.351 155.1 32.0659 154.48 28.6969L148.896 29.7252L146.154 14.8348L113.826 16.939L114.169 18.8003ZM144.594 16.8155L144.978 18.9002L143.117 19.2429L142.699 16.9721L144.594 16.8155ZM145.321 20.7615L147.035 30.0679L145.173 30.4107L143.46 21.1042L145.321 20.7615ZM141.451 31.0962L139.737 21.7897L141.598 21.447L143.312 30.7534L141.451 31.0962ZM139.394 19.9284L138.897 17.2295L140.789 17.0543L141.255 19.5857L139.394 19.9284Z" fill="#02A2FF" fill-opacity="0.15"/>
<path d="M230.559 21.5365C230.05 16.1251 234.024 11.3257 239.436 10.8168C244.847 10.3078 249.647 14.2821 250.156 19.6935C250.665 25.1049 246.69 29.9043 241.279 30.4132C235.868 30.9222 231.068 26.9479 230.559 21.5365Z" stroke="#02A2FF" stroke-opacity="0.15" stroke-width="3.53283" stroke-linecap="round" stroke-linejoin="round"/>
<path d="M227.244 24.2848C224.23 24.5684 223.376 26.0139 222.152 29.1705C222.365 31.4317 225.593 33.4093 228.749 34.6331C230.54 37.5062 233.839 40.2375 235.346 40.0957C238.219 38.3047 239.012 37.2682 238.728 34.2533M253.658 16.7786C256.672 16.4951 257.338 15.216 258.562 12.0594C258.349 9.7983 255.122 7.82071 251.965 6.59684C250.174 3.72378 246.876 0.992488 245.368 1.13426C242.495 2.92523 241.392 3.84211 241.676 6.85695" stroke="#02A2FF" stroke-opacity="0.15" stroke-width="3.53283" stroke-linecap="round" stroke-linejoin="round"/>
<path d="M11.4009 570.952L33.6203 565.547L34.6679 568.368L13.3775 576.274L14.0364 578.048L35.3268 570.142L38.6211 579.013L17.3307 586.919C18.5232 590.131 20.6217 592.683 23.5727 594.595C26.5238 596.507 29.7968 597.492 33.4115 597.603L34.5646 600.708L48.7582 595.437L47.6052 592.332C50.2534 589.895 52.1012 586.988 53.0954 583.631C54.0897 580.274 54.0073 576.953 52.8147 573.742L47.4921 575.719L42.2212 561.525L10.742 569.177L11.4009 570.952ZM41.0268 563.745L41.7647 565.732L39.9905 566.391L39.1867 564.227L41.0268 563.745ZM42.4236 567.506L45.7179 576.377L43.9437 577.036L40.6494 568.165L42.4236 567.506ZM40.3953 578.354L37.101 569.483L38.8752 568.824L42.1695 577.695L40.3953 578.354ZM36.4421 567.709L35.4868 565.136L37.3203 564.637L38.2163 567.05L36.4421 567.709Z" fill="#02A2FF" fill-opacity="0.15"/>
</svg>
