<svg width="475" height="924" viewBox="0 0 475 924" fill="none" xmlns="http://www.w3.org/2000/svg">
<path d="M236.017 189.956C236.157 189.922 236.303 189.916 236.447 189.938C236.591 189.961 236.729 190.011 236.854 190.087C236.979 190.163 237.088 190.262 237.176 190.379C237.263 190.496 237.327 190.629 237.363 190.77L240.108 201.391L254.391 187.108L243.769 184.365C243.484 184.291 243.238 184.108 243.086 183.855C242.933 183.603 242.886 183.302 242.954 183.018C243.023 182.735 243.202 182.493 243.452 182.344C243.701 182.196 244.002 182.154 244.286 182.228L256.194 185.304L258.077 183.422C258.487 183.011 259.046 182.784 259.632 182.789C260.217 182.794 260.781 183.032 261.198 183.45L262.773 185.025C263.191 185.442 263.429 186.006 263.434 186.591C263.439 187.177 263.212 187.736 262.801 188.146L269.888 195.233C270.933 196.278 271.527 197.686 271.54 199.15C271.553 200.614 270.984 202.012 269.959 203.038L256.038 216.959C255.012 217.984 253.614 218.553 252.15 218.54C250.686 218.527 249.278 217.933 248.233 216.888L241.146 209.801C240.736 210.212 240.177 210.439 239.591 210.434C239.006 210.429 238.442 210.191 238.025 209.773L236.45 208.198C236.032 207.781 235.794 207.217 235.789 206.632C235.784 206.046 236.011 205.487 236.422 205.077L238.304 203.194L235.225 191.289C235.189 191.148 235.18 191.002 235.2 190.859C235.22 190.716 235.268 190.578 235.341 190.455C235.415 190.331 235.512 190.223 235.628 190.138C235.743 190.053 235.877 189.99 236.017 189.956ZM242.693 208.255L249.78 215.342C250.407 215.968 251.252 216.325 252.13 216.333C253.008 216.34 253.847 215.999 254.463 215.384L268.384 201.463C268.999 200.847 269.34 200.008 269.333 199.13C269.325 198.252 268.968 197.407 268.342 196.78L261.255 189.693L242.693 208.255ZM237.996 206.652L239.571 208.226L261.226 186.571L259.652 184.996L237.996 206.652ZM247.362 206.736C247.567 206.531 247.846 206.417 248.139 206.42C248.432 206.422 248.714 206.541 248.922 206.75L253.647 211.475C253.856 211.684 253.975 211.965 253.977 212.258C253.98 212.551 253.866 212.83 253.661 213.036C253.456 213.241 253.176 213.354 252.884 213.352C252.591 213.349 252.309 213.23 252.1 213.021L247.376 208.297C247.167 208.088 247.048 207.806 247.045 207.513C247.043 207.221 247.156 206.941 247.362 206.736ZM250.455 203.642C250.66 203.437 250.94 203.323 251.233 203.326C251.525 203.329 251.807 203.448 252.016 203.656L256.741 208.381C256.95 208.59 257.068 208.872 257.071 209.164C257.074 209.457 256.96 209.737 256.755 209.942C256.55 210.147 256.27 210.261 255.977 210.258C255.685 210.256 255.403 210.137 255.194 209.928L250.469 205.203C250.26 204.994 250.142 204.713 250.139 204.42C250.136 204.127 250.25 203.847 250.455 203.642ZM253.549 200.549C253.754 200.344 254.034 200.23 254.326 200.232C254.619 200.235 254.901 200.354 255.11 200.563L259.834 205.287C260.043 205.496 260.162 205.778 260.165 206.071C260.167 206.364 260.053 206.643 259.848 206.848C259.643 207.053 259.364 207.167 259.071 207.165C258.778 207.162 258.496 207.043 258.287 206.834L253.563 202.11C253.354 201.901 253.235 201.619 253.232 201.326C253.23 201.034 253.344 200.754 253.549 200.549ZM256.642 197.455C256.847 197.25 257.127 197.136 257.42 197.139C257.713 197.142 257.994 197.26 258.203 197.469L262.928 202.194C263.137 202.403 263.256 202.685 263.258 202.977C263.261 203.27 263.147 203.55 262.942 203.755C262.737 203.96 262.457 204.074 262.164 204.071C261.872 204.068 261.59 203.95 261.381 203.741L256.656 199.016C256.448 198.807 256.329 198.525 256.326 198.233C256.323 197.94 256.437 197.66 256.642 197.455ZM259.736 194.362C259.941 194.156 260.221 194.043 260.513 194.045C260.806 194.048 261.088 194.167 261.297 194.376L266.021 199.1C266.23 199.309 266.349 199.591 266.352 199.884C266.354 200.176 266.241 200.456 266.036 200.661C265.83 200.866 265.551 200.98 265.258 200.977C264.965 200.975 264.684 200.856 264.475 200.647L259.75 195.922C259.541 195.714 259.422 195.432 259.42 195.139C259.417 194.846 259.531 194.567 259.736 194.362Z" fill="white" fill-opacity="0.4"/>
<path d="M392.719 180.707C392.726 180.334 392.88 179.977 393.146 179.715C393.413 179.452 393.772 179.305 394.145 179.303C394.519 179.302 394.877 179.448 395.142 179.709C395.408 179.97 395.56 180.325 395.566 180.698L395.556 183.975L398.503 181.027C398.931 180.599 399.579 180.488 400.122 180.743L406.49 183.746C406.696 183.844 406.875 183.989 407.013 184.17C407.151 184.352 407.242 184.564 407.281 184.789C407.319 185.013 407.302 185.244 407.233 185.462C407.163 185.68 407.042 185.878 406.88 186.039L405.474 187.446L416.794 203.038C418.472 205.282 418.109 208.283 416.077 210.315L412.314 214.078C410.28 216.112 407.279 216.475 405.051 214.807L389.445 203.475L388.039 204.88C387.878 205.042 387.68 205.163 387.462 205.233C387.244 205.302 387.013 205.319 386.789 205.281C386.564 205.242 386.352 205.151 386.17 205.013C385.989 204.875 385.844 204.696 385.746 204.49L382.743 198.122C382.617 197.856 382.578 197.559 382.629 197.269C382.68 196.979 382.819 196.712 383.027 196.503L392.701 186.829L392.719 180.707ZM403.431 189.489L391.488 201.432L406.751 212.51C407.815 213.307 409.239 213.136 410.305 212.07L414.071 208.304C415.137 207.238 415.308 205.813 414.499 204.732L403.431 189.489ZM399.801 183.746L385.748 197.8L387.464 201.439L403.441 185.462L399.801 183.746Z" fill="white" fill-opacity="0.4"/>
<path d="M82.7539 183.532L65.9348 199.025L67.7013 201.461L86.087 188.129L87.1981 189.661L68.8124 202.993L74.3677 210.654L92.7533 197.321C94.7644 200.095 95.7243 203.256 95.6791 206.772C95.6339 210.288 94.6386 213.558 92.7267 216.628L94.671 219.309L82.4139 228.198L80.4696 225.516C76.973 226.369 73.5293 226.294 70.1842 225.26C66.8392 224.226 64.1215 222.316 62.1105 219.542L66.7069 216.209L57.8185 203.952L81.6428 182L82.7539 183.532ZM60.3284 204.189L61.5728 205.905L63.1049 204.794L61.7494 202.925L60.3284 204.189ZM62.6838 207.438L68.2391 215.098L69.7712 213.987L64.216 206.326L62.6838 207.438ZM72.8355 211.765L67.2803 204.104L65.7481 205.215L71.3034 212.876L72.8355 211.765ZM66.1692 202.572L64.5582 200.351L63.126 201.6L64.6371 203.683L66.1692 202.572Z" fill="white" fill-opacity="0.4"/>
<path d="M381.33 73.774C378.613 69.0669 380.225 63.048 384.932 60.3304C389.64 57.6127 395.658 59.2255 398.376 63.9326C401.094 68.6397 399.481 74.6586 394.774 77.3763C390.067 80.0939 384.048 78.4811 381.33 73.774Z" stroke="white" stroke-opacity="0.4" stroke-width="4" stroke-linecap="round" stroke-linejoin="round"/>
<path d="M379.463 77.6535C376.84 79.1676 376.667 80.8372 376.87 84.2167C378.005 86.1835 381.763 86.6363 385.143 86.4335C387.968 88.2989 392.105 89.4072 393.416 88.6502C395.281 85.8249 395.57 84.5523 394.056 81.9298M400.345 59.8234C402.968 58.3093 403.04 56.8693 402.837 53.4898C401.701 51.523 397.943 51.0702 394.564 51.273C391.739 49.4076 387.602 48.2992 386.291 49.0563C384.425 51.8816 383.805 53.1747 385.319 55.7971" stroke="white" stroke-opacity="0.4" stroke-width="4" stroke-linecap="round" stroke-linejoin="round"/>
<path d="M76.7264 73.6855C71.4763 75.0922 66.0798 71.9766 64.6731 66.7265C63.2663 61.4764 66.382 56.08 71.6321 54.6732C76.8821 53.2665 82.2786 56.3821 83.6853 61.6322C85.0921 66.8823 81.9765 72.2787 76.7264 73.6855Z" stroke="white" stroke-opacity="0.4" stroke-width="4" stroke-linecap="round" stroke-linejoin="round"/>
<path d="M79.9905 76.4938C80.7742 79.4187 82.3421 80.0182 85.6589 80.697C87.8526 80.1092 89.2626 76.5964 89.9414 73.2796C92.4745 71.0334 94.6157 67.3247 94.2238 65.8622C91.9776 63.3291 90.823 62.7208 87.8981 63.5046M68.1727 51.7079C67.389 48.7829 66.0167 48.3405 62.6998 47.6618C60.5061 48.2496 59.0961 51.7624 58.4174 55.0792C55.8843 57.3254 53.7431 61.0341 54.135 62.4966C56.3812 65.0297 57.4696 65.9638 60.3946 65.1801" stroke="white" stroke-opacity="0.4" stroke-width="4" stroke-linecap="round" stroke-linejoin="round"/>
<path d="M165.626 111.135C165.317 110.926 164.937 110.847 164.569 110.914C164.201 110.981 163.873 111.189 163.658 111.494C163.442 111.799 163.355 112.175 163.415 112.543C163.476 112.91 163.679 113.239 163.981 113.458L166.666 115.336L162.56 116.05C161.963 116.154 161.5 116.619 161.396 117.21L160.188 124.147C160.149 124.371 160.164 124.602 160.233 124.818C160.303 125.035 160.423 125.232 160.585 125.393C160.747 125.554 160.945 125.673 161.163 125.741C161.382 125.81 161.613 125.825 161.838 125.785L163.798 125.444L170.036 143.674C170.905 146.339 173.568 147.768 176.4 147.276L181.643 146.364C184.476 145.871 186.501 143.626 186.418 140.843L186.131 121.559L188.089 121.218C188.314 121.179 188.527 121.087 188.709 120.949C188.892 120.811 189.038 120.632 189.136 120.426C189.234 120.22 189.281 119.994 189.273 119.766C189.265 119.539 189.202 119.317 189.09 119.119L185.61 112.997C185.465 112.742 185.244 112.538 184.978 112.413C184.711 112.288 184.413 112.248 184.122 112.299L170.644 114.644L165.626 111.135ZM166.645 124.949L183.285 122.054L183.561 140.912C183.601 142.241 182.641 143.307 181.156 143.566L175.909 144.478C174.424 144.737 173.16 144.057 172.742 142.773L166.645 124.949ZM164.037 118.676L183.617 115.27L185.605 118.768L163.345 122.64L164.037 118.676Z" fill="white" fill-opacity="0.4"/>
<path d="M262.905 29.7858L283.452 39.8232L282.456 42.6627L261.026 35.1434L260.399 36.9292L281.829 44.4486L278.696 53.3778L257.266 45.8585C256.132 49.0909 256.116 52.3947 257.164 55.7511C258.213 59.1076 260.102 61.9565 262.812 64.3514L261.715 67.4766L276.002 72.4895L277.098 69.3643C280.693 69.1813 283.971 68.1255 286.881 66.1779C289.791 64.2304 291.849 61.6231 292.983 58.3907L287.625 56.5109L292.638 42.2241L263.532 28L262.905 29.7858ZM290.301 43.169L289.599 45.1692L287.813 44.5425L288.578 42.3638L290.301 43.169ZM288.973 46.955L285.84 55.8842L284.054 55.2576L287.187 46.3284L288.973 46.955ZM280.482 54.0044L283.615 45.0752L285.401 45.7018L282.268 54.631L280.482 54.0044ZM284.242 43.2893L285.15 40.6998L286.88 41.4872L286.027 43.9159L284.242 43.2893Z" fill="white" fill-opacity="0.4"/>
<path d="M211.356 450.417C211.215 450.451 211.069 450.457 210.926 450.434C210.782 450.412 210.644 450.361 210.519 450.285C210.394 450.21 210.284 450.111 210.197 449.993C210.109 449.876 210.046 449.743 210.009 449.602L207.265 438.982L192.982 453.265L203.604 456.008C203.889 456.081 204.134 456.265 204.287 456.517C204.44 456.77 204.487 457.071 204.418 457.354C204.35 457.637 204.171 457.88 203.921 458.028C203.671 458.176 203.371 458.218 203.086 458.144L191.178 455.069L189.296 456.951C188.886 457.361 188.326 457.589 187.741 457.583C187.155 457.578 186.592 457.341 186.174 456.923L184.599 455.348C184.182 454.93 183.944 454.367 183.939 453.781C183.933 453.196 184.161 452.637 184.571 452.226L177.484 445.139C176.44 444.095 175.846 442.686 175.833 441.223C175.819 439.759 176.388 438.361 177.414 437.335L191.335 423.414C192.361 422.388 193.759 421.819 195.223 421.833C196.686 421.846 198.095 422.44 199.139 423.484L206.226 430.571C206.637 430.161 207.196 429.933 207.781 429.939C208.367 429.944 208.93 430.182 209.348 430.599L210.923 432.174C211.341 432.592 211.578 433.155 211.584 433.741C211.589 434.326 211.361 434.886 210.951 435.296L209.069 437.178L212.147 449.083C212.184 449.224 212.193 449.37 212.173 449.514C212.153 449.657 212.105 449.794 212.031 449.918C211.958 450.042 211.861 450.149 211.745 450.234C211.629 450.32 211.496 450.383 211.356 450.417ZM204.68 432.118L197.592 425.031C196.966 424.404 196.121 424.048 195.242 424.04C194.364 424.032 193.525 424.373 192.91 424.989L178.989 438.91C178.373 439.525 178.032 440.364 178.04 441.242C178.048 442.121 178.404 442.966 179.031 443.592L186.118 450.68L204.68 432.118ZM209.376 433.721L207.801 432.146L186.146 453.801L187.721 455.376L209.376 433.721ZM200.011 433.637C199.806 433.842 199.526 433.956 199.234 433.953C198.941 433.95 198.659 433.831 198.45 433.623L193.725 428.898C193.517 428.689 193.398 428.407 193.395 428.115C193.393 427.822 193.506 427.542 193.711 427.337C193.917 427.132 194.196 427.018 194.489 427.021C194.782 427.023 195.063 427.142 195.272 427.351L199.997 432.076C200.206 432.285 200.325 432.566 200.327 432.859C200.33 433.152 200.216 433.432 200.011 433.637ZM196.917 436.73C196.712 436.935 196.433 437.049 196.14 437.046C195.847 437.044 195.565 436.925 195.357 436.716L190.632 431.991C190.423 431.783 190.304 431.501 190.302 431.208C190.299 430.915 190.413 430.636 190.618 430.431C190.823 430.225 191.103 430.112 191.395 430.114C191.688 430.117 191.97 430.236 192.179 430.445L196.903 435.169C197.112 435.378 197.231 435.66 197.234 435.953C197.236 436.245 197.123 436.525 196.917 436.73ZM193.824 439.824C193.619 440.029 193.339 440.143 193.046 440.14C192.754 440.137 192.472 440.019 192.263 439.81L187.538 435.085C187.329 434.876 187.211 434.594 187.208 434.302C187.205 434.009 187.319 433.729 187.524 433.524C187.729 433.319 188.009 433.205 188.302 433.208C188.594 433.211 188.876 433.329 189.085 433.538L193.81 438.263C194.019 438.472 194.137 438.754 194.14 439.046C194.143 439.339 194.029 439.619 193.824 439.824ZM190.73 442.917C190.525 443.123 190.245 443.236 189.953 443.234C189.66 443.231 189.378 443.112 189.169 442.903L184.445 438.179C184.236 437.97 184.117 437.688 184.114 437.395C184.112 437.103 184.225 436.823 184.431 436.618C184.636 436.413 184.915 436.299 185.208 436.302C185.501 436.304 185.783 436.423 185.991 436.632L190.716 441.357C190.925 441.565 191.044 441.847 191.046 442.14C191.049 442.433 190.935 442.712 190.73 442.917ZM187.637 446.011C187.432 446.216 187.152 446.33 186.859 446.327C186.566 446.325 186.285 446.206 186.076 445.997L181.351 441.272C181.142 441.063 181.023 440.782 181.021 440.489C181.018 440.196 181.132 439.916 181.337 439.711C181.542 439.506 181.822 439.393 182.115 439.395C182.407 439.398 182.689 439.517 182.898 439.725L187.623 444.45C187.831 444.659 187.95 444.941 187.953 445.233C187.956 445.526 187.842 445.806 187.637 446.011Z" fill="white" fill-opacity="0.4"/>
<path d="M97.5303 319.157C97.523 319.53 97.3694 319.887 97.1026 320.149C96.8358 320.412 96.4771 320.559 96.1037 320.56C95.7304 320.562 95.3723 320.416 95.1066 320.155C94.8409 319.894 94.6888 319.539 94.6831 319.166L94.693 315.889L91.7456 318.837C91.3176 319.264 90.6703 319.376 90.1273 319.121L83.7589 316.118C83.5529 316.02 83.3736 315.875 83.236 315.693C83.0985 315.512 83.0067 315.3 82.9685 315.075C82.9303 314.85 82.9467 314.619 83.0163 314.402C83.086 314.184 83.2069 313.986 83.3688 313.824L84.7753 312.418L73.4554 296.826C71.7766 294.582 72.1401 291.581 74.1724 289.549L77.9354 285.786C79.969 283.752 82.9701 283.389 85.1981 285.057L100.804 296.389L102.21 294.984C102.371 294.822 102.569 294.701 102.787 294.631C103.005 294.562 103.236 294.545 103.46 294.583C103.685 294.622 103.897 294.713 104.079 294.851C104.26 294.988 104.405 295.168 104.503 295.374L107.506 301.742C107.632 302.007 107.671 302.305 107.621 302.595C107.57 302.885 107.43 303.152 107.222 303.36L97.5476 313.034L97.5303 319.157ZM86.8183 310.375L98.7615 298.432L83.4981 287.354C82.4343 286.557 81.0096 286.728 79.9437 287.794L76.178 291.56C75.1121 292.626 74.9406 294.051 75.7499 295.132L86.8183 310.375ZM90.4478 316.118L104.501 302.064L102.785 298.425L86.8078 314.402L90.4478 316.118Z" fill="white" fill-opacity="0.4"/>
<path d="M407.495 316.332L424.314 300.839L422.548 298.403L404.162 311.735L403.051 310.203L421.437 296.871L415.881 289.21L397.496 302.542C395.485 299.769 394.525 296.608 394.57 293.092C394.615 289.576 395.61 286.306 397.522 283.236L395.578 280.555L407.835 271.666L409.779 274.348C413.276 273.495 416.72 273.57 420.065 274.604C423.41 275.638 426.127 277.548 428.138 280.321L423.542 283.655L432.43 295.912L408.606 317.864L407.495 316.332ZM429.921 295.674L428.676 293.958L427.144 295.07L428.5 296.939L429.921 295.674ZM427.565 292.426L422.01 284.766L420.478 285.877L426.033 293.537L427.565 292.426ZM417.414 288.099L422.969 295.759L424.501 294.648L418.946 286.988L417.414 288.099ZM424.08 297.292L425.691 299.513L427.123 298.264L425.612 296.181L424.08 297.292Z" fill="white" fill-opacity="0.4"/>
<path d="M235.919 294.09C238.636 298.797 237.024 304.816 232.317 307.534C227.609 310.251 221.591 308.638 218.873 303.931C216.155 299.224 217.768 293.205 222.475 290.488C227.182 287.77 233.201 289.383 235.919 294.09Z" stroke="white" stroke-opacity="0.4" stroke-width="4" stroke-linecap="round" stroke-linejoin="round"/>
<path d="M237.786 290.21C240.409 288.696 240.582 287.027 240.379 283.647C239.244 281.68 235.486 281.228 232.106 281.43C229.281 279.565 225.145 278.457 223.833 279.214C221.968 282.039 221.679 283.312 223.193 285.934M216.904 308.04C214.281 309.555 214.209 310.995 214.412 314.374C215.548 316.341 219.306 316.794 222.685 316.591C225.51 318.456 229.647 319.565 230.958 318.808C232.824 315.982 233.444 314.689 231.93 312.067" stroke="white" stroke-opacity="0.4" stroke-width="4" stroke-linecap="round" stroke-linejoin="round"/>
<path d="M413.523 426.178C418.773 424.772 424.169 427.887 425.576 433.137C426.983 438.387 423.867 443.784 418.617 445.191C413.367 446.597 407.97 443.482 406.564 438.232C405.157 432.982 408.273 427.585 413.523 426.178Z" stroke="white" stroke-opacity="0.4" stroke-width="4" stroke-linecap="round" stroke-linejoin="round"/>
<path d="M410.259 423.37C409.475 420.445 407.907 419.846 404.59 419.167C402.396 419.755 400.986 423.267 400.308 426.584C397.775 428.831 395.633 432.539 396.025 434.002C398.271 436.535 399.426 437.143 402.351 436.359M422.076 448.156C422.86 451.081 424.232 451.523 427.549 452.202C429.743 451.614 431.153 448.102 431.832 444.785C434.365 442.538 436.506 438.83 436.114 437.367C433.868 434.834 432.779 433.9 429.854 434.684" stroke="white" stroke-opacity="0.4" stroke-width="4" stroke-linecap="round" stroke-linejoin="round"/>
<path d="M324.623 388.729C324.932 388.938 325.312 389.017 325.68 388.95C326.048 388.883 326.376 388.675 326.591 388.37C326.807 388.065 326.894 387.689 326.834 387.321C326.773 386.954 326.57 386.625 326.268 386.405L323.583 384.528L327.689 383.813C328.286 383.71 328.749 383.245 328.853 382.654L330.062 375.717C330.101 375.493 330.085 375.262 330.016 375.045C329.946 374.829 329.826 374.631 329.664 374.471C329.502 374.31 329.304 374.191 329.086 374.122C328.867 374.054 328.636 374.039 328.411 374.078L326.451 374.419L320.214 356.189C319.344 353.525 316.681 352.095 313.849 352.588L308.606 353.5C305.773 353.993 303.748 356.238 303.831 359.02L304.118 378.305L302.16 378.645C301.935 378.684 301.722 378.777 301.54 378.915C301.357 379.053 301.211 379.232 301.113 379.438C301.015 379.644 300.968 379.87 300.976 380.098C300.984 380.325 301.047 380.547 301.159 380.745L304.639 386.866C304.784 387.122 305.005 387.326 305.271 387.451C305.538 387.576 305.836 387.616 306.127 387.565L319.605 385.22L324.623 388.729ZM323.605 374.915L306.964 377.81L306.688 358.952C306.648 357.623 307.608 356.557 309.093 356.298L314.34 355.386C315.825 355.127 317.089 355.807 317.507 357.091L323.605 374.915ZM326.212 381.188L306.632 384.594L304.644 381.096L326.904 377.223L326.212 381.188Z" fill="white" fill-opacity="0.4"/>
<path d="M68.8653 423.058L86.2579 437.905L84.5847 440.406L65.7083 427.778L64.6559 429.351L83.5324 441.979L78.2706 449.844L59.3941 437.216C57.4894 440.063 56.6496 443.258 56.8277 446.77C57.0058 450.282 58.1239 453.512 60.1504 456.507L58.3088 459.26L70.8931 467.679L72.7347 464.926C76.261 465.646 79.6995 465.441 83.003 464.281C86.3066 463.121 88.9501 461.11 90.8549 458.263L86.1358 455.106L94.5546 442.521L69.9177 421.485L68.8653 423.058ZM92.0555 442.853L90.8769 444.615L89.3038 443.563L90.5877 441.644L92.0555 442.853ZM89.8245 446.188L84.5627 454.053L82.9897 453.001L88.2515 445.136L89.8245 446.188ZM79.8436 450.896L85.1054 443.031L86.6784 444.084L81.4167 451.949L79.8436 450.896ZM86.1577 441.458L87.6837 439.177L89.162 440.371L87.7308 442.51L86.1577 441.458Z" fill="white" fill-opacity="0.4"/>
<path d="M69.8877 677.547C70.0207 677.603 70.1417 677.686 70.2437 677.789C70.3457 677.893 70.4268 678.015 70.4824 678.151C70.5379 678.286 70.5668 678.431 70.5673 678.577C70.5679 678.723 70.5401 678.868 70.4857 679.003L66.3746 689.173L86.352 686.186L79.4445 677.664C79.2596 677.435 79.1711 677.142 79.1986 676.848C79.226 676.554 79.3671 676.284 79.5908 676.097C79.8145 675.91 80.1025 675.821 80.3915 675.851C80.6804 675.88 80.9466 676.025 81.1316 676.254L88.8746 685.809L91.5075 685.416C92.0813 685.33 92.6663 685.48 93.1338 685.832C93.6013 686.185 93.9129 686.711 94.0003 687.295L94.3295 689.498C94.4169 690.082 94.2727 690.676 93.9287 691.15C93.5847 691.624 93.0691 691.938 92.4954 692.024L93.9771 701.937C94.1954 703.397 93.8349 704.883 92.975 706.067C92.1151 707.252 90.8261 708.038 89.3916 708.252L69.9204 711.163C68.486 711.377 67.0235 711.002 65.8548 710.121C64.6861 709.24 63.9069 707.925 63.6886 706.464L62.2069 696.552C61.6331 696.637 61.0481 696.488 60.5806 696.135C60.1132 695.783 59.8015 695.256 59.7141 694.672L59.3849 692.469C59.2975 691.885 59.4417 691.291 59.7857 690.817C60.1297 690.343 60.6453 690.029 61.2191 689.943L63.852 689.55L68.458 678.148C68.5124 678.013 68.5926 677.891 68.6938 677.787C68.795 677.684 68.9153 677.602 69.0479 677.546C69.1804 677.491 69.3226 677.462 69.4663 677.462C69.6101 677.462 69.7547 677.491 69.8877 677.547ZM64.3703 696.228L65.8521 706.141C65.9831 707.017 66.4506 707.806 67.1518 708.335C67.853 708.864 68.7305 709.088 69.5912 708.96L89.0623 706.049C89.923 705.921 90.6964 705.449 91.2124 704.738C91.7283 704.028 91.9446 703.136 91.8136 702.26L90.3319 692.347L64.3703 696.228ZM61.5483 692.146L61.8776 694.349L92.1661 689.821L91.8368 687.618L61.5483 692.146ZM69.0265 697.784C69.3134 697.741 69.6059 697.816 69.8397 697.992C70.0734 698.169 70.2292 698.432 70.2729 698.724L71.2607 705.332C71.3044 705.624 71.2323 705.921 71.0603 706.158C70.8883 706.395 70.6305 706.552 70.3436 706.595C70.0567 706.638 69.7643 706.563 69.5305 706.387C69.2968 706.211 69.1409 705.948 69.0973 705.656L68.1094 699.047C68.0658 698.755 68.1379 698.458 68.3099 698.221C68.4818 697.984 68.7396 697.827 69.0265 697.784ZM73.3535 697.137C73.6404 697.094 73.9328 697.169 74.1666 697.346C74.4003 697.522 74.5562 697.785 74.5998 698.077L75.5877 704.685C75.6313 704.977 75.5592 705.275 75.3872 705.512C75.2152 705.748 74.9575 705.906 74.6706 705.948C74.3837 705.991 74.0912 705.916 73.8574 705.74C73.6237 705.564 73.4679 705.301 73.4242 705.009L72.4364 698.4C72.3927 698.108 72.4648 697.811 72.6368 697.574C72.8088 697.337 73.0666 697.18 73.3535 697.137ZM77.6804 696.491C77.9673 696.448 78.2598 696.523 78.4935 696.699C78.7272 696.875 78.8831 697.138 78.9268 697.43L79.9146 704.039C79.9582 704.331 79.8862 704.628 79.7142 704.865C79.5422 705.102 79.2844 705.259 78.9975 705.302C78.7106 705.345 78.4181 705.27 78.1844 705.093C77.9506 704.917 77.7948 704.654 77.7511 704.362L76.7633 697.754C76.7196 697.462 76.7917 697.164 76.9637 696.927C77.1357 696.691 77.3935 696.533 77.6804 696.491ZM82.0073 695.844C82.2942 695.801 82.5867 695.876 82.8204 696.052C83.0542 696.228 83.21 696.491 83.2537 696.783L84.2415 703.392C84.2852 703.684 84.2131 703.981 84.0411 704.218C83.8691 704.455 83.6113 704.612 83.3244 704.655C83.0375 704.698 82.745 704.623 82.5113 704.447C82.2775 704.27 82.1217 704.007 82.078 703.715L81.0902 697.107C81.0466 696.815 81.1186 696.518 81.2906 696.281C81.4626 696.044 81.7204 695.887 82.0073 695.844ZM86.3342 695.197C86.6211 695.154 86.9136 695.229 87.1474 695.405C87.3811 695.581 87.5369 695.845 87.5806 696.137L88.5684 702.745C88.6121 703.037 88.54 703.334 88.368 703.571C88.196 703.808 87.9382 703.965 87.6513 704.008C87.3644 704.051 87.072 703.976 86.8382 703.8C86.6045 703.624 86.4486 703.361 86.405 703.068L85.4171 696.46C85.3735 696.168 85.4456 695.871 85.6176 695.634C85.7895 695.397 86.0473 695.24 86.3342 695.197Z" fill="white" fill-opacity="0.4"/>
<path d="M235.59 855.211C235.507 855.33 235.402 855.431 235.28 855.51C235.157 855.588 235.02 855.642 234.876 855.668C234.733 855.694 234.585 855.693 234.442 855.663C234.299 855.633 234.163 855.576 234.042 855.495L224.946 849.364L223.724 869.526L233.494 864.536C233.756 864.403 234.062 864.377 234.343 864.465C234.625 864.553 234.86 864.747 234.996 865.004C235.133 865.262 235.16 865.562 235.071 865.839C234.982 866.115 234.785 866.346 234.523 866.479L223.57 872.072L223.409 874.729C223.374 875.308 223.106 875.85 222.664 876.234C222.222 876.618 221.643 876.814 221.053 876.778L218.83 876.643C218.241 876.608 217.689 876.343 217.297 875.909C216.905 875.474 216.704 874.904 216.739 874.325L206.735 873.719C205.261 873.63 203.882 872.969 202.902 871.882C201.922 870.795 201.42 869.371 201.508 867.923L202.699 848.272C202.786 846.824 203.456 845.471 204.561 844.511C205.665 843.55 207.113 843.061 208.587 843.15L218.592 843.756C218.627 843.177 218.895 842.636 219.336 842.252C219.778 841.868 220.358 841.672 220.947 841.708L223.17 841.842C223.76 841.878 224.312 842.142 224.704 842.577C225.096 843.012 225.296 843.581 225.261 844.16L225.1 846.818L235.298 853.688C235.419 853.769 235.523 853.873 235.603 853.994C235.683 854.114 235.738 854.249 235.765 854.39C235.792 854.531 235.79 854.676 235.76 854.817C235.73 854.957 235.672 855.093 235.59 855.211ZM218.459 845.94L208.455 845.334C207.571 845.28 206.702 845.574 206.039 846.15C205.376 846.726 204.975 847.538 204.922 848.407L203.731 868.058C203.678 868.927 203.979 869.781 204.567 870.433C205.156 871.085 205.983 871.482 206.867 871.535L216.872 872.142L218.459 845.94ZM223.038 844.026L220.815 843.891L218.962 874.46L221.186 874.595L223.038 844.026ZM215.972 850.172C215.954 850.462 215.82 850.732 215.599 850.924C215.378 851.116 215.089 851.214 214.794 851.196L208.124 850.792C207.83 850.774 207.554 850.642 207.358 850.425C207.162 850.207 207.061 849.923 207.079 849.633C207.096 849.344 207.23 849.073 207.451 848.881C207.672 848.689 207.962 848.591 208.257 848.609L214.926 849.013C215.221 849.031 215.497 849.163 215.693 849.38C215.889 849.598 215.989 849.882 215.972 850.172ZM215.707 854.539C215.689 854.829 215.556 855.099 215.335 855.291C215.114 855.483 214.824 855.581 214.529 855.563L207.86 855.159C207.565 855.141 207.289 855.009 207.093 854.792C206.897 854.574 206.797 854.29 206.814 854C206.832 853.711 206.966 853.44 207.187 853.248C207.408 853.056 207.697 852.958 207.992 852.976L214.662 853.38C214.956 853.398 215.232 853.53 215.428 853.747C215.624 853.965 215.725 854.249 215.707 854.539ZM215.442 858.906C215.425 859.196 215.291 859.466 215.07 859.658C214.849 859.85 214.559 859.948 214.265 859.93L207.595 859.526C207.3 859.508 207.025 859.376 206.828 859.159C206.632 858.941 206.532 858.657 206.55 858.367C206.567 858.078 206.701 857.807 206.922 857.615C207.143 857.423 207.433 857.325 207.727 857.343L214.397 857.747C214.692 857.765 214.968 857.897 215.164 858.114C215.36 858.332 215.46 858.616 215.442 858.906ZM215.178 863.273C215.16 863.563 215.026 863.833 214.805 864.025C214.585 864.217 214.295 864.315 214 864.297L207.33 863.893C207.036 863.875 206.76 863.743 206.564 863.526C206.368 863.308 206.267 863.024 206.285 862.734C206.303 862.445 206.437 862.174 206.657 861.982C206.878 861.79 207.168 861.692 207.463 861.71L214.132 862.114C214.427 862.132 214.703 862.264 214.899 862.481C215.095 862.699 215.195 862.983 215.178 863.273ZM214.913 867.64C214.896 867.93 214.762 868.2 214.541 868.392C214.32 868.584 214.03 868.682 213.735 868.664L207.066 868.26C206.771 868.242 206.495 868.11 206.299 867.893C206.103 867.675 206.003 867.391 206.02 867.101C206.038 866.812 206.172 866.541 206.393 866.349C206.614 866.157 206.903 866.059 207.198 866.077L213.868 866.481C214.162 866.499 214.438 866.631 214.634 866.848C214.83 867.066 214.931 867.35 214.913 867.64Z" fill="white" fill-opacity="0.4"/>
<path d="M402.478 757.469C402.611 757.525 402.732 757.607 402.835 757.711C402.937 757.814 403.018 757.937 403.073 758.072C403.129 758.208 403.158 758.352 403.158 758.499C403.159 758.645 403.131 758.79 403.076 758.925L398.965 769.094L418.943 766.108L412.035 757.585C411.85 757.357 411.762 757.063 411.789 756.77C411.817 756.476 411.958 756.206 412.182 756.019C412.405 755.832 412.693 755.743 412.982 755.773C413.271 755.802 413.537 755.947 413.722 756.176L421.465 765.731L424.098 765.338C424.672 765.252 425.257 765.402 425.725 765.754C426.192 766.106 426.504 766.633 426.591 767.217L426.92 769.42C427.008 770.004 426.864 770.598 426.52 771.072C426.176 771.546 425.66 771.86 425.086 771.946L426.568 781.858C426.786 783.319 426.426 784.805 425.566 785.989C424.706 787.174 423.417 787.959 421.982 788.174L402.511 791.084C401.077 791.299 399.614 790.924 398.446 790.043C397.277 789.162 396.498 787.846 396.279 786.386L394.798 776.473C394.224 776.559 393.639 776.409 393.171 776.057C392.704 775.704 392.392 775.178 392.305 774.594L391.976 772.391C391.888 771.807 392.033 771.213 392.377 770.739C392.72 770.265 393.236 769.951 393.81 769.865L396.443 769.472L401.049 758.07C401.103 757.935 401.183 757.813 401.285 757.709C401.386 757.606 401.506 757.524 401.639 757.468C401.771 757.413 401.913 757.384 402.057 757.384C402.201 757.384 402.345 757.413 402.478 757.469ZM396.961 776.15L398.443 786.063C398.574 786.939 399.041 787.728 399.743 788.257C400.444 788.786 401.321 789.01 402.182 788.882L421.653 785.971C422.514 785.842 423.287 785.371 423.803 784.66C424.319 783.95 424.535 783.058 424.404 782.182L422.923 772.269L396.961 776.15ZM394.139 772.068L394.468 774.271L424.757 769.743L424.428 767.54L394.139 772.068ZM401.617 777.706C401.904 777.663 402.197 777.738 402.43 777.914C402.664 778.091 402.82 778.354 402.864 778.646L403.852 785.254C403.895 785.546 403.823 785.843 403.651 786.08C403.479 786.317 403.221 786.474 402.934 786.517C402.648 786.56 402.355 786.485 402.121 786.309C401.888 786.133 401.732 785.87 401.688 785.577L400.7 778.969C400.657 778.677 400.729 778.38 400.901 778.143C401.073 777.906 401.33 777.749 401.617 777.706ZM405.944 777.059C406.231 777.016 406.524 777.091 406.757 777.267C406.991 777.444 407.147 777.707 407.191 777.999L408.178 784.607C408.222 784.899 408.15 785.197 407.978 785.433C407.806 785.67 407.548 785.827 407.261 785.87C406.974 785.913 406.682 785.838 406.448 785.662C406.215 785.486 406.059 785.223 406.015 784.931L405.027 778.322C404.984 778.03 405.056 777.733 405.228 777.496C405.4 777.259 405.657 777.102 405.944 777.059ZM410.271 776.412C410.558 776.37 410.851 776.444 411.084 776.621C411.318 776.797 411.474 777.06 411.518 777.352L412.505 783.96C412.549 784.253 412.477 784.55 412.305 784.787C412.133 785.024 411.875 785.181 411.588 785.224C411.301 785.266 411.009 785.192 410.775 785.015C410.541 784.839 410.386 784.576 410.342 784.284L409.354 777.676C409.31 777.383 409.383 777.086 409.555 776.849C409.727 776.612 409.984 776.455 410.271 776.412ZM414.598 775.766C414.885 775.723 415.178 775.798 415.411 775.974C415.645 776.15 415.801 776.413 415.845 776.705L416.832 783.314C416.876 783.606 416.804 783.903 416.632 784.14C416.46 784.377 416.202 784.534 415.915 784.577C415.628 784.62 415.336 784.545 415.102 784.369C414.868 784.192 414.713 783.929 414.669 783.637L413.681 777.029C413.637 776.737 413.709 776.439 413.881 776.203C414.053 775.966 414.311 775.809 414.598 775.766ZM418.925 775.119C419.212 775.076 419.504 775.151 419.738 775.327C419.972 775.503 420.128 775.766 420.171 776.059L421.159 782.667C421.203 782.959 421.131 783.256 420.959 783.493C420.787 783.73 420.529 783.887 420.242 783.93C419.955 783.973 419.663 783.898 419.429 783.722C419.195 783.545 419.039 783.282 418.996 782.99L418.008 776.382C417.964 776.09 418.036 775.793 418.208 775.556C418.38 775.319 418.638 775.162 418.925 775.119Z" fill="white" fill-opacity="0.4"/>
<path d="M392.719 662.707C392.726 662.334 392.88 661.977 393.146 661.715C393.413 661.452 393.772 661.305 394.145 661.303C394.519 661.302 394.877 661.448 395.142 661.709C395.408 661.97 395.56 662.325 395.566 662.698L395.556 665.975L398.503 663.027C398.931 662.599 399.579 662.488 400.122 662.743L406.49 665.746C406.696 665.844 406.875 665.989 407.013 666.17C407.151 666.352 407.242 666.564 407.281 666.789C407.319 667.013 407.302 667.244 407.233 667.462C407.163 667.68 407.042 667.878 406.88 668.039L405.474 669.446L416.794 685.038C418.472 687.282 418.109 690.283 416.077 692.315L412.314 696.078C410.28 698.112 407.279 698.475 405.051 696.807L389.445 685.475L388.039 686.88C387.878 687.042 387.68 687.163 387.462 687.233C387.244 687.302 387.013 687.319 386.789 687.281C386.564 687.242 386.352 687.151 386.17 687.013C385.989 686.875 385.844 686.696 385.746 686.49L382.743 680.122C382.617 679.856 382.578 679.559 382.629 679.269C382.68 678.979 382.819 678.712 383.027 678.503L392.701 668.829L392.719 662.707ZM403.431 671.489L391.488 683.432L406.751 694.51C407.815 695.307 409.239 695.136 410.305 694.07L414.071 690.304C415.137 689.238 415.308 687.813 414.499 686.732L403.431 671.489ZM399.801 665.746L385.748 679.8L387.464 683.439L403.441 667.462L399.801 665.746Z" fill="white" fill-opacity="0.4"/>
<path d="M168.125 780.008C168.498 780.022 168.851 780.183 169.108 780.454C169.365 780.726 169.506 781.088 169.5 781.461C169.494 781.834 169.342 782.19 169.076 782.45C168.81 782.711 168.452 782.856 168.078 782.855L164.803 782.782L167.693 785.785C168.112 786.221 168.212 786.871 167.946 787.409L164.82 793.718C164.719 793.922 164.57 794.099 164.386 794.233C164.202 794.367 163.988 794.454 163.763 794.488C163.537 794.522 163.307 794.501 163.091 794.427C162.874 794.354 162.679 794.229 162.52 794.064L161.141 792.631L145.334 803.648C143.058 805.283 140.065 804.862 138.072 802.791L134.382 798.956C132.388 796.884 132.082 793.876 133.793 791.681L145.424 776.296L144.046 774.864C143.887 774.699 143.77 774.499 143.705 774.28C143.639 774.061 143.627 773.829 143.67 773.605C143.712 773.381 143.808 773.171 143.949 772.992C144.09 772.814 144.272 772.672 144.48 772.579L150.905 769.698C151.173 769.578 151.471 769.544 151.76 769.6C152.049 769.657 152.313 769.801 152.518 770.014L162.003 779.873L168.125 780.008ZM159.138 790.549L147.427 778.378L136.057 793.425C135.239 794.473 135.384 795.901 136.429 796.987L140.121 800.824C141.166 801.911 142.587 802.11 143.684 801.321L159.138 790.549ZM164.949 787.03L151.169 772.709L147.498 774.355L163.164 790.637L164.949 787.03Z" fill="white" fill-opacity="0.4"/>
<path d="M177.754 605.532L160.935 621.025L162.701 623.461L181.087 610.129L182.198 611.661L163.812 624.993L169.368 632.654L187.753 619.321C189.764 622.095 190.724 625.256 190.679 628.772C190.634 632.288 189.639 635.558 187.727 638.628L189.671 641.309L177.414 650.198L175.47 647.516C171.973 648.369 168.529 648.294 165.184 647.26C161.839 646.226 159.122 644.316 157.111 641.542L161.707 638.209L152.819 625.952L176.643 604L177.754 605.532ZM155.328 626.189L156.573 627.905L158.105 626.794L156.749 624.925L155.328 626.189ZM157.684 629.438L163.239 637.098L164.771 635.987L159.216 628.327L157.684 629.438ZM167.836 633.765L162.28 626.104L160.748 627.215L166.303 634.876L167.836 633.765ZM161.169 624.572L159.558 622.351L158.126 623.6L159.637 625.683L161.169 624.572Z" fill="white" fill-opacity="0.4"/>
<path d="M272.754 758.532L255.935 774.025L257.701 776.461L276.087 763.129L277.198 764.661L258.812 777.993L264.368 785.654L282.753 772.321C284.764 775.095 285.724 778.256 285.679 781.772C285.634 785.288 284.639 788.558 282.727 791.628L284.671 794.309L272.414 803.198L270.47 800.516C266.973 801.369 263.529 801.294 260.184 800.26C256.839 799.226 254.122 797.316 252.111 794.542L256.707 791.209L247.819 778.952L271.643 757L272.754 758.532ZM250.328 779.189L251.573 780.905L253.105 779.794L251.749 777.925L250.328 779.189ZM252.684 782.438L258.239 790.098L259.771 788.987L254.216 781.327L252.684 782.438ZM262.836 786.765L257.28 779.104L255.748 780.215L261.303 787.876L262.836 786.765ZM256.169 777.572L254.558 775.351L253.126 776.6L254.637 778.683L256.169 777.572Z" fill="white" fill-opacity="0.4"/>
<path d="M254.33 687.774C251.613 683.067 253.225 677.048 257.932 674.33C262.64 671.613 268.658 673.226 271.376 677.933C274.094 682.64 272.481 688.659 267.774 691.376C263.067 694.094 257.048 692.481 254.33 687.774Z" stroke="white" stroke-opacity="0.4" stroke-width="4" stroke-linecap="round" stroke-linejoin="round"/>
<path d="M252.463 691.654C249.84 693.168 249.667 694.837 249.87 698.217C251.005 700.184 254.763 700.636 258.143 700.433C260.968 702.299 265.105 703.407 266.416 702.65C268.281 699.825 268.57 698.552 267.056 695.93M273.345 673.823C275.968 672.309 276.04 670.869 275.837 667.49C274.701 665.523 270.943 665.07 267.564 665.273C264.739 663.408 260.602 662.299 259.291 663.056C257.425 665.882 256.805 667.175 258.319 669.797" stroke="white" stroke-opacity="0.4" stroke-width="4" stroke-linecap="round" stroke-linejoin="round"/>
<path d="M354.33 851.774C351.613 847.067 353.225 841.048 357.932 838.33C362.64 835.613 368.658 837.225 371.376 841.933C374.094 846.64 372.481 852.659 367.774 855.376C363.067 858.094 357.048 856.481 354.33 851.774Z" stroke="white" stroke-opacity="0.4" stroke-width="4" stroke-linecap="round" stroke-linejoin="round"/>
<path d="M352.463 855.654C349.84 857.168 349.667 858.837 349.87 862.217C351.005 864.184 354.763 864.636 358.143 864.433C360.968 866.299 365.105 867.407 366.416 866.65C368.281 863.825 368.57 862.552 367.056 859.93M373.345 837.823C375.968 836.309 376.04 834.869 375.837 831.49C374.701 829.523 370.943 829.07 367.564 829.273C364.739 827.408 360.602 826.299 359.291 827.056C357.425 829.882 356.805 831.175 358.319 833.797" stroke="white" stroke-opacity="0.4" stroke-width="4" stroke-linecap="round" stroke-linejoin="round"/>
<path d="M66.3302 858.774C63.6126 854.067 65.2254 848.048 69.9325 845.33C74.6396 842.613 80.6585 844.225 83.3761 848.933C86.0938 853.64 84.481 859.659 79.7739 862.376C75.0668 865.094 69.0479 863.481 66.3302 858.774Z" stroke="white" stroke-opacity="0.4" stroke-width="4" stroke-linecap="round" stroke-linejoin="round"/>
<path d="M64.4625 862.654C61.8401 864.168 61.6668 865.837 61.8697 869.217C63.0052 871.184 66.7632 871.636 70.1427 871.433C72.968 873.299 77.1045 874.407 78.4157 873.65C80.2811 870.825 80.5699 869.552 79.0558 866.93M85.3452 844.823C87.9677 843.309 88.0398 841.869 87.8369 838.49C86.7014 836.523 82.9434 836.07 79.5639 836.273C76.7386 834.408 72.6021 833.299 71.2909 834.056C69.4254 836.882 68.8049 838.175 70.3189 840.797" stroke="white" stroke-opacity="0.4" stroke-width="4" stroke-linecap="round" stroke-linejoin="round"/>
<path d="M76.7264 555.686C71.4763 557.092 66.0798 553.977 64.6731 548.727C63.2663 543.476 66.382 538.08 71.6321 536.673C76.8821 535.266 82.2786 538.382 83.6853 543.632C85.0921 548.882 81.9765 554.279 76.7264 555.686Z" stroke="white" stroke-opacity="0.4" stroke-width="4" stroke-linecap="round" stroke-linejoin="round"/>
<path d="M79.9905 558.494C80.7742 561.419 82.3421 562.018 85.6589 562.697C87.8526 562.109 89.2626 558.596 89.9414 555.28C92.4745 553.033 94.6157 549.325 94.2238 547.862C91.9776 545.329 90.823 544.721 87.8981 545.505M68.1727 533.708C67.389 530.783 66.0167 530.341 62.6998 529.662C60.5061 530.25 59.0961 533.762 58.4174 537.079C55.8843 539.325 53.7431 543.034 54.135 544.497C56.3812 547.03 57.4696 547.964 60.3946 547.18" stroke="white" stroke-opacity="0.4" stroke-width="4" stroke-linecap="round" stroke-linejoin="round"/>
<path d="M276.626 527.135C276.317 526.926 275.937 526.847 275.569 526.914C275.201 526.981 274.873 527.189 274.658 527.494C274.442 527.799 274.355 528.175 274.415 528.543C274.476 528.91 274.679 529.239 274.981 529.458L277.666 531.336L273.56 532.05C272.963 532.154 272.5 532.619 272.396 533.21L271.188 540.147C271.149 540.371 271.164 540.602 271.233 540.818C271.303 541.035 271.423 541.232 271.585 541.393C271.747 541.554 271.945 541.673 272.163 541.741C272.382 541.81 272.613 541.825 272.838 541.785L274.798 541.444L281.036 559.674C281.905 562.339 284.568 563.768 287.4 563.276L292.643 562.364C295.476 561.871 297.501 559.626 297.418 556.843L297.131 537.559L299.089 537.218C299.314 537.179 299.527 537.087 299.709 536.949C299.892 536.811 300.038 536.632 300.136 536.426C300.234 536.22 300.281 535.994 300.273 535.766C300.265 535.539 300.202 535.317 300.09 535.119L296.61 528.997C296.465 528.742 296.244 528.538 295.978 528.413C295.711 528.288 295.413 528.248 295.122 528.299L281.644 530.644L276.626 527.135ZM277.645 540.949L294.285 538.054L294.561 556.912C294.601 558.241 293.641 559.307 292.156 559.566L286.909 560.478C285.424 560.737 284.16 560.057 283.742 558.773L277.645 540.949ZM275.037 534.676L294.617 531.27L296.605 534.768L274.345 538.64L275.037 534.676Z" fill="white" fill-opacity="0.4"/>
<path d="M390.144 529.193L411.015 519.849L412.557 522.433L393.053 534.069L394.023 535.694L413.527 524.059L418.375 532.185L398.871 543.821C400.626 546.763 403.152 548.892 406.401 550.237C409.65 551.583 413.047 551.958 416.622 551.412L418.319 554.256L431.322 546.499L429.625 543.655C431.788 540.778 433.078 537.584 433.447 534.103C433.816 530.621 433.133 527.37 431.378 524.428L426.502 527.337L418.744 514.335L389.175 527.568L390.144 529.193ZM417.972 516.734L419.058 518.555L417.433 519.524L416.25 517.542L417.972 516.734ZM420.028 520.18L424.876 528.307L423.251 529.276L418.403 521.15L420.028 520.18ZM420 531.216L415.152 523.089L416.777 522.119L421.626 530.246L420 531.216ZM414.182 521.464L412.776 519.107L414.489 518.284L415.808 520.494L414.182 521.464Z" fill="white" fill-opacity="0.4"/>
</svg>
