<svg width="390" height="842" viewBox="0 0 390 842" fill="none" xmlns="http://www.w3.org/2000/svg">
<path d="M39.888 373.956C40.0283 373.922 40.1744 373.916 40.318 373.938C40.4616 373.961 40.5999 374.012 40.7249 374.087C40.85 374.163 40.9593 374.262 41.0467 374.379C41.1342 374.496 41.1979 374.629 41.2344 374.77L43.9786 385.391L58.2617 371.108L47.6397 368.365C47.3551 368.291 47.1094 368.108 46.9567 367.855C46.804 367.603 46.7567 367.302 46.8254 367.019C46.894 366.735 47.0729 366.493 47.3227 366.345C47.5725 366.196 47.8728 366.155 48.1574 366.228L60.0653 369.304L61.9478 367.422C62.358 367.011 62.9174 366.784 63.5028 366.789C64.0882 366.794 64.6518 367.032 65.0695 367.45L66.6444 369.025C67.0621 369.442 67.2997 370.006 67.305 370.591C67.3102 371.177 67.0827 371.736 66.6725 372.146L73.7596 379.233C74.8038 380.278 75.3978 381.686 75.411 383.15C75.4242 384.614 74.8554 386.012 73.8298 387.038L59.9087 400.959C58.8831 401.984 57.4847 402.553 56.0211 402.54C54.5575 402.527 53.1486 401.933 52.1044 400.889L45.0173 393.801C44.6071 394.212 44.0477 394.439 43.4623 394.434C42.8769 394.429 42.3133 394.191 41.8956 393.773L40.3207 392.198C39.903 391.781 39.6654 391.217 39.6601 390.632C39.6549 390.046 39.8824 389.487 40.2926 389.077L42.1751 387.194L39.0962 375.289C39.0597 375.148 39.0511 375.002 39.0711 374.859C39.091 374.716 39.139 374.578 39.2124 374.455C39.2858 374.331 39.3831 374.223 39.4988 374.138C39.6144 374.053 39.7477 373.99 39.888 373.956ZM46.5641 392.255L53.6512 399.342C54.2778 399.968 55.1231 400.325 56.0012 400.333C56.8794 400.34 57.7184 399.999 58.3338 399.384L72.2549 385.463C72.8703 384.847 73.2115 384.008 73.2036 383.13C73.1957 382.252 72.8393 381.407 72.2128 380.78L65.1257 373.693L46.5641 392.255ZM41.8675 390.652L43.4424 392.227L65.0976 370.571L63.5227 368.996L41.8675 390.652ZM51.2326 390.736C51.4378 390.531 51.7174 390.417 52.0101 390.42C52.3029 390.422 52.5846 390.541 52.7935 390.75L57.5182 395.475C57.7271 395.684 57.8459 395.965 57.8485 396.258C57.8511 396.551 57.7374 396.83 57.5323 397.036C57.3271 397.241 57.0475 397.354 56.7547 397.352C56.462 397.349 56.1803 397.23 55.9714 397.022L51.2467 392.297C51.0378 392.088 50.919 391.806 50.9164 391.513C50.9138 391.221 51.0275 390.941 51.2326 390.736ZM54.3262 387.642C54.5313 387.437 54.811 387.323 55.1037 387.326C55.3965 387.329 55.6782 387.448 55.8871 387.656L60.6118 392.381C60.8206 392.59 60.9395 392.872 60.9421 393.164C60.9447 393.457 60.831 393.737 60.6259 393.942C60.4207 394.147 60.1411 394.261 59.8483 394.258C59.5556 394.256 59.2738 394.137 59.065 393.928L54.3403 389.203C54.1314 388.994 54.0126 388.713 54.01 388.42C54.0074 388.127 54.1211 387.847 54.3262 387.642ZM57.4198 384.549C57.6249 384.344 57.9046 384.23 58.1973 384.233C58.49 384.235 58.7718 384.354 58.9807 384.563L63.7054 389.288C63.9142 389.496 64.033 389.778 64.0357 390.071C64.0383 390.364 63.9246 390.643 63.7194 390.848C63.5143 391.054 63.2346 391.167 62.9419 391.165C62.6492 391.162 62.3674 391.043 62.1586 390.834L57.4339 386.11C57.225 385.901 57.1062 385.619 57.1036 385.326C57.1009 385.034 57.2147 384.754 57.4198 384.549ZM60.5134 381.455C60.7185 381.25 60.9982 381.136 61.2909 381.139C61.5836 381.142 61.8654 381.26 62.0743 381.469L66.799 386.194C67.0078 386.403 67.1266 386.685 67.1293 386.977C67.1319 387.27 67.0182 387.55 66.813 387.755C66.6079 387.96 66.3282 388.074 66.0355 388.071C65.7428 388.068 65.461 387.95 65.2522 387.741L60.5275 383.016C60.3186 382.807 60.1998 382.525 60.1972 382.233C60.1945 381.94 60.3083 381.66 60.5134 381.455ZM63.607 378.362C63.8121 378.156 64.0918 378.043 64.3845 378.045C64.6772 378.048 64.959 378.167 65.1679 378.376L69.8926 383.1C70.1014 383.309 70.2202 383.591 70.2229 383.884C70.2255 384.176 70.1117 384.456 69.9066 384.661C69.7015 384.866 69.4218 384.98 69.1291 384.977C68.8364 384.975 68.5546 384.856 68.3458 384.647L63.6211 379.922C63.4122 379.714 63.2934 379.432 63.2908 379.139C63.2881 378.846 63.4019 378.567 63.607 378.362Z" fill="#FF0217" fill-opacity="0.15"/>
<path d="M277.314 218.93C277.409 219.038 277.482 219.165 277.529 219.303C277.575 219.44 277.595 219.586 277.586 219.732C277.577 219.878 277.539 220.021 277.476 220.153C277.413 220.285 277.325 220.403 277.217 220.5L269.08 227.857L288.359 233.887L285.862 223.204C285.796 222.918 285.844 222.615 285.997 222.363C286.15 222.111 286.395 221.929 286.677 221.858C286.96 221.788 287.258 221.834 287.505 221.986C287.752 222.139 287.929 222.386 287.995 222.672L290.793 234.648L293.334 235.443C293.888 235.616 294.349 236.006 294.616 236.527C294.882 237.048 294.933 237.658 294.757 238.222L294.092 240.347C293.916 240.911 293.527 241.383 293.011 241.659C292.494 241.935 291.893 241.993 291.34 241.82L288.348 251.386C287.907 252.795 286.934 253.975 285.644 254.665C284.353 255.356 282.851 255.501 281.466 255.068L262.676 249.191C261.292 248.758 260.14 247.783 259.472 246.48C258.805 245.177 258.678 243.654 259.119 242.244L262.111 232.678C261.557 232.505 261.096 232.115 260.829 231.594C260.562 231.073 260.512 230.464 260.688 229.9L261.353 227.774C261.529 227.21 261.918 226.738 262.434 226.462C262.951 226.186 263.552 226.128 264.105 226.301L266.646 227.096L275.765 218.847C275.873 218.749 275.999 218.674 276.135 218.625C276.271 218.576 276.415 218.555 276.559 218.563C276.702 218.57 276.843 218.607 276.972 218.67C277.101 218.732 277.219 218.821 277.314 218.93ZM264.199 233.331L261.207 242.897C260.942 243.743 261.019 244.657 261.419 245.439C261.819 246.22 262.511 246.805 263.341 247.065L282.131 252.942C282.962 253.202 283.863 253.115 284.638 252.701C285.412 252.286 285.996 251.578 286.26 250.733L289.252 241.167L264.199 233.331ZM263.44 228.427L262.776 230.553L292.004 239.694L292.669 237.569L263.44 228.427ZM267.709 236.763C267.986 236.85 268.217 237.045 268.35 237.305C268.483 237.566 268.509 237.871 268.421 238.152L266.426 244.53C266.338 244.811 266.144 245.047 265.885 245.185C265.627 245.324 265.327 245.353 265.05 245.266C264.773 245.179 264.543 244.984 264.409 244.724C264.276 244.463 264.25 244.158 264.338 243.877L266.333 237.499C266.421 237.218 266.616 236.982 266.874 236.844C267.132 236.705 267.432 236.676 267.709 236.763ZM271.885 238.069C272.162 238.156 272.392 238.351 272.526 238.611C272.659 238.872 272.684 239.176 272.596 239.458L270.602 245.836C270.514 246.117 270.319 246.353 270.061 246.491C269.803 246.63 269.502 246.658 269.225 246.572C268.949 246.485 268.718 246.29 268.585 246.03C268.451 245.769 268.426 245.464 268.514 245.183L270.508 238.805C270.597 238.524 270.791 238.288 271.049 238.149C271.307 238.011 271.608 237.982 271.885 238.069ZM276.06 239.375C276.337 239.462 276.568 239.657 276.701 239.917C276.835 240.178 276.86 240.482 276.772 240.764L274.777 247.141C274.689 247.423 274.495 247.659 274.236 247.797C273.978 247.935 273.678 247.964 273.401 247.878C273.124 247.791 272.894 247.596 272.76 247.336C272.627 247.075 272.601 246.77 272.69 246.488L274.684 240.111C274.772 239.829 274.967 239.594 275.225 239.455C275.483 239.317 275.783 239.288 276.06 239.375ZM280.236 240.681C280.513 240.768 280.743 240.963 280.877 241.223C281.01 241.484 281.036 241.788 280.947 242.07L278.953 248.447C278.865 248.729 278.67 248.965 278.412 249.103C278.154 249.241 277.853 249.27 277.577 249.184C277.3 249.097 277.069 248.902 276.936 248.642C276.802 248.381 276.777 248.076 276.865 247.794L278.86 241.417C278.948 241.135 279.142 240.899 279.4 240.761C279.658 240.623 279.959 240.594 280.236 240.681ZM284.411 241.987C284.688 242.073 284.919 242.268 285.052 242.529C285.186 242.79 285.211 243.094 285.123 243.376L283.128 249.753C283.04 250.035 282.846 250.271 282.588 250.409C282.329 250.547 282.029 250.576 281.752 250.49C281.475 250.403 281.245 250.208 281.111 249.948C280.978 249.687 280.952 249.382 281.041 249.1L283.035 242.723C283.123 242.441 283.318 242.205 283.576 242.067C283.834 241.929 284.135 241.9 284.411 241.987Z" fill="#FF0217" fill-opacity="0.15"/>
<path d="M179.59 339.707C179.597 339.333 179.751 338.977 180.018 338.715C180.284 338.452 180.643 338.304 181.016 338.303C181.39 338.302 181.748 338.448 182.014 338.709C182.279 338.969 182.431 339.325 182.437 339.698L182.427 342.975L185.375 340.027C185.803 339.599 186.45 339.488 186.993 339.743L193.361 342.746C193.567 342.844 193.747 342.989 193.884 343.17C194.022 343.352 194.113 343.564 194.152 343.789C194.19 344.013 194.173 344.244 194.104 344.462C194.034 344.68 193.913 344.878 193.751 345.039L192.345 346.446L203.665 362.037C205.344 364.282 204.98 367.283 202.948 369.315L199.185 373.078C197.151 375.112 194.15 375.475 191.922 373.807L176.316 362.475L174.911 363.88C174.749 364.042 174.551 364.163 174.333 364.233C174.116 364.302 173.885 364.319 173.66 364.28C173.435 364.242 173.223 364.15 173.042 364.013C172.86 363.875 172.715 363.696 172.617 363.49L169.614 357.122C169.488 356.856 169.449 356.558 169.5 356.269C169.551 355.979 169.69 355.712 169.898 355.503L179.573 345.829L179.59 339.707ZM190.302 348.489L178.359 360.432L193.622 371.51C194.686 372.307 196.11 372.136 197.176 371.07L200.942 367.304C202.008 366.238 202.18 364.813 201.37 363.732L190.302 348.489ZM186.672 342.746L172.619 356.8L174.336 360.438L190.312 344.462L186.672 342.746Z" fill="#FF0217" fill-opacity="0.15"/>
<path d="M316.334 475.532C316.568 475.241 316.907 475.053 317.278 475.008C317.65 474.963 318.024 475.065 318.321 475.292C318.617 475.52 318.812 475.854 318.863 476.222C318.914 476.591 318.817 476.965 318.594 477.264L316.584 479.853L320.718 479.319C321.319 479.242 321.9 479.549 322.174 480.082L325.382 486.35C325.486 486.553 325.539 486.778 325.537 487.005C325.535 487.233 325.478 487.457 325.371 487.658C325.264 487.86 325.11 488.032 324.922 488.162C324.734 488.292 324.517 488.375 324.29 488.404L322.318 488.659L321.758 507.918C321.717 510.72 319.596 512.875 316.746 513.243L311.468 513.924C308.616 514.292 306.017 512.747 305.272 510.066L299.835 491.561L297.865 491.816C297.638 491.845 297.407 491.82 297.192 491.742C296.977 491.664 296.784 491.536 296.63 491.369C296.475 491.201 296.363 490.999 296.304 490.779C296.244 490.559 296.238 490.329 296.287 490.106L297.798 483.229C297.861 482.942 298.012 482.682 298.229 482.484C298.446 482.286 298.72 482.159 299.012 482.122L312.581 480.37L316.334 475.532ZM319.452 489.029L302.701 491.191L308.021 509.285C308.376 510.566 309.609 511.3 311.104 511.107L316.386 510.425C317.881 510.232 318.887 509.209 318.906 507.859L319.452 489.029ZM320.085 482.265L300.374 484.809L299.511 488.739L321.92 485.846L320.085 482.265Z" fill="#FF0217" fill-opacity="0.15"/>
<path d="M137.95 470.513C133.344 467.627 127.27 469.022 124.385 473.628C121.499 478.234 122.893 484.307 127.499 487.193C132.105 490.079 138.178 488.684 141.064 484.078C143.95 479.472 142.555 473.399 137.95 470.513Z" stroke="#FF0217" stroke-opacity="0.15" stroke-width="3.53283" stroke-linecap="round" stroke-linejoin="round"/>
<path d="M141.894 468.787C143.502 466.221 145.177 466.108 148.547 466.432C150.471 467.638 150.788 471.41 150.463 474.78C152.225 477.671 153.184 481.845 152.38 483.128C149.489 484.89 148.207 485.133 145.641 483.525M123.322 489.012C121.714 491.578 120.272 491.598 116.902 491.273C114.978 490.068 114.661 486.296 114.986 482.926C113.223 480.035 112.265 475.861 113.069 474.578C115.96 472.816 117.274 472.242 119.84 473.85" stroke="#FF0217" stroke-opacity="0.15" stroke-width="3.53283" stroke-linecap="round" stroke-linejoin="round"/>
<path d="M142.207 283.22L121.712 273.077L120.071 275.6L139.111 287.98L138.08 289.567L119.04 277.187L113.881 285.12L132.921 297.5C131.054 300.372 128.447 302.402 125.149 303.621C121.85 304.84 118.441 305.084 114.89 304.4L113.084 307.177L100.391 298.923L102.197 296.147C100.147 293.189 98.981 289.947 98.7467 286.454C98.5124 282.96 99.3206 279.739 101.188 276.867L105.948 279.962L114.202 267.268L143.238 281.634L142.207 283.22ZM114.88 269.696L113.725 271.473L115.311 272.505L116.57 270.569L114.88 269.696ZM112.693 273.06L107.535 280.993L109.121 282.025L114.28 274.092L112.693 273.06ZM112.295 284.088L117.453 276.155L115.866 275.123L110.708 283.057L112.295 284.088ZM118.485 274.568L119.981 272.268L118.301 271.379L116.898 273.537L118.485 274.568Z" fill="#FF0217" fill-opacity="0.15"/>
<path d="M135.355 788.434C135.285 788.561 135.242 788.7 135.226 788.845C135.211 788.989 135.224 789.136 135.265 789.276C135.305 789.417 135.373 789.548 135.464 789.663C135.554 789.777 135.666 789.873 135.793 789.945L145.341 795.345L127.848 805.444L127.948 794.474C127.95 794.18 127.837 793.896 127.632 793.683C127.428 793.47 127.15 793.346 126.858 793.339C126.567 793.332 126.286 793.442 126.078 793.645C125.871 793.848 125.752 794.127 125.75 794.421L125.639 806.72L123.333 808.051C122.831 808.341 122.466 808.822 122.32 809.389C122.174 809.956 122.257 810.562 122.553 811.073L123.666 813.002C123.962 813.514 124.444 813.889 125.009 814.046C125.573 814.202 126.172 814.127 126.674 813.837L131.686 822.517C132.424 823.796 133.631 824.735 135.041 825.126C136.452 825.518 137.95 825.33 139.206 824.605L156.256 814.761C157.512 814.036 158.423 812.833 158.789 811.415C159.155 809.998 158.946 808.484 158.208 807.205L153.196 798.525C153.699 798.235 154.063 797.753 154.21 797.187C154.356 796.62 154.273 796.014 153.977 795.502L152.864 793.573C152.568 793.062 152.085 792.686 151.521 792.53C150.957 792.373 150.358 792.448 149.855 792.738L147.55 794.069L136.848 788.014C136.721 787.942 136.582 787.896 136.438 787.879C136.295 787.861 136.15 787.872 136.011 787.91C135.873 787.949 135.744 788.015 135.631 788.105C135.519 788.195 135.424 788.307 135.355 788.434ZM151.302 799.619L156.313 808.298C156.756 809.066 156.882 809.975 156.662 810.825C156.442 811.675 155.896 812.397 155.142 812.832L138.092 822.676C137.339 823.111 136.44 823.224 135.594 822.989C134.747 822.754 134.023 822.191 133.58 821.423L128.569 812.744L151.302 799.619ZM150.969 794.667L152.083 796.596L125.561 811.909L124.447 809.98L150.969 794.667ZM148.627 803.735C148.375 803.88 148.193 804.121 148.12 804.404C148.047 804.688 148.089 804.99 148.236 805.246L151.577 811.033C151.725 811.289 151.966 811.476 152.248 811.555C152.53 811.633 152.83 811.595 153.081 811.45C153.332 811.305 153.515 811.065 153.588 810.781C153.661 810.498 153.619 810.195 153.472 809.939L150.131 804.153C149.983 803.897 149.742 803.709 149.46 803.631C149.178 803.552 148.878 803.59 148.627 803.735ZM144.838 805.922C144.587 806.068 144.404 806.308 144.331 806.592C144.258 806.875 144.3 807.178 144.447 807.434L147.788 813.22C147.936 813.476 148.177 813.664 148.459 813.742C148.742 813.82 149.041 813.783 149.292 813.638C149.544 813.493 149.726 813.252 149.799 812.969C149.872 812.685 149.83 812.382 149.683 812.127L146.342 806.34C146.194 806.084 145.953 805.897 145.671 805.818C145.389 805.74 145.089 805.777 144.838 805.922ZM141.049 808.11C140.798 808.255 140.615 808.496 140.542 808.779C140.469 809.063 140.511 809.365 140.659 809.621L143.999 815.408C144.147 815.664 144.389 815.851 144.671 815.93C144.953 816.008 145.252 815.97 145.503 815.825C145.755 815.68 145.937 815.44 146.01 815.156C146.083 814.873 146.042 814.57 145.894 814.314L142.553 808.528C142.405 808.272 142.164 808.084 141.882 808.006C141.6 807.927 141.3 807.965 141.049 808.11ZM137.26 810.297C137.009 810.443 136.827 810.683 136.753 810.967C136.68 811.25 136.722 811.553 136.87 811.809L140.211 817.595C140.358 817.851 140.6 818.039 140.882 818.117C141.164 818.195 141.463 818.158 141.715 818.013C141.966 817.868 142.148 817.627 142.221 817.344C142.295 817.06 142.253 816.757 142.105 816.502L138.764 810.715C138.616 810.459 138.375 810.272 138.093 810.193C137.811 810.115 137.511 810.152 137.26 810.297ZM133.471 812.485C133.22 812.63 133.038 812.871 132.965 813.154C132.891 813.438 132.933 813.74 133.081 813.996L136.422 819.783C136.569 820.039 136.811 820.226 137.093 820.305C137.375 820.383 137.675 820.345 137.926 820.2C138.177 820.055 138.359 819.815 138.432 819.531C138.506 819.248 138.464 818.945 138.316 818.689L134.975 812.903C134.828 812.647 134.586 812.459 134.304 812.381C134.022 812.302 133.722 812.34 133.471 812.485Z" fill="#FF0217" fill-opacity="0.15"/>
<path d="M24.7269 768.098C19.4768 769.505 14.0803 766.39 12.6736 761.14C11.2668 755.889 14.3825 750.493 19.6325 749.086C24.8826 747.679 30.2791 750.795 31.6858 756.045C33.0926 761.295 29.977 766.692 24.7269 768.098Z" stroke="#FF0217" stroke-opacity="0.15" stroke-width="3.53283" stroke-linecap="round" stroke-linejoin="round"/>
<path d="M27.991 770.907C28.7747 773.832 30.3426 774.431 33.6594 775.11C35.8531 774.522 37.2631 771.009 37.9419 767.693C40.4749 765.446 42.6162 761.738 42.2243 760.275C39.9781 757.742 38.8235 757.134 35.8986 757.918M16.1732 746.121C15.3895 743.196 14.0172 742.754 10.7003 742.075C8.50661 742.663 7.09663 746.175 6.41789 749.492C3.8848 751.739 1.74358 755.447 2.13545 756.91C4.38167 759.443 5.47009 760.377 8.39505 759.593" stroke="#FF0217" stroke-opacity="0.15" stroke-width="3.53283" stroke-linecap="round" stroke-linejoin="round"/>
<path d="M283.497 803.135C283.188 802.926 282.808 802.847 282.44 802.914C282.072 802.981 281.745 803.189 281.529 803.494C281.313 803.799 281.226 804.175 281.286 804.543C281.347 804.91 281.55 805.239 281.852 805.458L284.537 807.336L280.431 808.05C279.835 808.154 279.371 808.619 279.267 809.21L278.059 816.147C278.02 816.371 278.035 816.602 278.105 816.818C278.174 817.035 278.294 817.232 278.456 817.393C278.618 817.554 278.816 817.673 279.035 817.741C279.253 817.81 279.484 817.825 279.71 817.785L281.669 817.444L287.907 835.674C288.776 838.339 291.439 839.768 294.271 839.276L299.514 838.364C302.347 837.871 304.372 835.626 304.289 832.843L304.002 813.559L305.96 813.218C306.186 813.179 306.398 813.087 306.581 812.949C306.763 812.811 306.909 812.632 307.007 812.426C307.105 812.22 307.152 811.994 307.144 811.766C307.136 811.539 307.073 811.317 306.961 811.119L303.481 804.997C303.336 804.742 303.115 804.538 302.849 804.413C302.583 804.288 302.284 804.248 301.993 804.299L288.515 806.644L283.497 803.135ZM284.516 816.949L301.156 814.054L301.432 832.912C301.472 834.241 300.512 835.307 299.027 835.566L293.78 836.478C292.295 836.737 291.031 836.057 290.613 834.773L284.516 816.949ZM281.908 810.676L301.488 807.27L303.476 810.768L281.216 814.64L281.908 810.676Z" fill="#FF0217" fill-opacity="0.15"/>
<path d="M359.504 602.686C354.254 601.279 351.138 595.882 352.545 590.632C353.952 585.382 359.348 582.267 364.598 583.673C369.848 585.08 372.964 590.476 371.557 595.727C370.151 600.977 364.754 604.092 359.504 602.686Z" stroke="#FF0217" stroke-opacity="0.15" stroke-width="3.53283" stroke-linecap="round" stroke-linejoin="round"/>
<path d="M360.926 606.75C360.143 609.675 361.201 610.978 363.734 613.224C365.928 613.812 368.905 611.475 371.151 608.941C374.468 608.263 378.177 606.122 378.569 604.659C377.89 601.342 377.194 600.238 374.269 599.454M363.085 579.376C363.869 576.451 362.901 575.381 360.368 573.135C358.175 572.547 355.197 574.884 352.951 577.418C349.634 578.096 345.925 580.237 345.533 581.7C346.212 585.017 346.688 586.37 349.613 587.154" stroke="#FF0217" stroke-opacity="0.15" stroke-width="3.53283" stroke-linecap="round" stroke-linejoin="round"/>
<path d="M353.777 735.786L374.323 745.823L373.327 748.663L351.897 741.143L351.27 742.929L372.7 750.449L369.567 759.378L348.137 751.858C347.003 755.091 346.987 758.395 348.036 761.751C349.084 765.108 350.973 767.956 353.683 770.351L352.586 773.477L366.873 778.49L367.969 775.364C371.564 775.181 374.842 774.125 377.752 772.178C380.662 770.23 382.72 767.623 383.854 764.391L378.496 762.511L383.509 748.224L354.403 734L353.777 735.786ZM381.172 749.169L380.47 751.169L378.684 750.543L379.449 748.364L381.172 749.169ZM379.844 752.955L376.711 761.884L374.925 761.258L378.058 752.328L379.844 752.955ZM371.353 760.004L374.486 751.075L376.272 751.702L373.139 760.631L371.353 760.004ZM375.113 749.289L376.021 746.7L377.751 747.487L376.899 749.916L375.113 749.289Z" fill="#FF0217" fill-opacity="0.15"/>
<path d="M251.227 570.956C251.087 570.922 250.941 570.916 250.797 570.938C250.654 570.961 250.515 571.011 250.39 571.087C250.265 571.163 250.156 571.262 250.068 571.379C249.981 571.496 249.917 571.629 249.881 571.77L247.137 582.391L232.853 568.108L243.476 565.365C243.76 565.291 244.006 565.108 244.159 564.855C244.311 564.603 244.358 564.302 244.29 564.019C244.221 563.735 244.042 563.493 243.793 563.345C243.543 563.196 243.242 563.155 242.958 563.228L231.05 566.304L229.167 564.422C228.757 564.011 228.198 563.784 227.612 563.789C227.027 563.794 226.463 564.032 226.046 564.45L224.471 566.025C224.053 566.442 223.816 567.006 223.81 567.591C223.805 568.177 224.033 568.736 224.443 569.146L217.356 576.233C216.311 577.278 215.717 578.686 215.704 580.15C215.691 581.614 216.26 583.012 217.285 584.038L231.207 597.959C232.232 598.984 233.631 599.553 235.094 599.54C236.558 599.527 237.967 598.933 239.011 597.889L246.098 590.801C246.508 591.212 247.067 591.439 247.653 591.434C248.238 591.429 248.802 591.191 249.22 590.773L250.795 589.198C251.212 588.781 251.45 588.217 251.455 587.632C251.46 587.046 251.233 586.487 250.823 586.077L248.94 584.194L252.019 572.289C252.056 572.148 252.064 572.002 252.044 571.859C252.024 571.716 251.976 571.578 251.903 571.455C251.829 571.331 251.732 571.223 251.616 571.138C251.501 571.053 251.368 570.99 251.227 570.956ZM244.551 589.255L237.464 596.342C236.837 596.968 235.992 597.325 235.114 597.333C234.236 597.34 233.397 596.999 232.781 596.384L218.86 582.463C218.245 581.847 217.904 581.008 217.912 580.13C217.92 579.252 218.276 578.407 218.902 577.78L225.99 570.693L244.551 589.255ZM249.248 587.652L247.673 589.227L226.018 567.571L227.593 565.996L249.248 587.652ZM239.883 587.736C239.677 587.531 239.398 587.417 239.105 587.42C238.812 587.422 238.531 587.541 238.322 587.75L233.597 592.475C233.388 592.684 233.269 592.965 233.267 593.258C233.264 593.551 233.378 593.83 233.583 594.036C233.788 594.241 234.068 594.354 234.36 594.352C234.653 594.349 234.935 594.23 235.144 594.022L239.869 589.297C240.077 589.088 240.196 588.806 240.199 588.513C240.201 588.221 240.088 587.941 239.883 587.736ZM236.789 584.642C236.584 584.437 236.304 584.323 236.011 584.326C235.719 584.329 235.437 584.448 235.228 584.656L230.503 589.381C230.295 589.59 230.176 589.872 230.173 590.164C230.171 590.457 230.284 590.737 230.489 590.942C230.694 591.147 230.974 591.261 231.267 591.258C231.56 591.256 231.841 591.137 232.05 590.928L236.775 586.203C236.984 585.994 237.103 585.713 237.105 585.42C237.108 585.127 236.994 584.847 236.789 584.642ZM233.695 581.549C233.49 581.344 233.211 581.23 232.918 581.233C232.625 581.235 232.343 581.354 232.135 581.563L227.41 586.288C227.201 586.496 227.082 586.778 227.08 587.071C227.077 587.364 227.191 587.643 227.396 587.848C227.601 588.054 227.881 588.167 228.173 588.165C228.466 588.162 228.748 588.043 228.957 587.834L233.681 583.11C233.89 582.901 234.009 582.619 234.012 582.326C234.014 582.034 233.901 581.754 233.695 581.549ZM230.602 578.455C230.397 578.25 230.117 578.136 229.824 578.139C229.532 578.142 229.25 578.26 229.041 578.469L224.316 583.194C224.107 583.403 223.989 583.685 223.986 583.977C223.983 584.27 224.097 584.55 224.302 584.755C224.507 584.96 224.787 585.074 225.08 585.071C225.372 585.068 225.654 584.95 225.863 584.741L230.588 580.016C230.797 579.807 230.915 579.525 230.918 579.233C230.921 578.94 230.807 578.66 230.602 578.455ZM227.508 575.362C227.303 575.156 227.023 575.043 226.731 575.045C226.438 575.048 226.156 575.167 225.947 575.376L221.223 580.1C221.014 580.309 220.895 580.591 220.892 580.884C220.89 581.176 221.003 581.456 221.209 581.661C221.414 581.866 221.693 581.98 221.986 581.977C222.279 581.975 222.561 581.856 222.769 581.647L227.494 576.922C227.703 576.714 227.822 576.432 227.824 576.139C227.827 575.846 227.713 575.567 227.508 575.362Z" fill="#FF0217" fill-opacity="0.15"/>
<path d="M44.7793 214.707C44.772 214.333 44.6184 213.977 44.3516 213.715C44.0848 213.452 43.7261 213.304 43.3528 213.303C42.9794 213.302 42.6213 213.448 42.3556 213.709C42.0899 213.969 41.9378 214.325 41.9321 214.698L41.942 217.975L38.9946 215.027C38.5666 214.599 37.9193 214.488 37.3763 214.743L31.0079 217.746C30.8019 217.844 30.6226 217.989 30.4851 218.17C30.3475 218.352 30.2557 218.564 30.2175 218.789C30.1793 219.013 30.1957 219.244 30.2654 219.462C30.335 219.68 30.4559 219.878 30.6178 220.039L32.0243 221.446L20.7044 237.037C19.0256 239.282 19.3891 242.283 21.4214 244.315L25.1844 248.078C27.218 250.112 30.2191 250.475 32.4471 248.807L48.0535 237.475L49.4586 238.88C49.6202 239.042 49.8183 239.163 50.0359 239.233C50.2536 239.302 50.4846 239.319 50.7094 239.28C50.9342 239.242 51.1462 239.15 51.3276 239.013C51.509 238.875 51.6544 238.696 51.7517 238.49L54.7554 232.122C54.8806 231.856 54.9205 231.558 54.8695 231.269C54.8185 230.979 54.6792 230.712 54.4706 230.503L44.7966 220.829L44.7793 214.707ZM34.0673 223.489L46.0105 235.432L30.7471 246.51C29.6833 247.307 28.2586 247.136 27.1927 246.07L23.427 242.304C22.3611 241.238 22.1896 239.813 22.9989 238.732L34.0673 223.489ZM37.6969 217.746L51.7504 231.8L50.0336 235.438L34.0568 219.462L37.6969 217.746Z" fill="#FF0217" fill-opacity="0.15"/>
<path d="M353.202 331.774C350.485 327.067 352.097 321.048 356.805 318.33C361.512 315.613 367.531 317.226 370.248 321.933C372.966 326.64 371.353 332.659 366.646 335.376C361.939 338.094 355.92 336.481 353.202 331.774Z" stroke="#FF0217" stroke-opacity="0.15" stroke-width="3.53283" stroke-linecap="round" stroke-linejoin="round"/>
<path d="M351.334 335.653C348.712 337.168 348.538 338.837 348.741 342.217C349.877 344.183 353.635 344.636 357.014 344.433C359.84 346.299 363.976 347.407 365.287 346.65C367.153 343.825 367.441 342.552 365.927 339.93M372.217 317.823C374.839 316.309 374.911 314.869 374.709 311.49C373.573 309.523 369.815 309.07 366.435 309.273C363.61 307.408 359.474 306.299 358.162 307.056C356.297 309.881 355.676 311.175 357.191 313.797" stroke="#FF0217" stroke-opacity="0.15" stroke-width="3.53283" stroke-linecap="round" stroke-linejoin="round"/>
<path d="M277.266 395.263L299.384 401.067L298.965 404.047L276.476 400.885L276.212 402.759L298.702 405.921L297.384 415.292L274.895 412.13C274.418 415.522 275.051 418.765 276.739 421.85C278.427 424.935 280.838 427.357 283.966 429.173L283.505 432.453L298.498 434.561L298.959 431.281C302.447 430.395 305.454 428.716 307.925 426.235C310.395 423.753 311.901 420.792 312.378 417.4L306.755 416.61L308.863 401.617L277.53 393.389L277.266 395.263ZM306.757 403.002L306.462 405.101L304.588 404.838L304.909 402.551L306.757 403.002ZM306.199 406.975L304.881 416.346L303.007 416.083L304.324 406.712L306.199 406.975ZM299.259 415.556L300.576 406.185L302.45 406.448L301.133 415.819L299.259 415.556ZM300.84 404.311L301.222 401.593L303.072 402.025L302.714 404.574L300.84 404.311Z" fill="#FF0217" fill-opacity="0.15"/>
<path d="M131.651 632.331C131.8 631.988 131.809 631.6 131.676 631.251C131.542 630.901 131.278 630.617 130.939 630.46C130.6 630.304 130.214 630.287 129.864 630.413C129.513 630.54 129.227 630.799 129.066 631.136L127.71 634.119L126.259 630.212C126.048 629.644 125.506 629.273 124.906 629.278L117.866 629.355C117.638 629.358 117.414 629.415 117.214 629.523C117.013 629.63 116.841 629.785 116.713 629.973C116.584 630.162 116.503 630.378 116.476 630.605C116.448 630.832 116.476 631.063 116.556 631.277L117.248 633.142L100.461 642.598C97.9993 643.938 97.0792 646.818 98.0797 649.512L99.9324 654.501C100.934 657.197 103.51 658.778 106.231 658.19L125.14 654.392L125.831 656.255C125.911 656.47 126.04 656.662 126.209 656.816C126.378 656.97 126.581 657.081 126.802 657.14C127.022 657.199 127.253 657.204 127.475 657.155C127.697 657.105 127.904 657.003 128.078 656.856L133.463 652.319C133.687 652.13 133.847 651.875 133.922 651.591C133.996 651.306 133.981 651.005 133.878 650.729L129.115 637.904L131.651 632.331ZM118.254 635.85L124.134 651.684L105.643 655.394C104.343 655.675 103.12 654.925 102.595 653.512L100.741 648.52C100.216 647.107 100.654 645.74 101.84 645.095L118.254 635.85ZM123.946 632.142L130.865 650.774L127.788 653.366L119.922 632.185L123.946 632.142Z" fill="#FF0217" fill-opacity="0.15"/>
<path d="M229.688 714.537C229.179 709.125 233.153 704.326 238.565 703.817C243.976 703.308 248.776 707.282 249.285 712.693C249.793 718.105 245.819 722.904 240.408 723.413C234.996 723.922 230.197 719.948 229.688 714.537Z" stroke="#FF0217" stroke-opacity="0.15" stroke-width="3.53283" stroke-linecap="round" stroke-linejoin="round"/>
<path d="M226.374 717.285C223.359 717.568 222.506 719.014 221.282 722.171C221.495 724.432 224.722 726.409 227.879 727.633C229.67 730.506 232.968 733.237 234.475 733.096C237.349 731.305 238.141 730.268 237.858 727.253M252.787 709.779C255.802 709.495 256.468 708.216 257.691 705.059C257.479 702.798 254.251 700.821 251.095 699.597C249.304 696.724 246.005 693.992 244.498 694.134C241.625 695.925 240.522 696.842 240.805 699.857" stroke="#FF0217" stroke-opacity="0.15" stroke-width="3.53283" stroke-linecap="round" stroke-linejoin="round"/>
<path d="M135.355 137.434C135.285 137.561 135.242 137.7 135.226 137.845C135.211 137.989 135.224 138.136 135.265 138.276C135.305 138.417 135.373 138.548 135.464 138.663C135.554 138.777 135.666 138.873 135.793 138.945L145.341 144.345L127.848 154.444L127.948 143.474C127.95 143.18 127.837 142.896 127.632 142.683C127.428 142.47 127.15 142.346 126.858 142.339C126.567 142.332 126.286 142.442 126.078 142.645C125.871 142.848 125.752 143.127 125.75 143.421L125.639 155.72L123.333 157.051C122.831 157.341 122.466 157.822 122.32 158.389C122.174 158.956 122.257 159.562 122.553 160.073L123.666 162.002C123.962 162.514 124.444 162.889 125.009 163.046C125.573 163.202 126.172 163.127 126.674 162.837L131.686 171.517C132.424 172.796 133.631 173.735 135.041 174.126C136.452 174.518 137.95 174.33 139.206 173.605L156.256 163.761C157.512 163.036 158.423 161.833 158.789 160.415C159.155 158.998 158.946 157.484 158.208 156.205L153.196 147.525C153.699 147.235 154.063 146.753 154.21 146.187C154.356 145.62 154.273 145.014 153.977 144.502L152.864 142.573C152.568 142.062 152.085 141.686 151.521 141.53C150.957 141.373 150.358 141.448 149.855 141.738L147.55 143.069L136.848 137.014C136.721 136.942 136.582 136.896 136.438 136.879C136.295 136.861 136.15 136.872 136.011 136.91C135.873 136.949 135.744 137.015 135.631 137.105C135.519 137.195 135.424 137.307 135.355 137.434ZM151.302 148.619L156.313 157.298C156.756 158.066 156.882 158.975 156.662 159.825C156.442 160.675 155.896 161.397 155.142 161.832L138.092 171.676C137.339 172.111 136.44 172.224 135.594 171.989C134.747 171.754 134.023 171.191 133.58 170.423L128.569 161.744L151.302 148.619ZM150.969 143.667L152.083 145.596L125.561 160.909L124.447 158.98L150.969 143.667ZM148.627 152.735C148.375 152.88 148.193 153.121 148.12 153.404C148.047 153.688 148.089 153.99 148.236 154.246L151.577 160.033C151.725 160.289 151.966 160.476 152.248 160.555C152.53 160.633 152.83 160.595 153.081 160.45C153.332 160.305 153.515 160.065 153.588 159.781C153.661 159.498 153.619 159.195 153.472 158.939L150.131 153.153C149.983 152.897 149.742 152.709 149.46 152.631C149.178 152.552 148.878 152.59 148.627 152.735ZM144.838 154.922C144.587 155.068 144.404 155.308 144.331 155.592C144.258 155.875 144.3 156.178 144.447 156.434L147.788 162.22C147.936 162.476 148.177 162.664 148.459 162.742C148.742 162.82 149.041 162.783 149.292 162.638C149.544 162.493 149.726 162.252 149.799 161.969C149.872 161.685 149.83 161.382 149.683 161.127L146.342 155.34C146.194 155.084 145.953 154.897 145.671 154.818C145.389 154.74 145.089 154.777 144.838 154.922ZM141.049 157.11C140.798 157.255 140.615 157.496 140.542 157.779C140.469 158.063 140.511 158.365 140.659 158.621L143.999 164.408C144.147 164.664 144.389 164.851 144.671 164.93C144.953 165.008 145.252 164.97 145.503 164.825C145.755 164.68 145.937 164.44 146.01 164.156C146.083 163.873 146.042 163.57 145.894 163.314L142.553 157.528C142.405 157.272 142.164 157.084 141.882 157.006C141.6 156.927 141.3 156.965 141.049 157.11ZM137.26 159.297C137.009 159.443 136.827 159.683 136.753 159.967C136.68 160.25 136.722 160.553 136.87 160.809L140.211 166.595C140.358 166.851 140.6 167.039 140.882 167.117C141.164 167.195 141.463 167.158 141.715 167.013C141.966 166.868 142.148 166.627 142.221 166.344C142.295 166.06 142.253 165.757 142.105 165.502L138.764 159.715C138.616 159.459 138.375 159.272 138.093 159.193C137.811 159.115 137.511 159.152 137.26 159.297ZM133.471 161.485C133.22 161.63 133.038 161.871 132.965 162.154C132.891 162.438 132.933 162.74 133.081 162.996L136.422 168.783C136.569 169.039 136.811 169.226 137.093 169.305C137.375 169.383 137.675 169.345 137.926 169.2C138.177 169.055 138.359 168.815 138.432 168.531C138.506 168.248 138.464 167.945 138.316 167.689L134.975 161.903C134.828 161.647 134.586 161.459 134.304 161.381C134.022 161.302 133.722 161.34 133.471 161.485Z" fill="#FF0217" fill-opacity="0.15"/>
<path d="M24.7269 75.0985C19.4768 76.5052 14.0803 73.3896 12.6736 68.1395C11.2668 62.8894 14.3825 57.493 19.6325 56.0862C24.8826 54.6795 30.2791 57.7951 31.6858 63.0452C33.0926 68.2953 29.977 73.6917 24.7269 75.0985Z" stroke="#FF0217" stroke-opacity="0.15" stroke-width="3.53283" stroke-linecap="round" stroke-linejoin="round"/>
<path d="M27.991 77.9069C28.7747 80.8318 30.3426 81.4313 33.6594 82.1101C35.8531 81.5223 37.2631 78.0095 37.9419 74.6927C40.4749 72.4464 42.6162 68.7377 42.2243 67.2753C39.9781 64.7422 38.8235 64.1339 35.8986 64.9176M16.1732 53.121C15.3895 50.196 14.0172 49.7536 10.7003 49.0749C8.50661 49.6627 7.09663 53.1755 6.41789 56.4923C3.8848 58.7385 1.74358 62.4472 2.13545 63.9097C4.38167 66.4428 5.47009 67.3769 8.39505 66.5932" stroke="#FF0217" stroke-opacity="0.15" stroke-width="3.53283" stroke-linecap="round" stroke-linejoin="round"/>
<path d="M283.497 110.135C283.188 109.926 282.808 109.847 282.44 109.914C282.072 109.981 281.745 110.189 281.529 110.494C281.313 110.799 281.226 111.175 281.286 111.543C281.347 111.91 281.55 112.239 281.852 112.458L284.537 114.336L280.431 115.05C279.835 115.154 279.371 115.619 279.267 116.21L278.059 123.147C278.02 123.371 278.035 123.602 278.105 123.818C278.174 124.035 278.294 124.232 278.456 124.393C278.618 124.554 278.816 124.673 279.035 124.741C279.253 124.81 279.484 124.825 279.71 124.785L281.669 124.444L287.907 142.674C288.776 145.339 291.439 146.768 294.271 146.276L299.514 145.364C302.347 144.871 304.372 142.626 304.289 139.843L304.002 120.559L305.96 120.218C306.186 120.179 306.398 120.087 306.581 119.949C306.763 119.811 306.909 119.632 307.007 119.426C307.105 119.22 307.152 118.994 307.144 118.766C307.136 118.539 307.073 118.317 306.961 118.119L303.481 111.997C303.336 111.742 303.115 111.538 302.849 111.413C302.583 111.288 302.284 111.248 301.993 111.299L288.515 113.644L283.497 110.135ZM284.516 123.949L301.156 121.054L301.432 139.912C301.472 141.241 300.512 142.307 299.027 142.566L293.78 143.478C292.295 143.737 291.031 143.057 290.613 141.773L284.516 123.949ZM281.908 117.676L301.488 114.27L303.476 117.768L281.216 121.64L281.908 117.676Z" fill="#FF0217" fill-opacity="0.15"/>
<path d="M353.777 42.7859L374.323 52.8232L373.327 55.6627L351.897 48.1434L351.27 49.9293L372.7 57.4486L369.567 66.3778L348.137 58.8585C347.003 62.0909 346.987 65.3947 348.036 68.7511C349.084 72.1076 350.973 74.9565 353.683 77.3514L352.586 80.4766L366.873 85.4895L367.969 82.3643C371.564 82.1813 374.842 81.1255 377.752 79.1779C380.662 77.2304 382.72 74.6231 383.854 71.3907L378.496 69.5109L383.509 55.2241L354.403 41L353.777 42.7859ZM381.172 56.169L380.47 58.1692L378.684 57.5426L379.449 55.3638L381.172 56.169ZM379.844 59.955L376.711 68.8843L374.925 68.2577L378.058 59.3284L379.844 59.955ZM371.353 67.0044L374.486 58.0752L376.272 58.7018L373.139 67.631L371.353 67.0044ZM375.113 56.2893L376.021 53.6999L377.751 54.4872L376.899 56.916L375.113 56.2893Z" fill="#FF0217" fill-opacity="0.15"/>
<path d="M113.298 18.8003L136.116 17.3117L136.661 20.2712L114.326 24.3842L114.669 26.2455L137.004 22.1325L138.718 31.4389L116.382 35.552C117.003 38.9209 118.629 41.7967 121.206 44.1895C123.783 46.5824 126.837 48.1177 130.378 48.8511L130.978 52.1084L145.868 49.3664L145.268 46.1091C148.297 44.1657 150.619 41.6213 152.178 38.4862C153.737 35.351 154.229 32.0659 153.608 28.6969L148.024 29.7252L145.282 14.8348L112.955 16.939L113.298 18.8003ZM143.723 16.8155L144.106 18.9002L142.245 19.2429L141.827 16.9721L143.723 16.8155ZM144.449 20.7615L146.163 30.0679L144.302 30.4107L142.588 21.1042L144.449 20.7615ZM140.579 31.0962L138.865 21.7897L140.727 21.447L142.44 30.7534L140.579 31.0962ZM138.523 19.9284L138.026 17.2295L139.918 17.0543L140.384 19.5857L138.523 19.9284Z" fill="#FF0217" fill-opacity="0.15"/>
<path d="M229.688 21.5365C229.179 16.1251 233.153 11.3257 238.565 10.8168C243.976 10.3078 248.776 14.2821 249.285 19.6935C249.793 25.1049 245.819 29.9043 240.408 30.4132C234.996 30.9222 230.197 26.9479 229.688 21.5365Z" stroke="#FF0217" stroke-opacity="0.15" stroke-width="3.53283" stroke-linecap="round" stroke-linejoin="round"/>
<path d="M226.374 24.2848C223.359 24.5684 222.506 26.0139 221.282 29.1705C221.495 31.4317 224.722 33.4093 227.879 34.6331C229.67 37.5062 232.968 40.2375 234.475 40.0957C237.349 38.3047 238.141 37.2682 237.858 34.2533M252.787 16.7786C255.802 16.4951 256.468 15.216 257.691 12.0594C257.479 9.7983 254.251 7.82071 251.095 6.59684C249.304 3.72378 246.005 0.992488 244.498 1.13426C241.625 2.92523 240.522 3.84211 240.805 6.85695" stroke="#FF0217" stroke-opacity="0.15" stroke-width="3.53283" stroke-linecap="round" stroke-linejoin="round"/>
<path d="M10.5303 570.952L32.7497 565.547L33.7973 568.368L12.5069 576.274L13.1658 578.048L34.4562 570.142L37.7505 579.013L16.4601 586.919C17.6526 590.131 19.7511 592.683 22.7021 594.595C25.6532 596.507 28.9262 597.492 32.5409 597.603L33.6939 600.708L47.8876 595.437L46.7345 592.332C49.3828 589.895 51.2306 586.988 52.2248 583.631C53.2191 580.274 53.1367 576.953 51.9441 573.742L46.6215 575.719L41.3506 561.525L9.87144 569.177L10.5303 570.952ZM40.1562 563.745L40.8941 565.732L39.1199 566.391L38.3161 564.227L40.1562 563.745ZM41.553 567.506L44.8473 576.377L43.0731 577.036L39.7788 568.165L41.553 567.506ZM39.5247 578.354L36.2304 569.483L38.0046 568.824L41.2989 577.695L39.5247 578.354ZM35.5715 567.709L34.6162 565.136L36.4497 564.637L37.3457 567.05L35.5715 567.709Z" fill="#FF0217" fill-opacity="0.15"/>
</svg>
