<svg width="392" height="843" viewBox="0 0 392 843" fill="none" xmlns="http://www.w3.org/2000/svg">
<path d="M40.888 374.956C41.0283 374.922 41.1744 374.916 41.318 374.938C41.4616 374.961 41.5999 375.012 41.7249 375.087C41.85 375.163 41.9593 375.262 42.0467 375.379C42.1342 375.496 42.1979 375.629 42.2344 375.77L44.9786 386.391L59.2617 372.108L48.6397 369.365C48.3551 369.291 48.1094 369.108 47.9567 368.855C47.804 368.603 47.7567 368.302 47.8254 368.019C47.894 367.735 48.0729 367.493 48.3227 367.345C48.5725 367.196 48.8728 367.155 49.1574 367.228L61.0653 370.304L62.9478 368.422C63.358 368.011 63.9174 367.784 64.5028 367.789C65.0882 367.794 65.6518 368.032 66.0695 368.45L67.6444 370.025C68.0621 370.442 68.2997 371.006 68.305 371.591C68.3102 372.177 68.0827 372.736 67.6725 373.146L74.7596 380.233C75.8038 381.278 76.3978 382.686 76.411 384.15C76.4242 385.614 75.8554 387.012 74.8298 388.038L60.9087 401.959C59.8831 402.984 58.4847 403.553 57.0211 403.54C55.5575 403.527 54.1486 402.933 53.1044 401.889L46.0173 394.801C45.6071 395.212 45.0477 395.439 44.4623 395.434C43.8769 395.429 43.3133 395.191 42.8956 394.773L41.3207 393.198C40.903 392.781 40.6654 392.217 40.6601 391.632C40.6549 391.046 40.8824 390.487 41.2926 390.077L43.1751 388.194L40.0962 376.289C40.0597 376.148 40.0511 376.002 40.0711 375.859C40.091 375.716 40.139 375.578 40.2124 375.455C40.2858 375.331 40.3831 375.223 40.4988 375.138C40.6144 375.053 40.7477 374.99 40.888 374.956ZM47.5641 393.255L54.6512 400.342C55.2778 400.968 56.1231 401.325 57.0012 401.333C57.8794 401.34 58.7184 400.999 59.3338 400.384L73.2549 386.463C73.8703 385.847 74.2115 385.008 74.2036 384.13C74.1957 383.252 73.8393 382.407 73.2128 381.78L66.1257 374.693L47.5641 393.255ZM42.8675 391.652L44.4424 393.227L66.0976 371.571L64.5227 369.996L42.8675 391.652ZM52.2326 391.736C52.4378 391.531 52.7174 391.417 53.0101 391.42C53.3029 391.422 53.5846 391.541 53.7935 391.75L58.5182 396.475C58.7271 396.684 58.8459 396.965 58.8485 397.258C58.8511 397.551 58.7374 397.83 58.5323 398.036C58.3271 398.241 58.0475 398.354 57.7547 398.352C57.462 398.349 57.1803 398.23 56.9714 398.022L52.2467 393.297C52.0378 393.088 51.919 392.806 51.9164 392.513C51.9138 392.221 52.0275 391.941 52.2326 391.736ZM55.3262 388.642C55.5313 388.437 55.811 388.323 56.1037 388.326C56.3965 388.329 56.6782 388.448 56.8871 388.656L61.6118 393.381C61.8206 393.59 61.9395 393.872 61.9421 394.164C61.9447 394.457 61.831 394.737 61.6259 394.942C61.4207 395.147 61.1411 395.261 60.8483 395.258C60.5556 395.256 60.2738 395.137 60.065 394.928L55.3403 390.203C55.1314 389.994 55.0126 389.713 55.01 389.42C55.0074 389.127 55.1211 388.847 55.3262 388.642ZM58.4198 385.549C58.6249 385.344 58.9046 385.23 59.1973 385.233C59.49 385.235 59.7718 385.354 59.9807 385.563L64.7054 390.288C64.9142 390.496 65.033 390.778 65.0357 391.071C65.0383 391.364 64.9246 391.643 64.7194 391.848C64.5143 392.054 64.2346 392.167 63.9419 392.165C63.6492 392.162 63.3674 392.043 63.1586 391.834L58.4339 387.11C58.225 386.901 58.1062 386.619 58.1036 386.326C58.1009 386.034 58.2147 385.754 58.4198 385.549ZM61.5134 382.455C61.7185 382.25 61.9982 382.136 62.2909 382.139C62.5836 382.142 62.8654 382.26 63.0743 382.469L67.799 387.194C68.0078 387.403 68.1266 387.685 68.1293 387.977C68.1319 388.27 68.0182 388.55 67.813 388.755C67.6079 388.96 67.3282 389.074 67.0355 389.071C66.7428 389.068 66.461 388.95 66.2522 388.741L61.5275 384.016C61.3186 383.807 61.1998 383.525 61.1972 383.233C61.1945 382.94 61.3083 382.66 61.5134 382.455ZM64.607 379.362C64.8121 379.156 65.0918 379.043 65.3845 379.045C65.6772 379.048 65.959 379.167 66.1679 379.376L70.8926 384.1C71.1014 384.309 71.2202 384.591 71.2229 384.884C71.2255 385.176 71.1117 385.456 70.9066 385.661C70.7015 385.866 70.4218 385.98 70.1291 385.977C69.8364 385.975 69.5546 385.856 69.3458 385.647L64.6211 380.922C64.4122 380.714 64.2934 380.432 64.2908 380.139C64.2881 379.846 64.4019 379.567 64.607 379.362Z" fill="white" fill-opacity="0.5"/>
<path d="M278.313 219.93C278.409 220.038 278.482 220.165 278.528 220.303C278.575 220.44 278.594 220.586 278.585 220.732C278.576 220.878 278.539 221.021 278.476 221.153C278.412 221.284 278.324 221.403 278.216 221.5L270.08 228.857L289.358 234.887L286.862 224.204C286.795 223.918 286.844 223.615 286.996 223.363C287.149 223.11 287.394 222.929 287.677 222.858C287.96 222.788 288.258 222.834 288.505 222.986C288.752 223.139 288.928 223.386 288.995 223.672L291.793 235.648L294.334 236.443C294.887 236.616 295.348 237.006 295.615 237.527C295.882 238.048 295.933 238.658 295.757 239.221L295.092 241.347C294.915 241.911 294.526 242.383 294.01 242.659C293.494 242.935 292.893 242.993 292.339 242.82L289.347 252.386C288.906 253.795 287.934 254.975 286.643 255.665C285.353 256.356 283.85 256.5 282.466 256.067L263.676 250.191C262.292 249.758 261.139 248.783 260.472 247.48C259.805 246.177 259.678 244.653 260.119 243.244L263.11 233.678C262.557 233.505 262.096 233.115 261.829 232.594C261.562 232.073 261.511 231.463 261.687 230.9L262.352 228.774C262.529 228.21 262.918 227.738 263.434 227.462C263.95 227.186 264.551 227.128 265.105 227.301L267.646 228.096L276.765 219.847C276.873 219.749 276.998 219.674 277.134 219.625C277.27 219.576 277.414 219.555 277.558 219.563C277.702 219.57 277.842 219.607 277.971 219.669C278.101 219.732 278.218 219.821 278.313 219.93ZM265.198 234.331L262.206 243.897C261.942 244.743 262.018 245.657 262.418 246.439C262.819 247.22 263.51 247.805 264.341 248.065L283.131 253.942C283.961 254.202 284.863 254.115 285.637 253.7C286.411 253.286 286.995 252.578 287.26 251.733L290.251 242.167L265.198 234.331ZM264.44 229.427L263.775 231.553L293.004 240.694L293.669 238.569L264.44 229.427ZM268.709 237.763C268.986 237.85 269.216 238.045 269.35 238.305C269.483 238.566 269.508 238.87 269.42 239.152L267.426 245.529C267.338 245.811 267.143 246.047 266.885 246.185C266.627 246.323 266.326 246.352 266.049 246.266C265.773 246.179 265.542 245.984 265.409 245.724C265.275 245.463 265.25 245.158 265.338 244.876L267.332 238.499C267.421 238.217 267.615 237.982 267.873 237.843C268.131 237.705 268.432 237.676 268.709 237.763ZM272.884 239.069C273.161 239.155 273.392 239.351 273.525 239.611C273.659 239.872 273.684 240.176 273.596 240.458L271.601 246.835C271.513 247.117 271.319 247.353 271.06 247.491C270.802 247.629 270.502 247.658 270.225 247.572C269.948 247.485 269.718 247.29 269.584 247.03C269.451 246.769 269.425 246.464 269.513 246.182L271.508 239.805C271.596 239.523 271.791 239.287 272.049 239.149C272.307 239.011 272.607 238.982 272.884 239.069ZM277.06 240.375C277.337 240.461 277.567 240.656 277.701 240.917C277.834 241.178 277.859 241.482 277.771 241.764L275.777 248.141C275.689 248.423 275.494 248.659 275.236 248.797C274.978 248.935 274.677 248.964 274.4 248.878C274.124 248.791 273.893 248.596 273.76 248.336C273.626 248.075 273.601 247.77 273.689 247.488L275.684 241.111C275.772 240.829 275.966 240.593 276.224 240.455C276.482 240.317 276.783 240.288 277.06 240.375ZM281.235 241.681C281.512 241.767 281.743 241.962 281.876 242.223C282.01 242.484 282.035 242.788 281.947 243.07L279.952 249.447C279.864 249.729 279.67 249.965 279.412 250.103C279.153 250.241 278.853 250.27 278.576 250.184C278.299 250.097 278.069 249.902 277.935 249.641C277.802 249.381 277.776 249.076 277.865 248.794L279.859 242.417C279.947 242.135 280.142 241.899 280.4 241.761C280.658 241.623 280.959 241.594 281.235 241.681ZM285.411 242.987C285.688 243.073 285.918 243.268 286.052 243.529C286.185 243.789 286.211 244.094 286.122 244.376L284.128 250.753C284.04 251.035 283.845 251.271 283.587 251.409C283.329 251.547 283.028 251.576 282.752 251.49C282.475 251.403 282.244 251.208 282.111 250.947C281.977 250.687 281.952 250.382 282.04 250.1L284.035 243.723C284.123 243.441 284.317 243.205 284.575 243.067C284.834 242.929 285.134 242.9 285.411 242.987Z" fill="white" fill-opacity="0.5"/>
<path d="M180.59 340.707C180.597 340.333 180.751 339.977 181.018 339.715C181.284 339.452 181.643 339.304 182.016 339.303C182.39 339.302 182.748 339.448 183.014 339.709C183.279 339.969 183.431 340.325 183.437 340.698L183.427 343.975L186.375 341.027C186.803 340.599 187.45 340.488 187.993 340.743L194.361 343.746C194.567 343.844 194.747 343.989 194.884 344.17C195.022 344.352 195.113 344.564 195.152 344.789C195.19 345.013 195.173 345.244 195.104 345.462C195.034 345.68 194.913 345.878 194.751 346.039L193.345 347.446L204.665 363.037C206.344 365.282 205.98 368.283 203.948 370.315L200.185 374.078C198.151 376.112 195.15 376.475 192.922 374.807L177.316 363.475L175.911 364.88C175.749 365.042 175.551 365.163 175.333 365.233C175.116 365.302 174.885 365.319 174.66 365.28C174.435 365.242 174.223 365.15 174.042 365.013C173.86 364.875 173.715 364.696 173.617 364.49L170.614 358.122C170.488 357.856 170.449 357.558 170.5 357.269C170.551 356.979 170.69 356.712 170.898 356.503L180.573 346.829L180.59 340.707ZM191.302 349.489L179.359 361.432L194.622 372.51C195.686 373.307 197.11 373.136 198.176 372.07L201.942 368.304C203.008 367.238 203.18 365.813 202.37 364.732L191.302 349.489ZM187.672 343.746L173.619 357.8L175.336 361.438L191.312 345.462L187.672 343.746Z" fill="white" fill-opacity="0.5"/>
<path d="M317.334 476.532C317.567 476.241 317.907 476.053 318.278 476.008C318.65 475.963 319.024 476.065 319.32 476.292C319.617 476.52 319.811 476.854 319.862 477.222C319.913 477.591 319.817 477.965 319.593 478.264L317.584 480.853L321.718 480.319C322.319 480.242 322.899 480.549 323.174 481.082L326.382 487.35C326.485 487.553 326.538 487.778 326.537 488.005C326.535 488.233 326.478 488.457 326.371 488.658C326.264 488.86 326.11 489.032 325.922 489.162C325.734 489.292 325.517 489.375 325.29 489.404L323.317 489.659L322.758 508.918C322.717 511.72 320.596 513.875 317.746 514.243L312.468 514.924C309.615 515.292 307.017 513.747 306.272 511.066L300.835 492.561L298.864 492.816C298.638 492.845 298.407 492.82 298.192 492.742C297.977 492.664 297.784 492.536 297.63 492.369C297.475 492.201 297.363 491.999 297.303 491.779C297.244 491.559 297.238 491.329 297.287 491.106L298.798 484.229C298.861 483.942 299.011 483.682 299.229 483.484C299.446 483.286 299.72 483.159 300.012 483.122L313.58 481.37L317.334 476.532ZM320.452 490.029L303.701 492.191L309.021 510.285C309.376 511.566 310.609 512.3 312.104 512.107L317.386 511.425C318.881 511.232 319.887 510.209 319.906 508.859L320.452 490.029ZM321.085 483.265L301.374 485.809L300.511 489.739L322.92 486.846L321.085 483.265Z" fill="white" fill-opacity="0.5"/>
<path d="M138.95 471.513C134.344 468.627 128.27 470.022 125.385 474.628C122.499 479.234 123.893 485.307 128.499 488.193C133.105 491.079 139.178 489.684 142.064 485.078C144.95 480.472 143.555 474.399 138.95 471.513Z" stroke="white" stroke-opacity="0.5" stroke-width="3.53283" stroke-linecap="round" stroke-linejoin="round"/>
<path d="M142.894 469.787C144.502 467.221 146.177 467.108 149.547 467.432C151.471 468.638 151.788 472.41 151.463 475.78C153.225 478.671 154.184 482.845 153.38 484.128C150.489 485.89 149.207 486.133 146.641 484.525M124.322 490.012C122.714 492.578 121.272 492.598 117.902 492.273C115.978 491.068 115.661 487.296 115.986 483.926C114.223 481.035 113.265 476.861 114.069 475.578C116.96 473.816 118.274 473.242 120.84 474.85" stroke="white" stroke-opacity="0.5" stroke-width="3.53283" stroke-linecap="round" stroke-linejoin="round"/>
<path d="M143.207 284.22L122.712 274.077L121.071 276.6L140.111 288.98L139.08 290.567L120.04 278.187L114.881 286.12L133.921 298.5C132.054 301.372 129.447 303.402 126.149 304.621C122.85 305.84 119.441 306.084 115.89 305.4L114.084 308.177L101.391 299.923L103.197 297.147C101.147 294.189 99.981 290.947 99.7467 287.454C99.5124 283.96 100.321 280.739 102.188 277.867L106.948 280.962L115.202 268.268L144.238 282.634L143.207 284.22ZM115.88 270.696L114.725 272.473L116.311 273.505L117.57 271.569L115.88 270.696ZM113.693 274.06L108.535 281.993L110.121 283.025L115.28 275.092L113.693 274.06ZM113.295 285.088L118.453 277.155L116.866 276.123L111.708 284.057L113.295 285.088ZM119.485 275.568L120.981 273.268L119.301 272.379L117.898 274.537L119.485 275.568Z" fill="white" fill-opacity="0.5"/>
<path d="M136.355 789.434C136.286 789.561 136.242 789.7 136.227 789.845C136.212 789.989 136.225 790.136 136.265 790.276C136.306 790.417 136.373 790.548 136.464 790.663C136.555 790.777 136.667 790.873 136.793 790.945L146.342 796.345L128.848 806.444L128.948 795.474C128.951 795.18 128.837 794.896 128.633 794.683C128.429 794.47 128.15 794.346 127.859 794.339C127.567 794.332 127.287 794.442 127.079 794.645C126.871 794.848 126.753 795.127 126.751 795.421L126.639 807.72L124.334 809.051C123.832 809.341 123.467 809.822 123.321 810.389C123.174 810.956 123.258 811.562 123.553 812.073L124.667 814.002C124.962 814.514 125.445 814.889 126.009 815.046C126.573 815.202 127.172 815.127 127.675 814.837L132.686 823.517C133.425 824.796 134.632 825.735 136.042 826.126C137.452 826.518 138.95 826.33 140.206 825.605L157.256 815.761C158.512 815.036 159.424 813.833 159.79 812.415C160.156 810.998 159.947 809.484 159.208 808.205L154.197 799.525C154.699 799.235 155.064 798.753 155.21 798.187C155.357 797.62 155.273 797.014 154.978 796.502L153.864 794.573C153.569 794.062 153.086 793.686 152.522 793.53C151.958 793.373 151.358 793.448 150.856 793.738L148.55 795.069L137.848 789.014C137.721 788.942 137.582 788.896 137.439 788.879C137.295 788.861 137.15 788.872 137.012 788.91C136.873 788.949 136.744 789.015 136.632 789.105C136.52 789.195 136.424 789.307 136.355 789.434ZM152.302 800.619L157.314 809.298C157.757 810.066 157.882 810.975 157.663 811.825C157.443 812.675 156.896 813.397 156.143 813.832L139.093 823.676C138.339 824.111 137.44 824.224 136.594 823.989C135.748 823.754 135.024 823.191 134.581 822.423L129.569 813.744L152.302 800.619ZM151.97 795.667L153.083 797.596L126.561 812.909L125.448 810.98L151.97 795.667ZM149.627 804.735C149.376 804.88 149.194 805.121 149.12 805.404C149.047 805.688 149.089 805.99 149.237 806.246L152.578 812.033C152.725 812.289 152.967 812.476 153.249 812.555C153.531 812.633 153.83 812.595 154.082 812.45C154.333 812.305 154.515 812.065 154.588 811.781C154.662 811.498 154.62 811.195 154.472 810.939L151.131 805.153C150.984 804.897 150.742 804.709 150.46 804.631C150.178 804.552 149.878 804.59 149.627 804.735ZM145.838 806.922C145.587 807.068 145.405 807.308 145.332 807.592C145.258 807.875 145.3 808.178 145.448 808.434L148.789 814.22C148.936 814.476 149.178 814.664 149.46 814.742C149.742 814.82 150.042 814.783 150.293 814.638C150.544 814.493 150.726 814.252 150.8 813.969C150.873 813.685 150.831 813.382 150.683 813.127L147.342 807.34C147.195 807.084 146.953 806.897 146.671 806.818C146.389 806.74 146.09 806.777 145.838 806.922ZM142.049 809.11C141.798 809.255 141.616 809.496 141.543 809.779C141.47 810.063 141.511 810.365 141.659 810.621L145 816.408C145.148 816.664 145.389 816.851 145.671 816.93C145.953 817.008 146.253 816.97 146.504 816.825C146.755 816.68 146.937 816.44 147.011 816.156C147.084 815.873 147.042 815.57 146.894 815.314L143.553 809.528C143.406 809.272 143.164 809.084 142.882 809.006C142.6 808.927 142.301 808.965 142.049 809.11ZM138.261 811.297C138.009 811.443 137.827 811.683 137.754 811.967C137.681 812.25 137.723 812.553 137.87 812.809L141.211 818.595C141.359 818.851 141.6 819.039 141.882 819.117C142.164 819.195 142.464 819.158 142.715 819.013C142.966 818.868 143.149 818.627 143.222 818.344C143.295 818.06 143.253 817.757 143.106 817.502L139.765 811.715C139.617 811.459 139.376 811.272 139.093 811.193C138.811 811.115 138.512 811.152 138.261 811.297ZM134.472 813.485C134.221 813.63 134.038 813.871 133.965 814.154C133.892 814.438 133.934 814.74 134.081 814.996L137.422 820.783C137.57 821.039 137.811 821.226 138.093 821.305C138.375 821.383 138.675 821.345 138.926 821.2C139.177 821.055 139.36 820.815 139.433 820.531C139.506 820.248 139.464 819.945 139.317 819.689L135.976 813.903C135.828 813.647 135.587 813.459 135.305 813.381C135.023 813.302 134.723 813.34 134.472 813.485Z" fill="white" fill-opacity="0.5"/>
<path d="M25.7266 769.099C20.4765 770.505 15.0801 767.39 13.6733 762.14C12.2666 756.89 15.3822 751.493 20.6323 750.086C25.8824 748.68 31.2788 751.795 32.6856 757.045C34.0923 762.295 30.9767 767.692 25.7266 769.099Z" stroke="white" stroke-opacity="0.5" stroke-width="3.53283" stroke-linecap="round" stroke-linejoin="round"/>
<path d="M28.9905 771.907C29.7742 774.832 31.3421 775.431 34.6589 776.11C36.8526 775.522 38.2626 772.009 38.9414 768.693C41.4745 766.446 43.6157 762.738 43.2238 761.275C40.9776 758.742 39.823 758.134 36.8981 758.918M17.1727 747.121C16.389 744.196 15.0167 743.754 11.6998 743.075C9.50612 743.663 8.09614 747.175 7.4174 750.492C4.88431 752.739 2.74309 756.447 3.13496 757.91C5.38118 760.443 6.4696 761.377 9.39456 760.593" stroke="white" stroke-opacity="0.5" stroke-width="3.53283" stroke-linecap="round" stroke-linejoin="round"/>
<path d="M284.497 804.135C284.188 803.926 283.808 803.847 283.44 803.914C283.072 803.981 282.745 804.189 282.529 804.494C282.313 804.799 282.226 805.175 282.286 805.543C282.347 805.91 282.55 806.239 282.852 806.458L285.537 808.336L281.431 809.05C280.835 809.154 280.371 809.619 280.267 810.21L279.059 817.147C279.02 817.371 279.035 817.602 279.105 817.818C279.174 818.035 279.294 818.232 279.456 818.393C279.618 818.554 279.816 818.673 280.035 818.741C280.253 818.81 280.484 818.825 280.71 818.785L282.669 818.444L288.907 836.674C289.776 839.339 292.439 840.768 295.271 840.276L300.514 839.364C303.347 838.871 305.372 836.626 305.289 833.843L305.002 814.559L306.96 814.218C307.186 814.179 307.398 814.087 307.581 813.949C307.763 813.811 307.909 813.632 308.007 813.426C308.105 813.22 308.152 812.994 308.144 812.766C308.136 812.539 308.073 812.317 307.961 812.119L304.481 805.997C304.336 805.742 304.115 805.538 303.849 805.413C303.583 805.288 303.284 805.248 302.993 805.299L289.515 807.644L284.497 804.135ZM285.516 817.949L302.156 815.054L302.432 833.912C302.472 835.241 301.512 836.307 300.027 836.566L294.78 837.478C293.295 837.737 292.031 837.057 291.613 835.773L285.516 817.949ZM282.908 811.676L302.488 808.27L304.476 811.768L282.216 815.64L282.908 811.676Z" fill="white" fill-opacity="0.5"/>
<path d="M360.504 603.686C355.253 602.279 352.138 596.882 353.545 591.632C354.951 586.382 360.348 583.267 365.598 584.673C370.848 586.08 373.964 591.477 372.557 596.727C371.15 601.977 365.754 605.092 360.504 603.686Z" stroke="white" stroke-opacity="0.5" stroke-width="3.53283" stroke-linecap="round" stroke-linejoin="round"/>
<path d="M361.926 607.75C361.142 610.675 362.2 611.978 364.733 614.224C366.927 614.812 369.905 612.475 372.151 609.941C375.468 609.263 379.176 607.122 379.568 605.659C378.889 602.342 378.194 601.238 375.269 600.454M364.084 580.376C364.868 577.451 363.901 576.381 361.368 574.135C359.174 573.547 356.197 575.884 353.95 578.418C350.634 579.096 346.925 581.237 346.533 582.7C347.212 586.017 347.687 587.37 350.612 588.154" stroke="white" stroke-opacity="0.5" stroke-width="3.53283" stroke-linecap="round" stroke-linejoin="round"/>
<path d="M354.777 736.786L375.323 746.823L374.327 749.663L352.897 742.143L352.27 743.929L373.7 751.449L370.567 760.378L349.137 752.858C348.003 756.091 347.987 759.395 349.036 762.751C350.084 766.108 351.973 768.956 354.683 771.351L353.586 774.477L367.873 779.49L368.969 776.364C372.564 776.181 375.842 775.125 378.752 773.178C381.662 771.23 383.72 768.623 384.854 765.391L379.496 763.511L384.509 749.224L355.403 735L354.777 736.786ZM382.172 750.169L381.47 752.169L379.684 751.543L380.449 749.364L382.172 750.169ZM380.844 753.955L377.711 762.884L375.925 762.258L379.058 753.328L380.844 753.955ZM372.353 761.004L375.486 752.075L377.272 752.702L374.139 761.631L372.353 761.004ZM376.113 750.289L377.021 747.7L378.751 748.487L377.899 750.916L376.113 750.289Z" fill="white" fill-opacity="0.5"/>
<path d="M252.227 571.956C252.086 571.922 251.94 571.916 251.797 571.938C251.653 571.961 251.515 572.011 251.39 572.087C251.265 572.163 251.155 572.262 251.068 572.379C250.981 572.496 250.917 572.629 250.88 572.77L248.136 583.391L233.853 569.108L244.475 566.365C244.76 566.291 245.005 566.108 245.158 565.855C245.311 565.603 245.358 565.302 245.289 565.019C245.221 564.735 245.042 564.493 244.792 564.345C244.542 564.196 244.242 564.155 243.957 564.228L232.049 567.304L230.167 565.422C229.757 565.011 229.197 564.784 228.612 564.789C228.027 564.794 227.463 565.032 227.045 565.45L225.47 567.025C225.053 567.442 224.815 568.006 224.81 568.591C224.805 569.177 225.032 569.736 225.442 570.146L218.355 577.233C217.311 578.278 216.717 579.686 216.704 581.15C216.691 582.614 217.259 584.012 218.285 585.038L232.206 598.959C233.232 599.984 234.63 600.553 236.094 600.54C237.557 600.527 238.966 599.933 240.01 598.889L247.097 591.801C247.508 592.212 248.067 592.439 248.652 592.434C249.238 592.429 249.801 592.191 250.219 591.773L251.794 590.198C252.212 589.781 252.449 589.217 252.455 588.632C252.46 588.046 252.232 587.487 251.822 587.077L249.94 585.194L253.018 573.289C253.055 573.148 253.064 573.002 253.044 572.859C253.024 572.716 252.976 572.578 252.902 572.455C252.829 572.331 252.732 572.223 252.616 572.138C252.5 572.053 252.367 571.99 252.227 571.956ZM245.551 590.255L238.464 597.342C237.837 597.968 236.992 598.325 236.114 598.333C235.235 598.34 234.396 597.999 233.781 597.384L219.86 583.463C219.244 582.847 218.903 582.008 218.911 581.13C218.919 580.252 219.275 579.407 219.902 578.78L226.989 571.693L245.551 590.255ZM250.247 588.652L248.672 590.227L227.017 568.571L228.592 566.996L250.247 588.652ZM240.882 588.736C240.677 588.531 240.397 588.417 240.105 588.42C239.812 588.422 239.53 588.541 239.321 588.75L234.597 593.475C234.388 593.684 234.269 593.965 234.266 594.258C234.264 594.551 234.377 594.83 234.582 595.036C234.788 595.241 235.067 595.354 235.36 595.352C235.653 595.349 235.934 595.23 236.143 595.022L240.868 590.297C241.077 590.088 241.196 589.806 241.198 589.513C241.201 589.221 241.087 588.941 240.882 588.736ZM237.789 585.642C237.583 585.437 237.304 585.323 237.011 585.326C236.718 585.329 236.437 585.448 236.228 585.656L231.503 590.381C231.294 590.59 231.175 590.872 231.173 591.164C231.17 591.457 231.284 591.737 231.489 591.942C231.694 592.147 231.974 592.261 232.266 592.258C232.559 592.256 232.841 592.137 233.05 591.928L237.774 587.203C237.983 586.994 238.102 586.713 238.105 586.42C238.107 586.127 237.994 585.847 237.789 585.642ZM234.695 582.549C234.49 582.344 234.21 582.23 233.917 582.233C233.625 582.235 233.343 582.354 233.134 582.563L228.409 587.288C228.201 587.496 228.082 587.778 228.079 588.071C228.076 588.364 228.19 588.643 228.395 588.848C228.6 589.054 228.88 589.167 229.173 589.165C229.466 589.162 229.747 589.043 229.956 588.834L234.681 584.11C234.89 583.901 235.009 583.619 235.011 583.326C235.014 583.034 234.9 582.754 234.695 582.549ZM231.601 579.455C231.396 579.25 231.117 579.136 230.824 579.139C230.531 579.142 230.249 579.26 230.04 579.469L225.316 584.194C225.107 584.403 224.988 584.685 224.985 584.977C224.983 585.27 225.097 585.55 225.302 585.755C225.507 585.96 225.787 586.074 226.079 586.071C226.372 586.068 226.654 585.95 226.863 585.741L231.587 581.016C231.796 580.807 231.915 580.525 231.918 580.233C231.92 579.94 231.806 579.66 231.601 579.455ZM228.508 576.362C228.303 576.156 228.023 576.043 227.73 576.045C227.438 576.048 227.156 576.167 226.947 576.376L222.222 581.1C222.013 581.309 221.895 581.591 221.892 581.884C221.889 582.176 222.003 582.456 222.208 582.661C222.413 582.866 222.693 582.98 222.986 582.977C223.278 582.975 223.56 582.856 223.769 582.647L228.494 577.922C228.703 577.714 228.821 577.432 228.824 577.139C228.827 576.846 228.713 576.567 228.508 576.362Z" fill="white" fill-opacity="0.5"/>
<path d="M45.7788 215.707C45.7716 215.333 45.618 214.977 45.3511 214.715C45.0843 214.452 44.7256 214.304 44.3523 214.303C43.9789 214.302 43.6209 214.448 43.3551 214.709C43.0894 214.969 42.9374 215.325 42.9317 215.698L42.9415 218.975L39.9941 216.027C39.5661 215.599 38.9188 215.488 38.3758 215.743L32.0074 218.746C31.8014 218.844 31.6221 218.989 31.4846 219.17C31.347 219.352 31.2553 219.564 31.217 219.789C31.1788 220.013 31.1952 220.244 31.2649 220.462C31.3345 220.68 31.4554 220.878 31.6174 221.039L33.0238 222.446L21.7039 238.037C20.0251 240.282 20.3886 243.283 22.4209 245.315L26.1839 249.078C28.2175 251.112 31.2186 251.475 33.4467 249.807L49.053 238.475L50.4581 239.88C50.6198 240.042 50.8178 240.163 51.0355 240.233C51.2531 240.302 51.4841 240.319 51.7089 240.28C51.9337 240.242 52.1457 240.15 52.3271 240.013C52.5085 239.875 52.6539 239.696 52.7512 239.49L55.7549 233.122C55.8802 232.856 55.92 232.558 55.869 232.269C55.8181 231.979 55.6787 231.712 55.4702 231.503L45.7961 221.829L45.7788 215.707ZM35.0668 224.489L47.01 236.432L31.7466 247.51C30.6829 248.307 29.2582 248.136 28.1922 247.07L24.4265 243.304C23.3606 242.238 23.1891 240.813 23.9984 239.732L35.0668 224.489ZM38.6964 218.746L52.7499 232.8L51.0331 236.438L35.0563 220.462L38.6964 218.746Z" fill="white" fill-opacity="0.5"/>
<path d="M354.202 332.774C351.484 328.067 353.097 322.048 357.804 319.33C362.511 316.613 368.53 318.225 371.247 322.932C373.965 327.64 372.352 333.659 367.645 336.376C362.938 339.094 356.919 337.481 354.202 332.774Z" stroke="white" stroke-opacity="0.5" stroke-width="3.53283" stroke-linecap="round" stroke-linejoin="round"/>
<path d="M352.334 336.653C349.711 338.168 349.538 339.837 349.741 343.217C350.876 345.183 354.634 345.636 358.014 345.433C360.839 347.299 364.976 348.407 366.287 347.65C368.152 344.825 368.441 343.552 366.927 340.93M373.216 318.823C375.839 317.309 375.911 315.869 375.708 312.49C374.572 310.523 370.814 310.07 367.435 310.273C364.61 308.408 360.473 307.299 359.162 308.056C357.297 310.881 356.676 312.175 358.19 314.797" stroke="white" stroke-opacity="0.5" stroke-width="3.53283" stroke-linecap="round" stroke-linejoin="round"/>
<path d="M278.266 396.263L300.384 402.067L299.965 405.047L277.476 401.885L277.212 403.759L299.702 406.921L298.384 416.292L275.895 413.13C275.418 416.522 276.051 419.765 277.739 422.85C279.427 425.935 281.838 428.357 284.966 430.173L284.505 433.453L299.498 435.561L299.959 432.281C303.447 431.395 306.454 429.716 308.925 427.235C311.395 424.753 312.901 421.792 313.378 418.4L307.755 417.61L309.863 402.617L278.53 394.389L278.266 396.263ZM307.757 404.002L307.462 406.101L305.588 405.838L305.909 403.551L307.757 404.002ZM307.199 407.975L305.881 417.346L304.007 417.083L305.324 407.712L307.199 407.975ZM300.259 416.556L301.576 407.185L303.45 407.448L302.133 416.819L300.259 416.556ZM301.84 405.311L302.222 402.593L304.072 403.025L303.714 405.574L301.84 405.311Z" fill="white" fill-opacity="0.5"/>
<path d="M132.652 633.331C132.8 632.988 132.809 632.6 132.676 632.251C132.543 631.901 132.278 631.617 131.94 631.46C131.601 631.304 131.214 631.287 130.864 631.413C130.514 631.54 130.228 631.799 130.067 632.136L128.71 635.119L127.259 631.212C127.049 630.644 126.507 630.273 125.907 630.278L118.866 630.355C118.638 630.358 118.415 630.415 118.214 630.523C118.014 630.63 117.842 630.785 117.713 630.973C117.585 631.162 117.504 631.378 117.476 631.605C117.449 631.832 117.476 632.063 117.556 632.277L118.248 634.142L101.461 643.598C98.9998 644.938 98.0797 647.818 99.0802 650.512L100.933 655.501C101.934 658.197 104.511 659.778 107.231 659.19L126.14 655.392L126.832 657.255C126.911 657.47 127.041 657.662 127.21 657.816C127.379 657.97 127.582 658.081 127.802 658.14C128.022 658.199 128.253 658.204 128.476 658.155C128.698 658.105 128.905 658.003 129.079 657.856L134.463 653.319C134.688 653.13 134.848 652.875 134.922 652.591C134.997 652.306 134.982 652.005 134.879 651.729L130.116 638.904L132.652 633.331ZM119.254 636.85L125.134 652.684L106.643 656.394C105.344 656.675 104.12 655.925 103.595 654.512L101.741 649.52C101.217 648.107 101.654 646.74 102.841 646.095L119.254 636.85ZM124.947 633.142L131.866 651.774L128.789 654.366L120.923 633.185L124.947 633.142Z" fill="white" fill-opacity="0.5"/>
<path d="M230.688 715.537C230.179 710.125 234.153 705.326 239.565 704.817C244.976 704.308 249.775 708.282 250.284 713.693C250.793 719.105 246.819 723.904 241.408 724.413C235.996 724.922 231.197 720.948 230.688 715.537Z" stroke="white" stroke-opacity="0.5" stroke-width="3.53283" stroke-linecap="round" stroke-linejoin="round"/>
<path d="M227.373 718.285C224.359 718.568 223.505 720.014 222.281 723.171C222.494 725.432 225.722 727.409 228.878 728.633C230.669 731.506 233.968 734.237 235.475 734.096C238.348 732.305 239.141 731.268 238.857 728.253M253.787 710.779C256.801 710.495 257.467 709.216 258.691 706.059C258.478 703.798 255.251 701.821 252.094 700.597C250.303 697.724 247.005 694.992 245.497 695.134C242.624 696.925 241.521 697.842 241.805 700.857" stroke="white" stroke-opacity="0.5" stroke-width="3.53283" stroke-linecap="round" stroke-linejoin="round"/>
<path d="M136.355 138.434C136.285 138.561 136.242 138.7 136.226 138.845C136.211 138.989 136.224 139.136 136.265 139.276C136.305 139.417 136.373 139.548 136.464 139.663C136.554 139.777 136.666 139.873 136.793 139.945L146.341 145.345L128.848 155.444L128.948 144.474C128.95 144.18 128.837 143.896 128.632 143.683C128.428 143.47 128.15 143.346 127.858 143.339C127.567 143.332 127.286 143.442 127.078 143.645C126.871 143.848 126.752 144.127 126.75 144.421L126.639 156.72L124.333 158.051C123.831 158.341 123.466 158.822 123.32 159.389C123.174 159.956 123.257 160.562 123.553 161.073L124.666 163.002C124.962 163.514 125.444 163.889 126.009 164.046C126.573 164.202 127.172 164.127 127.674 163.837L132.686 172.517C133.424 173.796 134.631 174.735 136.041 175.126C137.452 175.518 138.95 175.33 140.206 174.605L157.256 164.761C158.512 164.036 159.423 162.833 159.789 161.415C160.155 159.998 159.946 158.484 159.208 157.205L154.196 148.525C154.699 148.235 155.063 147.753 155.21 147.187C155.356 146.62 155.273 146.014 154.977 145.502L153.864 143.573C153.568 143.062 153.085 142.686 152.521 142.53C151.957 142.373 151.358 142.448 150.855 142.738L148.55 144.069L137.848 138.014C137.721 137.942 137.582 137.896 137.438 137.879C137.295 137.861 137.15 137.872 137.011 137.91C136.873 137.949 136.744 138.015 136.631 138.105C136.519 138.195 136.424 138.307 136.355 138.434ZM152.302 149.619L157.313 158.298C157.756 159.066 157.882 159.975 157.662 160.825C157.442 161.675 156.896 162.397 156.142 162.832L139.092 172.676C138.339 173.111 137.44 173.224 136.594 172.989C135.747 172.754 135.023 172.191 134.58 171.423L129.569 162.744L152.302 149.619ZM151.969 144.667L153.083 146.596L126.561 161.909L125.447 159.98L151.969 144.667ZM149.627 153.735C149.375 153.88 149.193 154.121 149.12 154.404C149.047 154.688 149.089 154.99 149.236 155.246L152.577 161.033C152.725 161.289 152.966 161.476 153.248 161.555C153.53 161.633 153.83 161.595 154.081 161.45C154.332 161.305 154.515 161.065 154.588 160.781C154.661 160.498 154.619 160.195 154.472 159.939L151.131 154.153C150.983 153.897 150.742 153.709 150.46 153.631C150.178 153.552 149.878 153.59 149.627 153.735ZM145.838 155.922C145.587 156.068 145.404 156.308 145.331 156.592C145.258 156.875 145.3 157.178 145.447 157.434L148.788 163.22C148.936 163.476 149.177 163.664 149.459 163.742C149.742 163.82 150.041 163.783 150.292 163.638C150.544 163.493 150.726 163.252 150.799 162.969C150.872 162.685 150.83 162.382 150.683 162.127L147.342 156.34C147.194 156.084 146.953 155.897 146.671 155.818C146.389 155.74 146.089 155.777 145.838 155.922ZM142.049 158.11C141.798 158.255 141.615 158.496 141.542 158.779C141.469 159.063 141.511 159.365 141.659 159.621L144.999 165.408C145.147 165.664 145.389 165.851 145.671 165.93C145.953 166.008 146.252 165.97 146.503 165.825C146.755 165.68 146.937 165.44 147.01 165.156C147.083 164.873 147.042 164.57 146.894 164.314L143.553 158.528C143.405 158.272 143.164 158.084 142.882 158.006C142.6 157.927 142.3 157.965 142.049 158.11ZM138.26 160.297C138.009 160.443 137.827 160.683 137.753 160.967C137.68 161.25 137.722 161.553 137.87 161.809L141.211 167.595C141.358 167.851 141.6 168.039 141.882 168.117C142.164 168.195 142.463 168.158 142.715 168.013C142.966 167.868 143.148 167.627 143.221 167.344C143.295 167.06 143.253 166.757 143.105 166.502L139.764 160.715C139.616 160.459 139.375 160.272 139.093 160.193C138.811 160.115 138.511 160.152 138.26 160.297ZM134.471 162.485C134.22 162.63 134.038 162.871 133.965 163.154C133.891 163.438 133.933 163.74 134.081 163.996L137.422 169.783C137.569 170.039 137.811 170.226 138.093 170.305C138.375 170.383 138.675 170.345 138.926 170.2C139.177 170.055 139.359 169.815 139.432 169.531C139.506 169.248 139.464 168.945 139.316 168.689L135.975 162.903C135.828 162.647 135.586 162.459 135.304 162.381C135.022 162.302 134.722 162.34 134.471 162.485Z" fill="white" fill-opacity="0.5"/>
<path d="M25.7266 76.0985C20.4765 77.5052 15.0801 74.3896 13.6733 69.1395C12.2666 63.8894 15.3822 58.493 20.6323 57.0862C25.8824 55.6795 31.2788 58.7951 32.6856 64.0452C34.0923 69.2953 30.9767 74.6917 25.7266 76.0985Z" stroke="white" stroke-opacity="0.5" stroke-width="3.53283" stroke-linecap="round" stroke-linejoin="round"/>
<path d="M28.9905 78.9069C29.7742 81.8318 31.3421 82.4313 34.6589 83.1101C36.8526 82.5223 38.2626 79.0095 38.9414 75.6927C41.4745 73.4464 43.6157 69.7377 43.2238 68.2753C40.9776 65.7422 39.823 65.1339 36.8981 65.9176M17.1727 54.121C16.389 51.196 15.0167 50.7536 11.6998 50.0749C9.50612 50.6627 8.09614 54.1755 7.4174 57.4923C4.88431 59.7385 2.74309 63.4472 3.13496 64.9097C5.38118 67.4428 6.4696 68.3769 9.39456 67.5932" stroke="white" stroke-opacity="0.5" stroke-width="3.53283" stroke-linecap="round" stroke-linejoin="round"/>
<path d="M284.497 111.135C284.188 110.926 283.808 110.847 283.44 110.914C283.072 110.981 282.745 111.189 282.529 111.494C282.313 111.799 282.226 112.175 282.286 112.543C282.347 112.91 282.55 113.239 282.852 113.458L285.537 115.336L281.431 116.05C280.835 116.154 280.371 116.619 280.267 117.21L279.059 124.147C279.02 124.371 279.035 124.602 279.105 124.818C279.174 125.035 279.294 125.232 279.456 125.393C279.618 125.554 279.816 125.673 280.035 125.741C280.253 125.81 280.484 125.825 280.71 125.785L282.669 125.444L288.907 143.674C289.776 146.339 292.439 147.768 295.271 147.276L300.514 146.364C303.347 145.871 305.372 143.626 305.289 140.843L305.002 121.559L306.96 121.218C307.186 121.179 307.398 121.087 307.581 120.949C307.763 120.811 307.909 120.632 308.007 120.426C308.105 120.22 308.152 119.994 308.144 119.766C308.136 119.539 308.073 119.317 307.961 119.119L304.481 112.997C304.336 112.742 304.115 112.538 303.849 112.413C303.583 112.288 303.284 112.248 302.993 112.299L289.515 114.644L284.497 111.135ZM285.516 124.949L302.156 122.054L302.432 140.912C302.472 142.241 301.512 143.307 300.027 143.566L294.78 144.478C293.295 144.737 292.031 144.057 291.613 142.773L285.516 124.949ZM282.908 118.676L302.488 115.27L304.476 118.768L282.216 122.64L282.908 118.676Z" fill="white" fill-opacity="0.5"/>
<path d="M354.777 43.7859L375.323 53.8232L374.327 56.6627L352.897 49.1434L352.27 50.9293L373.7 58.4486L370.567 67.3778L349.137 59.8585C348.003 63.0909 347.987 66.3947 349.036 69.7511C350.084 73.1076 351.973 75.9565 354.683 78.3514L353.586 81.4766L367.873 86.4895L368.969 83.3643C372.564 83.1813 375.842 82.1255 378.752 80.1779C381.662 78.2304 383.72 75.6231 384.854 72.3907L379.496 70.5109L384.509 56.2241L355.403 42L354.777 43.7859ZM382.172 57.169L381.47 59.1692L379.684 58.5426L380.449 56.3638L382.172 57.169ZM380.844 60.955L377.711 69.8843L375.925 69.2577L379.058 60.3284L380.844 60.955ZM372.353 68.0044L375.486 59.0752L377.272 59.7018L374.139 68.631L372.353 68.0044ZM376.113 57.2893L377.021 54.6999L378.751 55.4872L377.899 57.916L376.113 57.2893Z" fill="white" fill-opacity="0.5"/>
<path d="M114.298 19.8006L137.117 18.312L137.662 21.2714L115.326 25.3844L115.669 27.2457L138.004 23.1327L139.718 32.4392L117.383 36.5522C118.003 39.9212 119.629 42.7969 122.206 45.1898C124.783 47.5827 127.837 49.1179 131.378 49.8514L131.978 53.1086L146.868 50.3666L146.268 47.1094C149.297 45.166 151.619 42.6216 153.178 39.4864C154.737 36.3512 155.229 33.0661 154.608 29.6972L149.025 30.7254L146.283 15.8351L113.955 17.9393L114.298 19.8006ZM144.723 17.8158L145.107 19.9004L143.245 20.2432L142.827 17.9724L144.723 17.8158ZM145.449 21.7617L147.163 31.0682L145.302 31.4109L143.588 22.1045L145.449 21.7617ZM141.579 32.0964L139.866 22.79L141.727 22.4472L143.441 31.7537L141.579 32.0964ZM139.523 20.9287L139.026 18.2298L140.918 18.0546L141.384 20.5859L139.523 20.9287Z" fill="white" fill-opacity="0.5"/>
<path d="M230.688 22.5365C230.179 17.1251 234.153 12.3257 239.565 11.8168C244.976 11.3078 249.775 15.2821 250.284 20.6935C250.793 26.1049 246.819 30.9043 241.408 31.4132C235.996 31.9222 231.197 27.9479 230.688 22.5365Z" stroke="white" stroke-opacity="0.5" stroke-width="3.53283" stroke-linecap="round" stroke-linejoin="round"/>
<path d="M227.373 25.2848C224.359 25.5684 223.505 27.0139 222.281 30.1705C222.494 32.4317 225.722 34.4093 228.878 35.6331C230.669 38.5062 233.968 41.2375 235.475 41.0957C238.348 39.3047 239.141 38.2682 238.857 35.2533M253.787 17.7786C256.801 17.4951 257.467 16.216 258.691 13.0594C258.478 10.7983 255.251 8.82071 252.094 7.59684C250.303 4.72378 247.005 1.99249 245.497 2.13426C242.624 3.92523 241.521 4.84211 241.805 7.85695" stroke="white" stroke-opacity="0.5" stroke-width="3.53283" stroke-linecap="round" stroke-linejoin="round"/>
<path d="M11.5298 571.952L33.7492 566.547L34.7968 569.368L13.5064 577.274L14.1653 579.048L35.4557 571.142L38.75 580.013L17.4596 587.919C18.6521 591.131 20.7506 593.683 23.7016 595.595C26.6527 597.507 29.9257 598.492 33.5404 598.603L34.6935 601.708L48.8871 596.437L47.7341 593.332C50.3823 590.895 52.2301 587.988 53.2244 584.631C54.2186 581.274 54.1362 577.953 52.9436 574.742L47.621 576.719L42.3501 562.525L10.8709 570.177L11.5298 571.952ZM41.1557 564.745L41.8936 566.732L40.1194 567.391L39.3156 565.227L41.1557 564.745ZM42.5525 568.506L45.8468 577.377L44.0726 578.036L40.7783 569.165L42.5525 568.506ZM40.5242 579.354L37.2299 570.483L39.0041 569.824L42.2984 578.695L40.5242 579.354ZM36.571 568.709L35.6157 566.136L37.4492 565.637L38.3452 568.05L36.571 568.709Z" fill="white" fill-opacity="0.5"/>
</svg>
