<svg width="100" height="100" viewBox="0 0 100 100" fill="none" xmlns="http://www.w3.org/2000/svg">
<path d="M41.5877 17.6921C41.8245 17.8346 42.031 18.0226 42.1956 18.2454C42.3601 18.4682 42.4793 18.7214 42.5464 18.9905C42.6135 19.2596 42.6273 19.5394 42.5868 19.8139C42.5463 20.0883 42.4525 20.3521 42.3106 20.59L31.6099 38.5144H70.4198L59.7149 20.59C59.4285 20.1094 59.3437 19.534 59.4793 18.9906C59.6148 18.4471 59.9596 17.98 60.4378 17.6921C60.916 17.4041 61.4885 17.3189 62.0292 17.4552C62.5699 17.5914 63.0346 17.938 63.3211 18.4187L75.3204 38.5144H80.4354C81.5501 38.5144 82.6191 38.9595 83.4073 39.7517C84.1956 40.544 84.6384 41.6185 84.6384 42.7389V46.9633C84.6384 48.0837 84.1956 49.1582 83.4073 49.9505C82.6191 50.7427 81.5501 51.1878 80.4354 51.1878V70.1978C80.4354 72.9988 79.3284 75.6851 77.3579 77.6657C75.3874 79.6463 72.7148 80.759 69.9281 80.759H32.1016C29.3149 80.759 26.6423 79.6463 24.6718 77.6657C22.7013 75.6851 21.5943 72.9988 21.5943 70.1978V51.1878C20.4796 51.1878 19.4106 50.7427 18.6224 49.9505C17.8342 49.1582 17.3914 48.0837 17.3914 46.9633V42.7389C17.3914 41.6185 17.8342 40.544 18.6224 39.7517C19.4106 38.9595 20.4796 38.5144 21.5943 38.5144H26.7093L38.7003 18.4187C38.8421 18.1806 39.0291 17.973 39.2508 17.8077C39.4725 17.6423 39.7244 17.5225 39.9921 17.455C40.2598 17.3875 40.5382 17.3737 40.8112 17.4144C41.0843 17.4551 41.3509 17.5494 41.5877 17.6921ZM25.7972 51.1878V70.1978C25.7972 71.8784 26.4614 73.4902 27.6438 74.6785C28.8261 75.8669 30.4296 76.5345 32.1016 76.5345H69.9281C71.6001 76.5345 73.2037 75.8669 74.386 74.6785C75.5683 73.4902 76.2325 71.8784 76.2325 70.1978V51.1878H25.7972ZM21.5943 42.7389V46.9633H80.4354V42.7389H21.5943ZM34.2031 55.4122C34.7605 55.4122 35.295 55.6348 35.6891 56.0309C36.0832 56.427 36.3046 56.9643 36.3046 57.5245V70.1978C36.3046 70.758 36.0832 71.2953 35.6891 71.6914C35.295 72.0875 34.7605 72.31 34.2031 72.31C33.6458 72.31 33.1112 72.0875 32.7171 71.6914C32.323 71.2953 32.1016 70.758 32.1016 70.1978V57.5245C32.1016 56.9643 32.323 56.427 32.7171 56.0309C33.1112 55.6348 33.6458 55.4122 34.2031 55.4122ZM42.609 55.4122C43.1663 55.4122 43.7008 55.6348 44.0949 56.0309C44.489 56.427 44.7105 56.9643 44.7105 57.5245V70.1978C44.7105 70.758 44.489 71.2953 44.0949 71.6914C43.7008 72.0875 43.1663 72.31 42.609 72.31C42.0516 72.31 41.5171 72.0875 41.123 71.6914C40.7289 71.2953 40.5075 70.758 40.5075 70.1978V57.5245C40.5075 56.9643 40.7289 56.427 41.123 56.0309C41.5171 55.6348 42.0516 55.4122 42.609 55.4122ZM51.0149 55.4122C51.5722 55.4122 52.1067 55.6348 52.5008 56.0309C52.8949 56.427 53.1163 56.9643 53.1163 57.5245V70.1978C53.1163 70.758 52.8949 71.2953 52.5008 71.6914C52.1067 72.0875 51.5722 72.31 51.0149 72.31C50.4575 72.31 49.923 72.0875 49.5289 71.6914C49.1348 71.2953 48.9134 70.758 48.9134 70.1978V57.5245C48.9134 56.9643 49.1348 56.427 49.5289 56.0309C49.923 55.6348 50.4575 55.4122 51.0149 55.4122ZM59.4207 55.4122C59.9781 55.4122 60.5126 55.6348 60.9067 56.0309C61.3008 56.427 61.5222 56.9643 61.5222 57.5245V70.1978C61.5222 70.758 61.3008 71.2953 60.9067 71.6914C60.5126 72.0875 59.9781 72.31 59.4207 72.31C58.8634 72.31 58.3289 72.0875 57.9348 71.6914C57.5407 71.2953 57.3193 70.758 57.3193 70.1978V57.5245C57.3193 56.9643 57.5407 56.427 57.9348 56.0309C58.3289 55.6348 58.8634 55.4122 59.4207 55.4122ZM67.8266 55.4122C68.384 55.4122 68.9185 55.6348 69.3126 56.0309C69.7067 56.427 69.9281 56.9643 69.9281 57.5245V70.1978C69.9281 70.758 69.7067 71.2953 69.3126 71.6914C68.9185 72.0875 68.384 72.31 67.8266 72.31C67.2693 72.31 66.7347 72.0875 66.3406 71.6914C65.9465 71.2953 65.7251 70.758 65.7251 70.1978V57.5245C65.7251 56.9643 65.9465 56.427 66.3406 56.0309C66.7347 55.6348 67.2693 55.4122 67.8266 55.4122Z" fill="#262626"/>
</svg>
