<svg width="23" height="23" viewBox="0 0 23 23" fill="none" xmlns="http://www.w3.org/2000/svg">
<path d="M9.56515 4.06911C9.61962 4.10189 9.66713 4.14514 9.70496 4.19638C9.7428 4.24762 9.77022 4.30586 9.78566 4.36775C9.8011 4.42965 9.80426 4.494 9.79495 4.55712C9.78564 4.62024 9.76406 4.6809 9.73142 4.73564L7.27026 8.85824H16.1965L13.7344 4.73564C13.6685 4.62509 13.649 4.49276 13.6802 4.36776C13.7114 4.24276 13.7907 4.13533 13.9007 4.06911C14.0107 4.00288 14.1423 3.98328 14.2667 4.01462C14.3911 4.04596 14.4979 4.12568 14.5638 4.23622L17.3237 8.85824H18.5001C18.7565 8.85824 19.0024 8.96061 19.1837 9.14283C19.365 9.32504 19.4668 9.57218 19.4668 9.82987V10.8015C19.4668 11.0592 19.365 11.3063 19.1837 11.4885C19.0024 11.6708 18.7565 11.7731 18.5001 11.7731V16.1454C18.5001 16.7897 18.2455 17.4075 17.7923 17.863C17.3391 18.3186 16.7244 18.5745 16.0834 18.5745H7.38336C6.74242 18.5745 6.12772 18.3186 5.67451 17.863C5.22129 17.4075 4.96668 16.7897 4.96668 16.1454V11.7731C4.7103 11.7731 4.46442 11.6708 4.28313 11.4885C4.10185 11.3063 4 11.0592 4 10.8015V9.82987C4 9.57218 4.10185 9.32504 4.28313 9.14283C4.46442 8.96061 4.7103 8.85824 4.96668 8.85824H6.14312L8.90105 4.23622C8.93366 4.18148 8.97669 4.13373 9.02767 4.0957C9.07865 4.05767 9.13659 4.03011 9.19817 4.01459C9.25975 3.99907 9.32377 3.99589 9.38657 4.00525C9.44938 4.0146 9.5107 4.0363 9.56515 4.06911ZM5.93335 11.7731V16.1454C5.93335 16.532 6.08612 16.9027 6.35805 17.176C6.62998 17.4493 6.9988 17.6029 7.38336 17.6029H16.0834C16.468 17.6029 16.8368 17.4493 17.1088 17.176C17.3807 16.9027 17.5335 16.532 17.5335 16.1454V11.7731H5.93335ZM4.96668 9.82987V10.8015H18.5001V9.82987H4.96668ZM7.8667 12.7447C7.99489 12.7447 8.11783 12.7959 8.20847 12.887C8.29912 12.9781 8.35004 13.1017 8.35004 13.2306V16.1454C8.35004 16.2743 8.29912 16.3978 8.20847 16.489C8.11783 16.5801 7.99489 16.6312 7.8667 16.6312C7.73851 16.6312 7.61557 16.5801 7.52493 16.489C7.43429 16.3978 7.38336 16.2743 7.38336 16.1454V13.2306C7.38336 13.1017 7.43429 12.9781 7.52493 12.887C7.61557 12.7959 7.73851 12.7447 7.8667 12.7447ZM9.80005 12.7447C9.92824 12.7447 10.0512 12.7959 10.1418 12.887C10.2325 12.9781 10.2834 13.1017 10.2834 13.2306V16.1454C10.2834 16.2743 10.2325 16.3978 10.1418 16.489C10.0512 16.5801 9.92824 16.6312 9.80005 16.6312C9.67186 16.6312 9.54893 16.5801 9.45828 16.489C9.36764 16.3978 9.31672 16.2743 9.31672 16.1454V13.2306C9.31672 13.1017 9.36764 12.9781 9.45828 12.887C9.54893 12.7959 9.67186 12.7447 9.80005 12.7447ZM11.7334 12.7447C11.8616 12.7447 11.9845 12.7959 12.0752 12.887C12.1658 12.9781 12.2167 13.1017 12.2167 13.2306V16.1454C12.2167 16.2743 12.1658 16.3978 12.0752 16.489C11.9845 16.5801 11.8616 16.6312 11.7334 16.6312C11.6052 16.6312 11.4823 16.5801 11.3916 16.489C11.301 16.3978 11.2501 16.2743 11.2501 16.1454V13.2306C11.2501 13.1017 11.301 12.9781 11.3916 12.887C11.4823 12.7959 11.6052 12.7447 11.7334 12.7447ZM13.6668 12.7447C13.7949 12.7447 13.9179 12.7959 14.0085 12.887C14.0992 12.9781 14.1501 13.1017 14.1501 13.2306V16.1454C14.1501 16.2743 14.0992 16.3978 14.0085 16.489C13.9179 16.5801 13.7949 16.6312 13.6668 16.6312C13.5386 16.6312 13.4156 16.5801 13.325 16.489C13.2343 16.3978 13.1834 16.2743 13.1834 16.1454V13.2306C13.1834 13.1017 13.2343 12.9781 13.325 12.887C13.4156 12.7959 13.5386 12.7447 13.6668 12.7447ZM15.6001 12.7447C15.7283 12.7447 15.8512 12.7959 15.9419 12.887C16.0325 12.9781 16.0834 13.1017 16.0834 13.2306V16.1454C16.0834 16.2743 16.0325 16.3978 15.9419 16.489C15.8512 16.5801 15.7283 16.6312 15.6001 16.6312C15.4719 16.6312 15.349 16.5801 15.2583 16.489C15.1677 16.3978 15.1168 16.2743 15.1168 16.1454V13.2306C15.1168 13.1017 15.1677 12.9781 15.2583 12.887C15.349 12.7959 15.4719 12.7447 15.6001 12.7447Z" fill="#4A4A4A"/>
</svg>
