<svg width="120" height="119" viewBox="0 0 120 119" fill="none" xmlns="http://www.w3.org/2000/svg">
<path d="M50.4025 21.0533C50.6843 21.223 50.9301 21.4467 51.1259 21.7119C51.3216 21.977 51.4635 22.2783 51.5434 22.5985C51.6233 22.9188 51.6396 23.2517 51.5915 23.5783C51.5433 23.9049 51.4316 24.2187 51.2628 24.5019L38.5289 45.8319H84.7128L71.9739 24.5019C71.633 23.93 71.5322 23.2453 71.6935 22.5986C71.8548 21.9518 72.2651 21.396 72.8342 21.0533C73.4033 20.7107 74.0844 20.6093 74.7279 20.7714C75.3713 20.9336 75.9243 21.346 76.2652 21.918L90.5445 45.8319H96.6313C97.9578 45.8319 99.2299 46.3616 100.168 47.3043C101.106 48.2471 101.633 49.5258 101.633 50.859V55.8861C101.633 57.2194 101.106 58.4981 100.168 59.4408C99.2299 60.3836 97.9578 60.9132 96.6313 60.9132V83.5352C96.6313 86.8684 95.314 90.065 92.9691 92.4219C90.6242 94.7789 87.4438 96.103 84.1276 96.103H39.1141C35.7979 96.103 32.6175 94.7789 30.2726 92.4219C27.9277 90.065 26.6104 86.8684 26.6104 83.5352V60.9132C25.2839 60.9132 24.0118 60.3836 23.0738 59.4408C22.1358 58.4981 21.6089 57.2194 21.6089 55.8861V50.859C21.6089 49.5258 22.1358 48.2471 23.0738 47.3043C24.0118 46.3616 25.2839 45.8319 26.6104 45.8319H32.6972L46.9665 21.918C47.1352 21.6348 47.3579 21.3877 47.6216 21.1909C47.8854 20.9942 48.1852 20.8516 48.5038 20.7713C48.8224 20.691 49.1536 20.6746 49.4786 20.723C49.8035 20.7714 50.1207 20.8836 50.4025 21.0533ZM31.6119 60.9132V83.5352C31.6119 85.5351 32.4023 87.4531 33.8092 88.8672C35.2162 90.2814 37.1244 91.0759 39.1141 91.0759H84.1276C86.1173 91.0759 88.0255 90.2814 89.4325 88.8672C90.8394 87.4531 91.6298 85.5351 91.6298 83.5352V60.9132H31.6119ZM26.6104 50.859V55.8861H96.6313V50.859H26.6104ZM41.6149 65.9403C42.2781 65.9403 42.9142 66.2052 43.3832 66.6765C43.8521 67.1479 44.1156 67.7873 44.1156 68.4539V83.5352C44.1156 84.2018 43.8521 84.8412 43.3832 85.3126C42.9142 85.7839 42.2781 86.0488 41.6149 86.0488C40.9516 86.0488 40.3156 85.7839 39.8466 85.3126C39.3776 84.8412 39.1141 84.2018 39.1141 83.5352V68.4539C39.1141 67.7873 39.3776 67.1479 39.8466 66.6765C40.3156 66.2052 40.9516 65.9403 41.6149 65.9403ZM51.6179 65.9403C52.2811 65.9403 52.9172 66.2052 53.3862 66.6765C53.8551 67.1479 54.1186 67.7873 54.1186 68.4539V83.5352C54.1186 84.2018 53.8551 84.8412 53.3862 85.3126C52.9172 85.7839 52.2811 86.0488 51.6179 86.0488C50.9546 86.0488 50.3185 85.7839 49.8496 85.3126C49.3806 84.8412 49.1171 84.2018 49.1171 83.5352V68.4539C49.1171 67.7873 49.3806 67.1479 49.8496 66.6765C50.3185 66.2052 50.9546 65.9403 51.6179 65.9403ZM61.6209 65.9403C62.2841 65.9403 62.9202 66.2052 63.3892 66.6765C63.8581 67.1479 64.1216 67.7873 64.1216 68.4539V83.5352C64.1216 84.2018 63.8581 84.8412 63.3892 85.3126C62.9202 85.7839 62.2841 86.0488 61.6209 86.0488C60.9576 86.0488 60.3215 85.7839 59.8526 85.3126C59.3836 84.8412 59.1201 84.2018 59.1201 83.5352V68.4539C59.1201 67.7873 59.3836 67.1479 59.8526 66.6765C60.3215 66.2052 60.9576 65.9403 61.6209 65.9403ZM71.6238 65.9403C72.2871 65.9403 72.9232 66.2052 73.3921 66.6765C73.8611 67.1479 74.1246 67.7873 74.1246 68.4539V83.5352C74.1246 84.2018 73.8611 84.8412 73.3921 85.3126C72.9232 85.7839 72.2871 86.0488 71.6238 86.0488C70.9606 86.0488 70.3245 85.7839 69.8555 85.3126C69.3866 84.8412 69.1231 84.2018 69.1231 83.5352V68.4539C69.1231 67.7873 69.3866 67.1479 69.8555 66.6765C70.3245 66.2052 70.9606 65.9403 71.6238 65.9403ZM81.6268 65.9403C82.2901 65.9403 82.9262 66.2052 83.3951 66.6765C83.8641 67.1479 84.1276 67.7873 84.1276 68.4539V83.5352C84.1276 84.2018 83.8641 84.8412 83.3951 85.3126C82.9262 85.7839 82.2901 86.0488 81.6268 86.0488C80.9636 86.0488 80.3275 85.7839 79.8585 85.3126C79.3896 84.8412 79.1261 84.2018 79.1261 83.5352V68.4539C79.1261 67.7873 79.3896 67.1479 79.8585 66.6765C80.3275 66.2052 80.9636 65.9403 81.6268 65.9403Z" fill="white"/>
<path d="M96.3499 39.2334V10.4613H102.075V39.2334H96.3499ZM84.8367 27.699V21.9744H113.609V27.699H84.8367Z" fill="white"/>
</svg>
